<svg width="30" height="30" viewBox="0 0 30 30" fill="none" xmlns="http://www.w3.org/2000/svg">
<g clip-path="url(#clip0_2109_613)">
<path d="M28.75 27.5H6.25C5.25544 27.5 4.30161 27.1049 3.59835 26.4017C2.89509 25.6984 2.5 24.7446 2.5 23.75V1.25C2.5 0.918479 2.3683 0.600537 2.13388 0.366117C1.89946 0.131696 1.58152 0 1.25 0C0.918479 0 0.600537 0.131696 0.366117 0.366117C0.131696 0.600537 0 0.918479 0 1.25L0 23.75C0.00198482 25.407 0.661102 26.9956 1.83277 28.1672C3.00445 29.3389 4.59301 29.998 6.25 30H28.75C29.0815 30 29.3995 29.8683 29.6339 29.6339C29.8683 29.3995 30 29.0815 30 28.75C30 28.4185 29.8683 28.1005 29.6339 27.8661C29.3995 27.6317 29.0815 27.5 28.75 27.5Z" fill="#0A0A10"/>
<path d="M7.5 25C7.83152 25 8.14946 24.8683 8.38388 24.6339C8.6183 24.3995 8.75 24.0815 8.75 23.75V15C8.75 14.6685 8.6183 14.3505 8.38388 14.1161C8.14946 13.8817 7.83152 13.75 7.5 13.75C7.16848 13.75 6.85054 13.8817 6.61612 14.1161C6.3817 14.3505 6.25 14.6685 6.25 15V23.75C6.25 24.0815 6.3817 24.3995 6.61612 24.6339C6.85054 24.8683 7.16848 25 7.5 25Z" fill="#0A0A10"/>
<path d="M12.5 12.5V23.75C12.5 24.0815 12.6317 24.3995 12.8661 24.6339C13.1005 24.8683 13.4185 25 13.75 25C14.0815 25 14.3995 24.8683 14.6339 24.6339C14.8683 24.3995 15 24.0815 15 23.75V12.5C15 12.1685 14.8683 11.8505 14.6339 11.6161C14.3995 11.3817 14.0815 11.25 13.75 11.25C13.4185 11.25 13.1005 11.3817 12.8661 11.6161C12.6317 11.8505 12.5 12.1685 12.5 12.5Z" fill="#0A0A10"/>
<path d="M18.75 16.25V23.75C18.75 24.0815 18.8817 24.3995 19.1161 24.6339C19.3505 24.8683 19.6685 25 20 25C20.3315 25 20.6495 24.8683 20.8839 24.6339C21.1183 24.3995 21.25 24.0815 21.25 23.75V16.25C21.25 15.9185 21.1183 15.6005 20.8839 15.3661C20.6495 15.1317 20.3315 15 20 15C19.6685 15 19.3505 15.1317 19.1161 15.3661C18.8817 15.6005 18.75 15.9185 18.75 16.25Z" fill="#0A0A10"/>
<path d="M25 11.25V23.75C25 24.0815 25.1317 24.3995 25.3661 24.6339C25.6005 24.8683 25.9185 25 26.25 25C26.5815 25 26.8995 24.8683 27.1339 24.6339C27.3683 24.3995 27.5 24.0815 27.5 23.75V11.25C27.5 10.9185 27.3683 10.6005 27.1339 10.3661C26.8995 10.1317 26.5815 10 26.25 10C25.9185 10 25.6005 10.1317 25.3661 10.3661C25.1317 10.6005 25 10.9185 25 11.25Z" fill="#0A0A10"/>
<path d="M7.49973 11.25C7.83123 11.2499 8.14912 11.1182 8.38348 10.8837L12.866 6.40124C13.1042 6.17427 13.4207 6.04767 13.7497 6.04767C14.0788 6.04767 14.3952 6.17427 14.6335 6.40124L17.3485 9.11624C18.0517 9.81926 19.0054 10.2142 19.9997 10.2142C20.9941 10.2142 21.9478 9.81926 22.651 9.11624L29.6335 2.13374C29.8612 1.89799 29.9872 1.58223 29.9843 1.25449C29.9815 0.926743 29.85 0.613227 29.6183 0.381467C29.3865 0.149707 29.073 0.0182456 28.7452 0.0153976C28.4175 0.0125496 28.1017 0.138543 27.866 0.36624L20.8835 7.34749C20.6491 7.58183 20.3312 7.71347 19.9997 7.71347C19.6683 7.71347 19.3504 7.58183 19.116 7.34749L16.401 4.63374C15.6978 3.93072 14.7441 3.53579 13.7497 3.53579C12.7554 3.53579 11.8017 3.93072 11.0985 4.63374L6.61598 9.11624C6.44122 9.29105 6.32221 9.51376 6.274 9.7562C6.22579 9.99864 6.25055 10.2499 6.34514 10.4783C6.43972 10.7067 6.5999 10.9019 6.80541 11.0392C7.01092 11.1766 7.25255 11.2499 7.49973 11.25Z" fill="#0A0A10"/>
</g>
<defs>
<clipPath id="clip0_2109_613">
<rect width="30" height="30" fill="white"/>
</clipPath>
</defs>
</svg>
