<svg width="24" height="24" viewBox="0 0 24 24" fill="none" xmlns="http://www.w3.org/2000/svg">
<g clip-path="url(#clip0_1573_7204)">
<path d="M21 0C19.346 0 18 1.346 18 3V21C18 22.654 19.346 24 21 24C22.654 24 24 22.654 24 21V3C24 1.346 22.654 0 21 0ZM22 21C22 21.551 21.552 22 21 22C20.448 22 20 21.551 20 21V3C20 2.449 20.448 2 21 2C21.552 2 22 2.449 22 3V21ZM3 0C1.346 0 0 1.346 0 3V16C0 17.654 1.346 19 3 19C4.654 19 6 17.654 6 16V3C6 1.346 4.654 0 3 0ZM4 16C4 16.551 3.551 17 3 17C2.449 17 2 16.551 2 16V3C2 2.449 2.449 2 3 2C3.551 2 4 2.449 4 3V16ZM12 0C10.346 0 9 1.346 9 3V10C9 11.654 10.346 13 12 13C13.654 13 15 11.654 15 10V3C15 1.346 13.654 0 12 0ZM13 10C13 10.551 12.551 11 12 11C11.449 11 11 10.551 11 10V3C11 2.449 11.449 2 12 2C12.551 2 13 2.449 13 3V10Z" fill="#00AC52"/>
</g>
<defs>
<clipPath id="clip0_1573_7204">
<rect width="24" height="24" fill="white"/>
</clipPath>
</defs>
</svg>
