<svg width="30" height="30" viewBox="0 0 30 30" fill="none" xmlns="http://www.w3.org/2000/svg">
<g clip-path="url(#clip0_1725_554)">
<path d="M28.3719 19.634C28.6332 20.6002 28.5019 21.6127 28.0032 22.4802C27.5044 23.3477 26.6957 23.9702 25.7294 24.2302C24.7644 24.4902 23.7506 24.3602 22.8831 23.8615L22.3219 23.5377C21.2694 24.4377 20.0582 25.1365 18.7507 25.599V26.2515C18.7507 28.319 17.0682 30.0015 15.0007 30.0015C12.9332 30.0015 11.2507 28.319 11.2507 26.2515V25.599C9.9419 25.1365 8.73065 24.4365 7.6794 23.5377L7.1169 23.8615C6.25065 24.359 5.23815 24.4902 4.2719 24.2302C3.30565 23.9702 2.4969 23.3477 1.99815 22.479C1.4994 21.6127 1.36815 20.6002 1.6294 19.634C1.8894 18.6677 2.5119 17.859 3.38065 17.3602L3.94315 17.0365C3.81565 16.3577 3.7519 15.6765 3.7519 15.004C3.7519 14.3315 3.8169 13.6502 3.94315 12.9715L3.3794 12.6477C2.5119 12.149 1.8894 11.3402 1.6294 10.374C1.36815 9.40773 1.4994 8.39523 1.99815 7.52773C2.4969 6.66023 3.30565 6.03773 4.2719 5.77773C5.23565 5.51648 6.25065 5.64773 7.11815 6.14648L7.6794 6.47023C8.7319 5.57023 9.94315 4.87148 11.2507 4.40898V3.75648C11.2507 1.68898 12.9332 0.00648432 15.0007 0.00648432C16.3344 0.00648432 17.5794 0.723984 18.2481 1.88023C18.5944 2.47898 18.3894 3.24273 17.7931 3.58773C17.1919 3.93523 16.4282 3.72898 16.0857 3.13273C15.8619 2.74523 15.4469 2.50648 15.0019 2.50648C14.3119 2.50648 13.7519 3.06648 13.7519 3.75648V5.33398C13.7519 5.90398 13.3657 6.40148 12.8144 6.54398C11.2682 6.94398 9.86315 7.75523 8.7519 8.89023C8.35315 9.29773 7.7294 9.38273 7.23565 9.10023L5.8719 8.31648C5.58315 8.15023 5.2494 8.10523 4.92315 8.19273C4.60065 8.27898 4.33065 8.48648 4.16565 8.77648C3.99815 9.06648 3.9544 9.40273 4.0419 9.72523C4.12815 10.0477 4.33565 10.3177 4.62565 10.4827L5.99315 11.269C6.4869 11.554 6.72565 12.1352 6.5744 12.6852C6.36065 13.4615 6.2519 14.2427 6.2519 15.0065C6.2519 15.7702 6.36065 16.5515 6.5744 17.3277C6.72565 17.8765 6.4869 18.459 5.99315 18.744L4.6269 19.5302C4.3369 19.6965 4.1294 19.9665 4.0419 20.2877C3.9544 20.6102 3.99815 20.9452 4.16565 21.2352C4.3319 21.5252 4.6019 21.7327 4.92315 21.8202C5.2469 21.9065 5.5819 21.8627 5.87065 21.6965L7.23565 20.9127C7.7269 20.6302 8.3519 20.7127 8.7519 21.1227C9.86315 22.2577 11.2682 23.069 12.8144 23.469C13.3657 23.6102 13.7519 24.109 13.7519 24.679V26.2565C13.7519 26.9465 14.3119 27.5065 15.0019 27.5065C15.6919 27.5065 16.2519 26.9465 16.2519 26.2565V24.679C16.2519 24.109 16.6382 23.6115 17.1894 23.469C18.7356 23.069 20.1407 22.2577 21.2519 21.1227C21.6507 20.7152 22.2769 20.6315 22.7682 20.9127L24.1319 21.6965C24.4219 21.864 24.7557 21.9077 25.0807 21.8202C25.4032 21.734 25.6731 21.5265 25.8382 21.2365C26.0056 20.9465 26.0494 20.6102 25.9619 20.2877C25.8757 19.9652 25.6681 19.6952 25.3781 19.5302L24.0107 18.744C23.5169 18.459 23.2781 17.8777 23.4294 17.3277C23.6432 16.5515 23.7519 15.7702 23.7519 15.0065C23.7519 14.3152 24.3107 13.7565 25.0019 13.7565C25.6932 13.7565 26.2519 14.3152 26.2519 15.0065C26.2519 15.679 26.1869 16.3602 26.0607 17.039L26.6244 17.3627C27.4919 17.8615 28.1144 18.6702 28.3744 19.6365L28.3719 19.634ZM28.9007 6.40523L19.6332 15.6727C18.4531 16.8527 16.8832 17.504 15.2144 17.504H13.7494C13.0582 17.504 12.4994 16.9452 12.4994 16.254V14.789C12.4994 13.1202 13.1507 11.5502 14.3307 10.3702L23.5982 1.10273C25.0606 -0.359766 27.4382 -0.359766 28.9007 1.10273C30.3631 2.56523 30.3631 4.94273 28.9007 6.40523ZM24.2456 7.52523L22.4781 5.75773L16.0982 12.1377C15.3994 12.8365 14.9994 13.8027 14.9994 14.789V15.004H15.2144C16.2007 15.004 17.1669 14.604 17.8657 13.9052L24.2456 7.52523ZM27.1332 2.87023C26.6444 2.38148 25.8544 2.38148 25.3657 2.87023L24.2456 3.99023L26.0132 5.75773L27.1332 4.63773C27.6207 4.15023 27.6207 3.35773 27.1332 2.87023Z" fill="#00A843"/>
</g>
<defs>
<clipPath id="clip0_1725_554">
<rect width="30" height="30" fill="white" transform="translate(0 0.00390625)"/>
</clipPath>
</defs>
</svg>
