<svg width="35" height="27" viewBox="0 0 35 27" fill="none" xmlns="http://www.w3.org/2000/svg">
<path d="M20.4167 13.5C20.4167 14.986 19.9675 16.3642 19.2033 17.5163L14.5833 12.8963V6.35563C17.9113 7.03083 20.4167 9.97229 20.4167 13.5ZM11.6667 6.35563C8.33875 7.03083 5.83333 9.97229 5.83333 13.5C5.83333 17.5265 9.09854 20.7917 13.125 20.7917C14.611 20.7917 15.9892 20.3425 17.1413 19.5783L11.6667 14.1037V6.35563ZM23.3333 9.125H29.1667V6.20833H23.3333V9.125ZM23.3333 14.9583H29.1667V12.0417H23.3333V14.9583ZM23.3333 20.7917H29.1667V17.875H23.3333V20.7917ZM35 4.75V26.625H0V4.75C0 2.33792 1.96292 0.375 4.375 0.375H30.625C33.0371 0.375 35 2.33792 35 4.75ZM32.0833 4.75C32.0833 3.94646 31.43 3.29167 30.625 3.29167H4.375C3.57 3.29167 2.91667 3.94646 2.91667 4.75V23.7083H32.0833V4.75Z" fill="#0A0A10"/>
</svg>
