<svg width="41" height="31" viewBox="0 0 41 31" fill="none" xmlns="http://www.w3.org/2000/svg">
<path d="M40.0112 19.7606C40.0112 21.1148 40.0112 22.4689 40.0112 23.8231C39.9591 24.2398 39.9278 24.6668 39.8445 25.0835C39.8132 25.2398 39.7403 25.4377 39.6153 25.5314C36.6778 27.6877 33.4695 29.3231 29.9799 30.4064C29.7403 30.4793 29.6257 30.4273 29.5007 30.2294C28.8966 29.2294 28.282 28.2293 27.6674 27.2398C27.6257 27.1668 27.6049 27.0835 27.5737 26.9689C28.7091 26.4898 29.8341 26.0314 30.8653 25.3648C30.3445 24.7085 30.1882 24.6668 29.5424 24.9481C23.1882 27.6668 16.8341 27.6252 10.4799 24.9585C9.82366 24.6877 9.5945 24.7502 9.10491 25.4273C10.2195 25.9689 11.3132 26.5002 12.5007 27.0731C11.7924 28.1773 11.1153 29.2606 10.4174 30.3231C10.3653 30.4064 10.1466 30.4481 10.032 30.4168C6.55283 29.3335 3.3445 27.7085 0.396581 25.5523C0.292414 25.4689 0.188247 25.3127 0.167414 25.1773C-0.134669 22.1252 -0.0305028 19.0939 0.500747 16.0731C1.3445 11.2502 3.25075 6.84393 5.94866 2.78143C6.04241 2.6356 6.19866 2.5106 6.3445 2.43768C8.81325 1.30226 11.3966 0.531431 14.0737 0.0314309C14.2924 -0.0102357 14.407 0.0418476 14.5112 0.239764C14.7612 0.750181 15.0528 1.25018 15.2612 1.78143C15.3862 2.09393 15.5528 2.12518 15.8549 2.10435C17.032 1.98976 18.2091 1.8231 19.3966 1.83351C21.0112 1.84393 22.6153 2.00018 24.2195 2.11476C24.5007 2.1356 24.6362 2.0731 24.7403 1.81268C24.9695 1.29185 25.2403 0.781431 25.4903 0.271014C25.5945 0.0626809 25.7195 0.000180935 25.9487 0.0418476C28.6049 0.500181 31.157 1.28143 33.6049 2.39601C33.782 2.47935 33.9695 2.61476 34.0632 2.78143C34.7924 3.96893 35.5424 5.1356 36.1987 6.36476C38.2507 10.2502 39.4903 14.3856 39.8758 18.771C39.907 19.1043 39.9695 19.4273 40.0112 19.7606ZM30.2612 16.6356C30.2507 16.4898 30.2507 16.2502 30.2091 16.021C30.157 15.7502 30.0945 15.4898 30.0112 15.2293C29.1362 12.7085 26.2091 11.9064 24.3549 13.6564C22.6674 15.2606 22.6466 18.1773 24.3341 19.7918C25.6987 21.1043 27.7195 21.0939 29.0632 19.7502C29.8966 18.9168 30.2507 17.8856 30.2612 16.6356ZM17.0737 16.6877C16.907 16.0835 16.8237 15.4377 16.5632 14.8648C15.5737 12.646 12.9382 12.021 11.1778 13.5523C9.35491 15.1356 9.32366 18.2189 11.1049 19.8439C12.4903 21.1043 14.4487 21.0731 15.7716 19.7398C16.6049 18.9168 16.9591 17.8856 17.0737 16.6877Z" fill="#5865F1"/>
</svg>
