<svg width="30" height="30" viewBox="0 0 30 30" fill="none" xmlns="http://www.w3.org/2000/svg">
<g clip-path="url(#clip0_1792_525)">
<path d="M30 15.0328C30 18.5027 30.0094 21.9725 30 25.4423C29.9906 27.6086 28.6402 29.3623 26.5864 29.8687C26.1926 29.9625 25.7799 30 25.3673 30C18.4558 30.0094 11.5349 30.0094 4.62332 30C1.95061 30 0.00937793 28.0588 0.00937793 25.3954C0 18.4651 0 11.5349 0 4.61394C0.00937793 1.94123 1.94123 0 4.62332 0C11.5442 0 18.4745 0 25.3954 0C27.7399 0 29.5405 1.50047 29.9437 3.78868C30 4.09816 30 4.41701 30 4.73586C30 8.16818 30 11.6005 30 15.0328ZM27.7493 14.9953C27.7493 11.5536 27.7493 8.10253 27.7493 4.66083C27.7493 3.16036 26.8396 2.2507 25.3392 2.2507C18.4464 2.2507 11.5536 2.2507 4.66083 2.2507C3.16974 2.2507 2.2507 3.16974 2.2507 4.66083C2.2507 11.5536 2.2507 18.4464 2.2507 25.3392C2.2507 26.8303 3.16974 27.7493 4.66083 27.7493C11.5536 27.7493 18.4464 27.7493 25.3392 27.7493C25.5642 27.7493 25.7893 27.7399 26.005 27.693C27.0928 27.4398 27.7493 26.5677 27.7493 25.3767C27.7493 21.9162 27.7493 18.4558 27.7493 14.9953Z" fill="#0A0A10"/>
<path d="M18.38 19.9937C16.5138 19.9937 14.6569 19.9937 12.7907 19.9937C12.2374 19.9937 11.806 19.6655 11.6654 19.1591C11.5341 18.6996 11.7123 18.1932 12.1436 17.94C12.3406 17.8274 12.5844 17.7524 12.8001 17.7524C16.5138 17.743 20.2274 17.743 23.9411 17.743C24.6163 17.743 25.1227 18.2401 25.1227 18.8684C25.1227 19.5061 24.6163 19.9844 23.9317 19.9844C22.0843 20.0031 20.2274 19.9937 18.38 19.9937Z" fill="#0A0A10"/>
<path d="M18.3517 12.1913C16.5043 12.1913 14.6474 12.2007 12.8 12.1913C11.9185 12.1913 11.3652 11.3379 11.7403 10.5877C11.9653 10.1469 12.3311 9.94995 12.8281 9.94995C14.2442 9.94995 15.6602 9.94995 17.0763 9.94995C19.3645 9.94995 21.6434 9.94995 23.9316 9.94995C24.5599 9.94995 25.0382 10.3532 25.1132 10.9346C25.1882 11.4598 24.8506 11.9943 24.3161 12.1444C24.1473 12.1913 23.9691 12.2007 23.8003 12.2007C21.981 12.1913 20.171 12.1913 18.3517 12.1913Z" fill="#0A0A10"/>
<path d="M7.29608 10.719C7.77435 10.2032 8.23387 9.70616 8.69339 9.20913C9.19979 8.66521 9.88438 8.59956 10.372 9.04033C10.8503 9.48109 10.8503 10.1844 10.3533 10.7284C9.65931 11.488 8.95597 12.2476 8.25262 12.9978C7.71808 13.5699 7.06163 13.5886 6.48957 13.0635C6.08632 12.6883 5.68307 12.3132 5.27982 11.9381C4.77341 11.4505 4.7359 10.7846 5.17666 10.3157C5.61743 9.83745 6.28326 9.83745 6.80842 10.297C6.96785 10.4283 7.12727 10.5689 7.29608 10.719Z" fill="#0A0A10"/>
<path d="M7.28652 18.5402C7.77417 18.015 8.23369 17.518 8.70259 17.021C9.209 16.477 9.89358 16.4114 10.3812 16.8709C10.8595 17.3211 10.8408 18.015 10.3437 18.5589C9.64976 19.3092 8.96517 20.0594 8.26182 20.8003C7.69915 21.4005 7.06145 21.4192 6.45188 20.8565C6.08615 20.5096 5.71103 20.1719 5.34529 19.825C4.77324 19.2904 4.70759 18.6246 5.18586 18.1276C5.65476 17.6399 6.30184 17.6587 6.87389 18.1651C7.00518 18.2776 7.1271 18.3995 7.28652 18.5402Z" fill="#0A0A10"/>
</g>
<defs>
<clipPath id="clip0_1792_525">
<rect width="30" height="30" fill="white"/>
</clipPath>
</defs>
</svg>
