<svg width="20" height="20" viewBox="0 0 20 20" fill="none" xmlns="http://www.w3.org/2000/svg">
<g clip-path="url(#clip0_1792_1332)">
<path d="M15.8333 0.833008H7.5C5.2 0.833008 3.33333 2.69967 3.33333 4.99967V11.6663C3.33333 13.9663 5.2 15.833 7.5 15.833H15.8333C18.1333 15.833 20 13.9663 20 11.6663V4.99967C20 2.69967 18.1333 0.833008 15.8333 0.833008ZM7.5 2.49967H15.8333C16.575 2.49967 17.2417 2.82467 17.7 3.33301L13.4333 7.59967C12.4583 8.57467 10.875 8.57467 9.9 7.59967L5.63333 3.33301C6.09167 2.81634 6.75833 2.49967 7.5 2.49967ZM15.8333 14.1663H7.5C6.125 14.1663 5 13.0413 5 11.6663V5.05801L8.71667 8.77467C9.525 9.58301 10.6 9.99134 11.6667 9.99134C12.7333 9.99134 13.8 9.58301 14.6167 8.77467L18.3333 5.05801V11.6663C18.3333 13.0413 17.2083 14.1663 15.8333 14.1663ZM15.8333 18.333C15.8333 18.7913 15.4583 19.1663 15 19.1663H4.16667C1.86667 19.1663 0 17.2997 0 14.9997V5.83301C0 5.37467 0.375 4.99967 0.833333 4.99967C1.29167 4.99967 1.66667 5.37467 1.66667 5.83301V14.9997C1.66667 16.3747 2.79167 17.4997 4.16667 17.4997H15C15.4583 17.4997 15.8333 17.8747 15.8333 18.333Z" fill="#0A0A10"/>
</g>
<defs>
<clipPath id="clip0_1792_1332">
<rect width="20" height="20" fill="white"/>
</clipPath>
</defs>
</svg>
