<svg width="27" height="41" viewBox="0 0 27 41" fill="none" xmlns="http://www.w3.org/2000/svg">
<path d="M6.0124 13.3576C5.74976 13.2951 5.48711 13.2326 5.23497 13.1701C2.00968 12.4095 -0.091488 9.65877 0.00306451 6.33498C0.097617 3.2821 2.45092 0.646002 5.60267 0.083355C5.68672 0.0729357 5.76026 0.0312581 5.84431 0C8.38672 0 10.9396 0 13.4821 0C13.5031 0.177129 13.5556 0.354259 13.5556 0.531388C13.5556 4.79292 13.5556 9.05444 13.5556 13.3264C12.3474 13.3368 11.1392 13.3472 9.94158 13.3472C8.86999 13.3472 7.78789 13.3368 6.71629 13.3264C6.55871 13.3368 6.39061 13.3472 6.23303 13.3472C6.15948 13.3472 6.08594 13.3576 6.0124 13.3576Z" fill="#FE4D12"/>
<path d="M13.556 13.3264C13.556 9.06486 13.556 4.80333 13.556 0.531388C13.556 0.354259 13.5139 0.177129 13.4824 0C15.9513 0 18.4202 0 20.889 0C21.5299 0.177129 22.1813 0.302162 22.7906 0.541808C25.4381 1.60458 27.1505 4.44908 26.8564 7.25189C26.5517 10.2423 24.3244 12.6804 21.4248 13.2014C21.1412 13.2535 20.8575 13.2951 20.5739 13.3368C20.1851 13.3472 19.7859 13.3472 19.3972 13.3576C17.4431 13.3576 15.4995 13.3576 13.5455 13.3576C13.556 13.3472 13.556 13.3368 13.556 13.3264Z" fill="#FE7361"/>
<path d="M6.01193 13.3574C6.08547 13.3574 6.15901 13.347 6.23255 13.347C6.39014 13.3366 6.55823 13.3262 6.71582 13.3262C7.78742 13.3366 8.86952 13.347 9.94111 13.347C11.1493 13.347 12.3575 13.3366 13.5551 13.3262C13.5446 13.3366 13.5446 13.3574 13.5551 13.3678C13.5551 15.285 13.5551 17.2022 13.5551 19.1089C13.5551 19.7237 13.5551 20.328 13.5656 20.9427C13.5551 22.6828 13.5551 24.4228 13.5446 26.1628C13.5446 26.3296 13.5236 26.4963 13.5131 26.663C12.2524 26.663 10.9917 26.6526 9.731 26.663C8.51232 26.6734 7.29364 26.6942 6.07497 26.7047C5.86485 26.6526 5.65473 26.5796 5.44462 26.5379C2.12477 25.8503 -0.154995 22.8182 0.0971454 19.4528C0.328274 16.452 2.68158 13.9201 5.69676 13.4408C5.80181 13.4199 5.90687 13.3887 6.01193 13.3574Z" fill="#B659FE"/>
<path d="M6.08701 26.7153C7.30569 26.7048 8.52436 26.6736 9.74304 26.6736C11.0037 26.6632 12.2644 26.6736 13.5251 26.6736C13.5356 27.8093 13.5462 28.9346 13.5462 30.0703C13.5462 31.3623 13.5777 32.6543 13.4936 33.9359C13.2835 37.0304 10.8251 39.5519 7.6944 39.9583C4.20646 40.4063 0.96016 38.1349 0.245763 34.7486C-0.573692 30.8413 2.09479 27.1737 6.08701 26.7153Z" fill="#01CE7F"/>
<path d="M13.5671 20.9429C13.5671 20.3282 13.5671 19.7238 13.5566 19.1091C13.5777 19.0361 13.6092 18.9632 13.6302 18.8903C14.1555 16.275 15.6998 14.535 18.2317 13.6597C18.6099 13.5243 19.0092 13.4618 19.4084 13.368C19.7971 13.3576 20.1963 13.3576 20.585 13.3472C23.9574 13.5972 26.4368 15.8791 26.9306 19.182C27.4348 22.5579 24.9029 25.9963 21.4885 26.5589C17.717 27.1841 14.3341 24.8502 13.6302 21.12C13.6197 21.0679 13.5882 21.0054 13.5671 20.9429Z" fill="#01BBFE"/>
<path d="M6.71764 13.3262C6.56006 13.3366 6.39196 13.347 6.23438 13.347C6.39196 13.3366 6.56006 13.3262 6.71764 13.3262Z" fill="#FE7361"/>
</svg>
