<svg width="76" height="76" viewBox="0 0 76 76" fill="none" xmlns="http://www.w3.org/2000/svg">
<g clip-path="url(#clip0_2032_756)">
<path d="M75.088 35.872L41.2775 3.16825L38 0L12.5495 24.6193L0.912 35.8768C0.625336 36.1514 0.396863 36.4809 0.240184 36.8457C0.0835044 37.2104 0.00182222 37.603 0 38C0 38.798 0.32775 39.5627 0.912 40.128L24.1632 62.6192L38 76L63.4505 51.3808L63.8447 51.0008L75.088 40.1232C75.3747 39.8486 75.6031 39.5191 75.7598 39.1543C75.9165 38.7896 75.9982 38.397 76 38C75.9988 37.6022 75.9174 37.2087 75.7607 36.8431C75.604 36.4775 75.3752 36.1472 75.088 35.872ZM38 49.2337L26.3815 38L38 26.7663L49.6185 38L38 49.2337Z" fill="#2684FF"/>
<path d="M37.9997 26.7614C36.2022 25.0376 34.7691 22.9706 33.7851 20.6827C32.8011 18.3949 32.2863 15.9329 32.2712 13.4424C32.2705 10.9514 32.77 8.48547 33.7401 6.19104C34.7103 3.89662 36.1313 1.82038 37.9189 0.0854492L12.4922 24.6667L26.3289 38.0475L37.9997 26.7614Z" fill="url(#paint0_linear_2032_756)"/>
<path d="M49.647 37.9716L38 49.2338C39.8193 50.9913 41.2585 53.0813 42.2417 55.3756C43.2231 57.6645 43.7291 60.1289 43.7291 62.6193C43.7291 65.1097 43.2231 67.5742 42.2417 69.8631C41.2585 72.1573 39.8193 74.2426 38 76.0001L63.4838 51.3523L49.647 37.9716Z" fill="url(#paint1_linear_2032_756)"/>
</g>
<defs>
<linearGradient id="paint0_linear_2032_756" x1="35.9239" y1="15.3947" x2="20.2442" y2="31.6065" gradientUnits="userSpaceOnUse">
<stop offset="0.18" stop-color="#0052CC"/>
<stop offset="1" stop-color="#2684FF"/>
</linearGradient>
<linearGradient id="paint1_linear_2032_756" x1="1026.26" y1="2330.43" x2="1575.32" y2="1962.5" gradientUnits="userSpaceOnUse">
<stop offset="0.18" stop-color="#0052CC"/>
<stop offset="1" stop-color="#2684FF"/>
</linearGradient>
<clipPath id="clip0_2032_756">
<rect width="76" height="76" fill="white"/>
</clipPath>
</defs>
</svg>
