<svg width="50" height="50" viewBox="0 0 50 50" fill="none" xmlns="http://www.w3.org/2000/svg">
<g clip-path="url(#clip0_2055_1230)">
<path d="M29.4187 35.6706L43.75 21.3394V8.33521C43.75 3.73938 40.0125 0.0018777 35.4167 0.0018777H14.5833C9.9875 -0.000205632 6.25 3.73729 6.25 8.33313V21.3394L20.5792 35.6706C22.9417 38.031 27.0583 38.031 29.4187 35.6706ZM12.5 14.5831C12.5 9.98729 16.2375 6.24979 20.8333 6.24979H32.2917C35.1646 6.24979 37.5 8.58729 37.5 11.4581C37.5 14.329 35.1646 16.6665 32.2917 16.6665H22.9167C21.7646 16.6665 20.8333 15.7331 20.8333 14.5831C20.8333 13.4331 21.7646 12.4998 22.9167 12.4998H32.2917C32.8646 12.4998 33.3333 12.0331 33.3333 11.4581C33.3333 10.8831 32.8646 10.4165 32.2917 10.4165H20.8333C18.5354 10.4165 16.6667 12.2852 16.6667 14.5831C16.6667 16.881 18.5354 18.7498 20.8333 18.7498H31.25C32.4021 18.7498 33.3333 19.6831 33.3333 20.8331C33.3333 21.9831 32.4021 22.9165 31.25 22.9165H20.8333C16.2375 22.9165 12.5 19.179 12.5 14.5831ZM50 26.4748V39.5831C50 45.3269 45.3271 49.9998 39.5833 49.9998H10.4167C4.67292 49.9998 0 45.3269 0 39.5831V26.4748C0 24.9206 0.383333 23.4081 1.04167 22.0227L17.6354 38.6185C19.6042 40.5852 22.2188 41.6685 25.0021 41.6685C27.7854 41.6685 30.4 40.5852 32.3667 38.6185L48.9604 22.0227C49.6187 23.4081 50 24.9227 50 26.4748Z" fill="#936DFF"/>
</g>
<defs>
<clipPath id="clip0_2055_1230">
<rect width="50" height="50" fill="white"/>
</clipPath>
</defs>
</svg>
