<svg width="30" height="30" viewBox="0 0 30 30" fill="none" xmlns="http://www.w3.org/2000/svg">
<g clip-path="url(#clip0_1725_552)">
<path d="M21.25 12.5039C17.665 12.5039 14.58 14.6727 13.23 17.7664C13.0225 17.6127 12.7788 17.5039 12.5 17.5039C11.81 17.5039 11.25 18.0627 11.25 18.7539V21.2539C11.25 21.9452 11.81 22.5039 12.5 22.5039C12.5337 22.5039 12.5638 22.4877 12.5975 22.4839C13.1988 26.7264 16.845 30.0039 21.25 30.0039C26.075 30.0039 30 26.0777 30 21.2539C30 16.4302 26.075 12.5039 21.25 12.5039ZM21.25 27.5039C17.8037 27.5039 15 24.7002 15 21.2539C15 17.8077 17.8037 15.0039 21.25 15.0039C24.6963 15.0039 27.5 17.8077 27.5 21.2539C27.5 24.7002 24.6963 27.5039 21.25 27.5039ZM25.2763 19.7389C25.755 20.2364 25.7387 21.0277 25.24 21.5064L22.475 24.1614C21.91 24.7189 21.16 25.0002 20.4087 25.0002C19.6575 25.0002 18.9037 24.7189 18.3288 24.1577L16.9137 22.7727C16.42 22.2889 16.4125 21.4977 16.895 21.0052C17.3787 20.5114 18.17 20.5039 18.6625 20.9852L20.0775 22.3702C20.2575 22.5464 20.5513 22.5477 20.73 22.3702L23.5087 19.7027C24.0062 19.2264 24.7975 19.2402 25.2763 19.7389ZM12.5 28.7539C12.5 29.4452 11.94 30.0039 11.25 30.0039H6.25C2.80375 30.0039 0 27.2002 0 23.7539V16.2539C0 13.6977 1.54625 11.5014 3.75 10.5339V8.75391C3.75 3.92891 7.675 0.00390625 12.5 0.00390625C17.325 0.00390625 21.25 3.92891 21.25 8.75391C21.25 9.44391 20.69 10.0039 20 10.0039C19.31 10.0039 18.75 9.44391 18.75 8.75391C18.75 5.30766 15.9462 2.50391 12.5 2.50391C9.05375 2.50391 6.25 5.30766 6.25 8.75391V10.0039H16.25C16.94 10.0039 17.5 10.5639 17.5 11.2539C17.5 11.9439 16.94 12.5039 16.25 12.5039H6.25C4.1825 12.5039 2.5 14.1864 2.5 16.2539V23.7539C2.5 25.8214 4.1825 27.5039 6.25 27.5039H11.25C11.94 27.5039 12.5 28.0627 12.5 28.7539Z" fill="#936DFF"/>
</g>
<defs>
<clipPath id="clip0_1725_552">
<rect width="30" height="30" fill="white" transform="translate(0 0.00390625)"/>
</clipPath>
</defs>
</svg>
