<svg width="31" height="31" viewBox="0 0 31 31" fill="none" xmlns="http://www.w3.org/2000/svg">
<g clip-path="url(#clip0_1792_561)">
<path d="M15.8027 0C16.0367 0.129133 16.3031 0.225983 16.5048 0.387399C16.8922 0.69409 17.0456 1.12991 17.0456 1.61416C17.0456 3.63994 17.0537 5.66571 17.0456 7.69149C17.0375 8.55506 16.4968 9.17652 15.6897 9.28144C14.9391 9.38636 14.2208 8.92632 14.019 8.19188C13.9625 7.98203 13.9464 7.75605 13.9464 7.53814C13.9383 5.67378 13.9625 3.80942 13.9302 1.94507C13.9141 0.984639 14.245 0.306691 15.1893 0C15.3991 0 15.6009 0 15.8027 0Z" fill="#0A0A10"/>
<path d="M31.0001 15.8026C30.879 16.0286 30.7902 16.2788 30.6369 16.4887C30.3302 16.8922 29.8863 17.0536 29.394 17.0536C27.3682 17.0536 25.3424 17.0617 23.3167 17.0536C22.4692 17.0456 21.8397 16.5129 21.7267 15.73C21.6137 14.9714 22.0495 14.2611 22.784 14.0432C23.0019 13.9786 23.236 13.9625 23.47 13.9625C25.3344 13.9544 27.1987 13.9786 29.0631 13.9464C30.0235 13.9302 30.7015 14.2611 31.0082 15.2054C31.0001 15.3991 31.0001 15.6009 31.0001 15.8026Z" fill="#0A0A10"/>
<path d="M4.64873 17.0455C3.63988 17.0455 2.63102 17.0536 1.62217 17.0455C0.976506 17.0455 0.468045 16.7711 0.177496 16.182C-0.096912 15.6412 -0.0484871 15.1085 0.290487 14.6082C0.605249 14.1481 1.06529 13.9383 1.6141 13.9383C3.63988 13.9383 5.66565 13.9302 7.69142 13.9383C8.62764 13.9464 9.31366 14.6162 9.30559 15.4959C9.29752 16.3757 8.6115 17.0213 7.66721 17.0375C7.65107 17.0375 7.62686 17.0375 7.61072 17.0375C6.62608 17.0455 5.63337 17.0455 4.64873 17.0455Z" fill="#0A0A10"/>
<path d="M17.0541 26.3593C17.0541 27.3682 17.0702 28.377 17.0541 29.3859C17.0299 30.6207 15.8435 31.3632 14.7862 30.8144C14.2293 30.5239 13.9549 30.0315 13.9468 29.4101C13.9387 27.3682 13.9307 25.3182 13.9468 23.2763C13.9549 22.3723 14.6248 21.7105 15.4803 21.7025C16.3439 21.6944 17.0218 22.3643 17.0379 23.2924C17.0702 24.3093 17.0541 25.3343 17.0541 26.3593Z" fill="#0A0A10"/>
<path d="M19.4336 10.0966C19.4336 9.58813 19.5869 9.22494 19.8856 8.92632C21.3464 7.46551 22.7991 5.99662 24.268 4.54387C24.8895 3.93049 25.8418 3.93856 26.4471 4.52773C27.0605 5.12497 27.0767 6.09347 26.4552 6.72299C24.9944 8.19995 23.5255 9.66884 22.0485 11.1216C21.5643 11.5978 20.967 11.6946 20.3456 11.4202C19.7484 11.1539 19.4578 10.6615 19.4336 10.0966Z" fill="#0A0A10"/>
<path d="M19.4336 20.8712C19.4659 20.3466 19.7322 19.8785 20.2891 19.596C20.8379 19.3216 21.3787 19.37 21.8871 19.7251C21.9759 19.7897 22.0647 19.8623 22.1373 19.943C23.5578 21.3635 24.9782 22.7759 26.3906 24.1964C26.9879 24.8017 27.0767 25.6249 26.6247 26.2544C26.0678 27.0373 24.9782 27.1341 24.268 26.4562C23.6304 25.8428 23.009 25.2052 22.3875 24.5757C21.5724 23.7605 20.7653 22.9454 19.9501 22.1383C19.6192 21.8074 19.4336 21.4281 19.4336 20.8712Z" fill="#0A0A10"/>
<path d="M10.1118 11.5655C9.60335 11.5655 9.2321 11.4202 8.93348 11.1216C7.46459 9.65274 5.98763 8.19192 4.53488 6.71496C3.92957 6.10158 3.94571 5.1573 4.52681 4.56006C5.11598 3.94667 6.07641 3.90632 6.69786 4.5197C8.19096 5.98859 9.67599 7.47362 11.1449 8.96672C11.613 9.4429 11.7018 10.0321 11.4354 10.6455C11.1691 11.2427 10.6768 11.5332 10.1118 11.5655Z" fill="#0A0A10"/>
<path d="M10.1046 19.4264C10.6373 19.4506 11.1135 19.7169 11.396 20.2658C11.6865 20.8226 11.63 21.3715 11.2668 21.888C11.2184 21.9606 11.1538 22.0333 11.0893 22.0978C9.64459 23.5425 8.20799 24.9953 6.74717 26.4319C5.88359 27.2874 4.47927 26.9242 4.15644 25.7862C3.97888 25.1728 4.16451 24.6401 4.61647 24.1882C5.73025 23.0825 6.83595 21.9687 7.94972 20.8549C8.27255 20.5321 8.58731 20.2093 8.91015 19.8945C9.22491 19.5878 9.58809 19.4264 10.1046 19.4264Z" fill="#0A0A10"/>
</g>
<defs>
<clipPath id="clip0_1792_561">
<rect width="31" height="31" fill="white"/>
</clipPath>
</defs>
</svg>
