<svg version="1.2" xmlns="http://www.w3.org/2000/svg" viewBox="0 0 105 81" width="105" height="81">
	<title>quote-right</title>
	<defs>
		<clipPath clipPathUnits="userSpaceOnUse" id="cp1">
			<path d="m105 99h-105v-105h105z"/>
		</clipPath>
	</defs>
	<style>
		.s0 { fill: #fefefe } 
	</style>
	<g id="Clip-Path" clip-path="url(#cp1)">
		<g>
			<path class="s0" d="m70 81.5h17.5c4.6 0 9.1-1.8 12.4-5.1 3.3-3.3 5.1-7.8 5.1-12.4v-17.5c0-2.3-0.9-4.5-2.6-6.2-1.6-1.6-3.8-2.5-6.2-2.5h-21.8c0-5.8 2.3-11.4 6.4-15.5 4.1-4.1 9.7-6.4 15.5-6.4 1.7 0 3.4-0.7 4.6-1.9 1.2-1.3 1.9-2.9 1.9-4.7 0-1.7-0.7-3.4-1.9-4.6-1.2-1.3-2.9-1.9-4.6-1.9-9.3 0-18.2 3.7-24.8 10.2-6.5 6.6-10.2 15.5-10.2 24.8v35c0 2.3 0.9 4.5 2.5 6.1 1.7 1.7 3.9 2.6 6.2 2.6z"/>
			<path class="s0" d="m8.8 81.5h17.4c4.7 0 9.1-1.8 12.4-5.1 3.3-3.3 5.2-7.8 5.2-12.4v-17.5c0-2.3-1-4.5-2.6-6.2-1.7-1.6-3.9-2.5-6.2-2.5h-21.9c0-5.8 2.3-11.4 6.4-15.5 4.1-4.1 9.7-6.4 15.5-6.4 1.7 0 3.4-0.7 4.6-1.9 1.3-1.3 2-2.9 2-4.7 0-1.7-0.7-3.4-2-4.6-1.2-1.3-2.9-1.9-4.6-1.9-9.3 0-18.2 3.7-24.7 10.2-6.6 6.6-10.3 15.5-10.3 24.8v35c0 2.3 0.9 4.5 2.6 6.1 1.6 1.7 3.8 2.6 6.1 2.6z"/>
		</g>
	</g>
</svg>