<svg width="40" height="40" viewBox="0 0 40 40" fill="none" xmlns="http://www.w3.org/2000/svg">
<path d="M18.4368 0C19.4785 0 20.5202 0 21.5619 0C21.6244 0.0208286 21.6973 0.0729002 21.7598 0.0729002C24.6557 0.333258 27.3954 1.14557 29.9059 2.63482C35.4373 5.90491 38.75 10.7163 39.7812 17.0795C39.8542 17.5273 39.9271 17.9855 40 18.4333C40 19.4748 40 20.5162 40 21.5576C39.9688 21.6201 39.9375 21.693 39.9271 21.7555C39.8125 22.5157 39.75 23.276 39.5937 24.0258C37.3124 35.2212 25.9891 42.2404 14.9158 39.3348C4.71755 36.6584 -1.64725 26.5044 0.373651 16.1422C1.98829 7.8628 8.7281 1.41635 17.0409 0.2187C17.4992 0.156215 17.968 0.0729002 18.4368 0ZM17.5826 15.5277C18.3013 15.5277 19.0201 15.4861 19.7285 15.5381C23.3223 15.7568 26.7391 16.6004 29.8851 18.4021C30.1351 18.5479 30.4476 18.6416 30.7289 18.6624C31.5205 18.7249 32.2185 18.1834 32.4372 17.4023C32.6664 16.6108 32.3122 15.8402 31.5414 15.4028C28.0308 13.4032 24.2182 12.4243 20.2181 12.1327C16.4054 11.8515 12.6241 12.1535 8.90519 13.0491C7.85307 13.2991 7.26972 14.1739 7.50931 15.1632C7.72807 16.1109 8.67602 16.6421 9.69689 16.3921C12.2803 15.7464 14.9158 15.4757 17.5826 15.5277ZM17.4576 18.1001C15.0825 18.0897 12.7282 18.3604 10.4157 18.9124C9.96773 19.0165 9.63438 19.2561 9.42604 19.6726C9.17603 20.1829 9.22812 20.6932 9.57188 21.141C9.90523 21.5784 10.3636 21.7555 10.9157 21.6722C12.3532 21.4431 13.7804 21.1306 15.2283 21.0161C19.5306 20.662 23.6974 21.1619 27.5308 23.3385C28.2183 23.7342 29.0517 23.4738 29.4267 22.8073C29.8122 22.1304 29.583 21.2868 28.8746 20.8911C28.3121 20.5787 27.7288 20.2767 27.135 20.0059C24.062 18.6104 20.8118 18.1105 17.4576 18.1001ZM17.6347 23.3905C15.1242 23.4009 13.2178 23.6092 11.3324 24.0571C10.5719 24.2341 10.1657 24.8069 10.3115 25.5046C10.4573 26.1712 11.1032 26.5252 11.8636 26.3586C14.9575 25.6609 18.0722 25.5567 21.1869 26.1816C22.7286 26.494 24.1765 27.0251 25.5516 27.7958C26.3745 28.2644 27.3121 27.775 27.3746 26.8793C27.4162 26.2857 27.0725 25.9212 26.5829 25.6504C23.6244 23.9946 20.4056 23.4009 17.6347 23.3905Z" fill="#12C54B"/>
</svg>
