<svg width="40" height="40" viewBox="0 0 40 40" fill="none" xmlns="http://www.w3.org/2000/svg">
<path d="M18.4356 0C19.4776 0 20.5195 0 21.5614 0C21.6239 0.0208388 21.6969 0.0729357 21.7594 0.0729357C24.7914 0.34384 27.6255 1.21907 30.2199 2.81323C35.5547 6.09534 38.7638 10.8362 39.7745 17.0357C39.8474 17.5046 39.9204 17.9734 40.0037 18.4319C40.0037 19.4738 40.0037 20.5158 40.0037 21.5577C39.9725 21.6411 39.9412 21.714 39.9204 21.7973C39.8058 22.558 39.7432 23.329 39.5765 24.0688C37.4614 33.9568 28.5633 40.6564 18.4773 39.9271C14.2366 39.6249 10.4231 38.1349 7.21394 35.353C1.32699 30.2475 -0.996531 23.777 0.389246 16.0979C1.85838 7.93957 8.79769 1.37536 16.9977 0.229226C17.477 0.156291 17.9563 0.0729357 18.4356 0ZM19.7172 26.3506C19.811 26.4131 19.8943 26.4548 19.9673 26.5173C21.4781 27.6322 22.9785 28.7471 24.4893 29.8515C25.5521 30.633 26.2814 30.3517 26.5627 29.0597C27.3129 25.5379 28.0631 22.0162 28.8133 18.4944C29.1467 16.9211 29.4906 15.3373 29.8136 13.764C29.9178 13.243 30.0011 12.6804 29.5218 12.274C29.0634 11.8781 28.5737 12.0969 28.0944 12.274C23.3223 14.1183 18.5398 15.9625 13.7677 17.8067C12.1631 18.4215 10.5586 19.0362 8.97482 19.6614C8.5893 19.8177 8.13085 20.0052 8.1621 20.5053C8.19336 20.9846 8.66223 21.0784 9.04775 21.2034C10.5377 21.6723 12.0277 22.1308 13.5072 22.6101C13.7677 22.6934 13.9657 22.6622 14.1949 22.5163C17.8105 20.2344 21.4364 17.9526 25.0519 15.6707C25.229 15.5561 25.4062 15.4415 25.6041 15.379C25.75 15.3373 25.9167 15.3686 26.073 15.3686C26.0939 15.4207 26.1043 15.4728 26.1251 15.5249C25.8646 15.7645 25.6041 16.0146 25.3332 16.2542C22.5304 18.7861 19.7276 21.3181 16.9352 23.85C16.7998 23.9646 16.6747 24.1625 16.6643 24.3293C16.5705 25.4129 16.4976 26.5069 16.4247 27.6009C16.3934 28.1219 16.3622 28.6325 16.3309 29.1534C16.3622 29.1847 16.3934 29.2264 16.4247 29.2576C16.706 29.0909 17.0186 28.9659 17.2478 28.7471C18.0814 27.9552 18.8941 27.1425 19.7172 26.3506Z" fill="#039BE4"/>
</svg>
