<svg width="30" height="30" viewBox="0 0 30 30" fill="none" xmlns="http://www.w3.org/2000/svg">
<g clip-path="url(#clip0_1792_594)">
<path d="M6.8744 13.75C9.2869 13.75 11.2494 11.7875 11.2494 9.375C11.2494 6.9625 9.2869 5 6.8744 5C4.4619 5 2.4994 6.9625 2.4994 9.375C2.4994 11.7875 4.4619 13.75 6.8744 13.75ZM19.3744 8.75C21.7869 8.75 23.7494 6.7875 23.7494 4.375C23.7494 1.9625 21.7869 0 19.3744 0C16.9619 0 14.9994 1.9625 14.9994 4.375C14.9994 6.7875 16.9619 8.75 19.3744 8.75ZM22.4994 15C18.3569 15 14.9994 18.3575 14.9994 22.5C14.9994 26.6425 18.3569 30 22.4994 30C26.6419 30 29.9994 26.6425 29.9994 22.5C29.9994 18.3575 26.6419 15 22.4994 15ZM27.1032 22.14L23.7244 25.4075C23.1594 25.965 22.4094 26.2463 21.6581 26.2463C20.9069 26.2463 20.1544 25.965 19.5794 25.4037L17.8869 23.7387C17.3932 23.255 17.3869 22.4637 17.8694 21.9712C18.3519 21.4775 19.1432 21.47 19.6369 21.9538L21.3294 23.6175C21.5094 23.795 21.8044 23.7913 21.9819 23.615L25.3731 20.335C25.8694 19.8587 26.6619 19.8725 27.1406 20.3713C27.6181 20.8688 27.6019 21.66 27.1044 22.1388L27.1032 22.14ZM13.1269 19.0075C12.7219 20.095 12.4994 21.2712 12.4994 22.5C12.4882 22.5 12.4769 22.5 12.4656 22.5H1.28315C0.928151 22.5 0.588151 22.3487 0.351901 22.0837C0.115651 21.8188 0.00190056 21.4662 0.0406506 21.1125C0.426901 17.6287 3.3644 15 6.8744 15C9.6319 15 12.0357 16.6225 13.1269 19.0075ZM14.5319 16.4575C14.0494 15.7763 13.4794 15.1625 12.8382 14.635C13.7719 11.9113 16.3482 10 19.3406 10C21.5956 10 23.6132 11.085 24.8719 12.7838C24.1119 12.5988 23.3169 12.5 22.5006 12.5C19.2481 12.5 16.3582 14.0525 14.5319 16.4575Z" fill="#00CC61"/>
</g>
<defs>
<clipPath id="clip0_1792_594">
<rect width="30" height="30" fill="white"/>
</clipPath>
</defs>
</svg>
