<svg width="30" height="30" viewBox="0 0 30 30" fill="none" xmlns="http://www.w3.org/2000/svg">
<g clip-path="url(#clip0_1792_588)">
<path d="M26.875 22.5L23.75 19.375V3.125C23.75 1.40125 25.1513 0 26.875 0C28.5987 0 30 1.40125 30 3.125V19.375L26.875 22.5ZM17.5 0H3.75C1.67875 0 0 1.67875 0 3.75V26.6963C0 28.3313 1.17625 29.82 2.8025 29.9837C4.6725 30.1712 6.25 28.7075 6.25 26.875V22.5H21.25V3.75C21.25 1.67875 19.5712 0 17.5 0ZM8.4675 16.9175C8.08 17.305 7.57125 17.4987 7.0625 17.4987C6.55375 17.4987 6.045 17.305 5.6575 16.9175L3.59875 14.8588L5.36625 13.0912L7.0625 14.7875L10.2338 11.6163L12.0012 13.3837L8.4675 16.9175ZM8.4675 9.4175C8.08 9.805 7.57125 9.99875 7.0625 9.99875C6.55375 9.99875 6.045 9.805 5.6575 9.4175L3.59875 7.35875L5.36625 5.59125L7.0625 7.2875L10.2338 4.11625L12.0012 5.88375L8.4675 9.4175ZM25 26.25V25H8.75V26.875C8.75 28.03 8.4 29.105 7.8 30H21.25C23.3212 30 25 28.3212 25 26.25Z" fill="#00CC61"/>
</g>
<defs>
<clipPath id="clip0_1792_588">
<rect width="30" height="30" fill="white"/>
</clipPath>
</defs>
</svg>
