<svg width="40" height="40" viewBox="0 0 40 40" fill="none" xmlns="http://www.w3.org/2000/svg">
<path d="M40.0042 18.9112C40.0042 19.6405 40.0042 20.3699 40.0042 21.0992C39.9834 21.2243 39.9521 21.3493 39.9313 21.4743C39.7854 22.4746 39.7021 23.4957 39.4728 24.4751C37.0347 34.8737 27.178 41.4483 16.6231 39.6874C11.7156 38.8747 7.65204 36.4887 4.52623 32.6335C0.504349 27.653 -0.808493 21.9641 0.473091 15.702C2.10893 7.75202 9.01698 1.32326 17.0503 0.239646C17.6651 0.156291 18.2798 0.083355 18.905 0C19.6343 0 20.3637 0 21.093 0C21.2077 0.0208388 21.3223 0.0625163 21.4369 0.0729357C24.8961 0.312581 28.0949 1.36494 30.9602 3.29252C35.8886 6.60589 38.8477 11.2113 39.775 17.0982C39.8688 17.7025 39.9313 18.3069 40.0042 18.9112ZM21.8328 23.329C22.3955 23.9437 22.906 24.5481 23.4582 25.1107C23.7708 25.4337 24.1355 25.4337 24.4689 25.1524C25.2191 24.5168 25.9693 23.8604 26.7091 23.2144C26.9592 22.9956 26.9696 22.7455 26.8237 22.4746C26.7403 22.3287 26.6362 22.1933 26.532 22.0578C25.8755 21.2764 25.5942 20.3803 25.6046 19.3592C25.6255 17.1816 25.6463 15.0039 25.5942 12.8367C25.5317 10.3569 24.396 8.93983 22.0099 8.25215C20.1553 7.72076 18.3006 7.76244 16.4773 8.3876C14.4976 9.06486 13.2056 10.3985 12.7575 12.4928C12.6533 12.9825 12.8096 13.2222 13.2785 13.2951C14.1433 13.4097 15.0081 13.5139 15.8729 13.6181C16.3731 13.6702 16.571 13.5452 16.6961 13.0555C16.9774 11.9614 17.7276 11.4092 18.7904 11.2217C20.1136 10.982 21.1451 11.7947 21.2389 13.1284C21.2598 13.4827 21.2389 13.8369 21.2702 14.1808C21.3014 14.5559 21.1556 14.6601 20.7909 14.6913C19.6864 14.7955 18.5924 14.931 17.4984 15.0977C16.5294 15.2436 15.6124 15.5874 14.7581 16.0771C12.7784 17.2128 11.8198 19.4738 12.2782 21.8494C12.5908 23.4749 13.4244 24.7044 15.029 25.1941C17.0712 25.8192 19.0508 25.6004 20.7909 24.2459C21.1868 23.9437 21.5202 23.6207 21.8328 23.329ZM19.4051 32.1125C22.0516 32.0292 24.7607 31.2998 27.2926 29.9036C27.9073 29.5702 28.4804 29.1534 29.0534 28.7471C29.3452 28.5387 29.4181 28.2157 29.2618 27.8718C29.116 27.5697 28.7617 27.4134 28.397 27.5072C28.2303 27.5488 28.0844 27.6322 27.9282 27.6843C26.6987 28.1011 25.49 28.5804 24.2397 28.9346C20.2595 30.0495 16.3626 29.8307 12.6221 27.9552C11.3822 27.33 10.1631 26.6632 8.92321 26.0172C8.53769 25.8192 8.20427 25.8609 8.0063 26.1318C7.80833 26.4131 7.86043 26.7361 8.21469 27.0175C9.54837 28.0386 10.8404 29.1118 12.2366 30.0287C14.3309 31.3936 16.644 32.123 19.4051 32.1125ZM30.1787 24.944C29.116 24.9648 28.1053 25.1628 27.2405 25.8296C27.0113 26.0068 26.8654 26.2464 26.9904 26.5382C27.1154 26.8299 27.3759 26.882 27.6781 26.8403C28.3137 26.7674 28.9388 26.684 29.5744 26.6632C30.2621 26.6319 30.3455 26.7361 30.1683 27.3926C30.0016 28.0177 29.7828 28.6325 29.5848 29.2472C29.4911 29.5285 29.4806 29.789 29.7515 29.9766C30.0225 30.1537 30.2934 30.0808 30.5017 29.8828C31.6166 28.8096 32.0959 27.4759 32.0855 25.9547C32.0855 25.4337 31.8563 25.2149 31.3353 25.1003C30.9602 25.0169 30.5643 24.9961 30.1787 24.944Z" fill="#CACACA"/>
<path d="M21.2705 17.0879C21.2809 18.5674 21.4372 19.9949 20.5411 21.2348C20.3015 21.5682 19.9785 21.8912 19.6138 22.0996C18.228 22.9019 16.8214 22.0892 16.7276 20.4534C16.6235 18.6195 17.6966 17.4109 19.6451 17.1921C20.166 17.1504 20.6974 17.1296 21.2705 17.0879Z" fill="#CACACA"/>
</svg>
