<svg width="30" height="30" viewBox="0 0 30 30" fill="none" xmlns="http://www.w3.org/2000/svg">
<g clip-path="url(#clip0_1573_6945)">
<path d="M-7.62939e-06 15C-7.62939e-06 17.9667 0.879728 20.8668 2.52795 23.3336C4.17617 25.8003 6.51885 27.7229 9.25974 28.8582C12.0006 29.9935 15.0166 30.2906 17.9263 29.7118C20.8361 29.133 23.5088 27.7044 25.6066 25.6066C27.7044 23.5088 29.133 20.8361 29.7118 17.9264C30.2906 15.0166 29.9935 12.0006 28.8582 9.25975C27.7229 6.51886 25.8003 4.17618 23.3335 2.52796C20.8668 0.879735 17.9667 0 15 0C11.0231 0.00430135 7.21025 1.58604 4.39814 4.39815C1.58603 7.21026 0.00429344 11.0231 -7.62939e-06 15ZM18.1687 7.86625L22.6512 12.3487C22.9995 12.697 23.2758 13.1104 23.4643 13.5654C23.6528 14.0204 23.7498 14.5081 23.7498 15.0006C23.7498 15.4931 23.6528 15.9808 23.4643 16.4358C23.2758 16.8908 22.9995 17.3043 22.6512 17.6525L18.1687 22.1338L18.1375 22.1638C18.0205 22.2829 17.8809 22.3774 17.7268 22.4417C17.5728 22.506 17.4074 22.5388 17.2404 22.5381C17.0735 22.5374 16.9083 22.5033 16.7548 22.4378C16.6012 22.3723 16.4624 22.2766 16.3464 22.1566C16.2304 22.0365 16.1396 21.8944 16.0794 21.7386C16.0193 21.5829 15.9909 21.4167 15.996 21.2498C16.0011 21.0829 16.0396 20.9188 16.1092 20.767C16.1788 20.6153 16.2781 20.479 16.4012 20.3662L20.5175 16.25L7.49999 16.2588C7.16847 16.2588 6.85053 16.1271 6.61611 15.8926C6.38169 15.6582 6.24999 15.3403 6.24999 15.0087C6.24999 14.6772 6.38169 14.3593 6.61611 14.1249C6.85053 13.8904 7.16847 13.7587 7.49999 13.7587L20.5162 13.75L16.4012 9.63375C16.2819 9.51844 16.1866 9.38051 16.1211 9.22801C16.0556 9.0755 16.0211 8.91148 16.0197 8.7455C16.0182 8.57953 16.0499 8.41493 16.1127 8.26131C16.1756 8.10769 16.2684 7.96812 16.3857 7.85076C16.5031 7.73339 16.6427 7.64057 16.7963 7.57772C16.9499 7.51487 17.1145 7.48324 17.2805 7.48469C17.4465 7.48613 17.6105 7.52061 17.763 7.58612C17.9155 7.65163 18.0534 7.74686 18.1687 7.86625Z" fill="#936DFF"/>
</g>
<defs>
<clipPath id="clip0_1573_6945">
<rect width="30" height="30" fill="white" transform="matrix(0 1 -1 0 30 0)"/>
</clipPath>
</defs>
</svg>
