<svg width="24" height="24" viewBox="0 0 24 24" fill="none" xmlns="http://www.w3.org/2000/svg">
<g clip-path="url(#clip0_1639_56)">
<path d="M24.137 4.25L21.212 5.713L19.75 8.64L18.288 5.713L15.363 4.25L18.288 2.787L19.75 -0.139999L21.212 2.787L24.137 4.25ZM9.39 7.165L7.461 14H11.538L9.609 7.165C9.58 7.051 9.418 7.051 9.39 7.165ZM20 10.5C16.41 10.5 13.5 7.59 13.5 4C13.5 2.49 14.02 1.104 14.884 6.10948e-07H3C1.346 6.10948e-07 0 1.346 0 3V24H24V9.116C22.896 9.98 21.51 10.5 20 10.5ZM12.95 19L12.103 16H6.897L6.05 19H4L7.439 6.638C7.58 6.03 7.98 5.518 8.537 5.233C9.105 4.941 9.757 4.923 10.376 5.183C10.963 5.429 11.413 6 11.58 6.718L15 19.001L12.95 19ZM19 19H17V12H19V19Z" fill="#00CC61"/>
</g>
<defs>
<clipPath id="clip0_1639_56">
<rect width="24" height="24" fill="white"/>
</clipPath>
</defs>
</svg>
