<svg width="50" height="50" viewBox="0 0 50 50" fill="none" xmlns="http://www.w3.org/2000/svg">
<g clip-path="url(#clip0_2050_1216)">
<path d="M41.6667 0H8.33333C6.1232 0 4.00358 0.877974 2.44078 2.44078C0.877974 4.00358 0 6.1232 0 8.33333L0 33.3333C0 35.5435 0.877974 37.6631 2.44078 39.2259C4.00358 40.7887 6.1232 41.6667 8.33333 41.6667H14.375L23.6479 49.5062C24.0241 49.8246 24.5009 49.9993 24.9937 49.9993C25.4866 49.9993 25.9634 49.8246 26.3396 49.5062L35.625 41.6667H41.6667C43.8768 41.6667 45.9964 40.7887 47.5592 39.2259C49.122 37.6631 50 35.5435 50 33.3333V8.33333C50 6.1232 49.122 4.00358 47.5592 2.44078C45.9964 0.877974 43.8768 0 41.6667 0ZM14.5833 10.4167H25C25.5525 10.4167 26.0824 10.6362 26.4731 11.0269C26.8638 11.4176 27.0833 11.9475 27.0833 12.5C27.0833 13.0525 26.8638 13.5824 26.4731 13.9731C26.0824 14.3638 25.5525 14.5833 25 14.5833H14.5833C14.0308 14.5833 13.5009 14.3638 13.1102 13.9731C12.7195 13.5824 12.5 13.0525 12.5 12.5C12.5 11.9475 12.7195 11.4176 13.1102 11.0269C13.5009 10.6362 14.0308 10.4167 14.5833 10.4167ZM35.4167 31.25H14.5833C14.0308 31.25 13.5009 31.0305 13.1102 30.6398C12.7195 30.2491 12.5 29.7192 12.5 29.1667C12.5 28.6141 12.7195 28.0842 13.1102 27.6935C13.5009 27.3028 14.0308 27.0833 14.5833 27.0833H35.4167C35.9692 27.0833 36.4991 27.3028 36.8898 27.6935C37.2805 28.0842 37.5 28.6141 37.5 29.1667C37.5 29.7192 37.2805 30.2491 36.8898 30.6398C36.4991 31.0305 35.9692 31.25 35.4167 31.25ZM35.4167 22.9167H14.5833C14.0308 22.9167 13.5009 22.6972 13.1102 22.3065C12.7195 21.9158 12.5 21.3859 12.5 20.8333C12.5 20.2808 12.7195 19.7509 13.1102 19.3602C13.5009 18.9695 14.0308 18.75 14.5833 18.75H35.4167C35.9692 18.75 36.4991 18.9695 36.8898 19.3602C37.2805 19.7509 37.5 20.2808 37.5 20.8333C37.5 21.3859 37.2805 21.9158 36.8898 22.3065C36.4991 22.6972 35.9692 22.9167 35.4167 22.9167Z" fill="#936DFF"/>
</g>
<defs>
<clipPath id="clip0_2050_1216">
<rect width="50" height="50" fill="white"/>
</clipPath>
</defs>
</svg>
