<svg width="30" height="30" viewBox="0 0 30 30" fill="none" xmlns="http://www.w3.org/2000/svg">
<path d="M27.1802 10.7725H26.4102C25.7189 10.7725 25.1602 11.3325 25.1602 12.0225C25.1602 12.7125 25.7189 13.2725 26.4102 13.2725H27.1802C27.8714 13.2725 28.4302 12.7125 28.4302 12.0225C28.4302 11.3325 27.8714 10.7725 27.1802 10.7725Z" fill="#0A0A10"/>
<path d="M24.9417 8.69374C25.2617 8.69374 25.583 8.57124 25.8255 8.32749L26.3705 7.78249C26.8592 7.29374 26.8592 6.50249 26.3705 6.01499C25.8817 5.52749 25.0917 5.52624 24.603 6.01499L24.058 6.55999C23.5692 7.04874 23.5692 7.83999 24.058 8.32749C24.3017 8.57124 24.6217 8.69374 24.9417 8.69374Z" fill="#0A0A10"/>
<path d="M25.8255 15.7175C25.3367 15.2288 24.5467 15.2288 24.058 15.7175C23.5692 16.2063 23.5692 16.9963 24.058 17.485L24.603 18.03C24.8467 18.2738 25.1667 18.3963 25.4867 18.3963C25.8067 18.3963 26.1267 18.2738 26.3705 18.03C26.8592 17.5413 26.8592 16.7513 26.3705 16.2625L25.8255 15.7175Z" fill="#0A0A10"/>
<path d="M19.9278 1.27249C19.5216 1.24374 19.0716 1.47499 18.8266 1.83124C18.7028 2.00249 16.1716 5.42124 12.6691 5.04374C9.06656 4.64874 6.49031 5.08749 4.96406 5.52249C3.15406 6.03874 1.83031 7.66874 1.66906 9.57874C1.60531 10.3387 1.57031 10.9537 1.57031 12.0225C1.57031 13.0912 1.60531 13.705 1.66906 14.465C1.77156 15.685 2.35031 16.79 3.22531 17.565C3.91531 20.615 5.19531 24.1012 6.53406 26.5587C7.27156 27.9112 8.62156 28.7512 10.0616 28.7512H10.0653C10.9141 28.7512 11.6766 28.4762 12.3328 27.9375C13.4453 27.0225 13.9566 25.5137 13.6653 23.9987C13.3741 22.4825 12.8853 20.7637 12.2603 19.0425C12.3966 19.03 12.5328 19.0162 12.6691 19.0012C16.2103 18.5962 18.7628 22.1237 18.7691 22.125C18.9866 22.5387 19.4141 22.7962 19.8778 22.7962C19.8991 22.7962 19.9178 22.7962 19.9391 22.7962C20.4278 22.7712 20.8553 22.4662 21.0378 22.0137C21.0953 21.8712 22.4491 18.4325 22.4491 12.0262C22.4491 5.61999 21.0953 2.18124 21.0378 2.03749C20.8553 1.58499 20.4166 1.29999 19.9278 1.27624V1.27249ZM10.7453 26.005C10.5391 26.1737 10.3291 26.25 10.0628 26.25H10.0616C9.55406 26.25 9.01906 25.8925 8.72906 25.3612C7.74531 23.5562 6.79406 21.14 6.12281 18.8C7.21156 19.0175 8.39031 19.135 9.63156 19.1512C10.3453 20.995 10.9016 22.8625 11.2103 24.4687C11.3241 25.065 11.1378 25.6812 10.7453 26.005ZM19.2791 19.025C17.9541 17.83 15.8691 16.47 13.2378 16.47C12.9641 16.47 12.6828 16.485 12.3978 16.5162C9.20156 16.8675 6.96406 16.4937 5.65031 16.12C4.83406 15.8862 4.23531 15.1375 4.16156 14.2575C4.10156 13.5487 4.07156 13.0087 4.07156 12.025C4.07156 11.0412 4.10156 10.5 4.16156 9.79124C4.23531 8.90999 4.83406 8.16249 5.65031 7.92874C6.96281 7.55374 9.19781 7.17874 12.3978 7.53124C15.4353 7.85999 17.8166 6.34124 19.2791 5.02124C19.6041 6.54624 19.9491 8.90124 19.9491 12.0237C19.9491 15.1462 19.6041 17.5 19.2791 19.025Z" fill="#0A0A10"/>
</svg>
