<svg width="50" height="50" viewBox="0 0 50 50" fill="none" xmlns="http://www.w3.org/2000/svg">
<g clip-path="url(#clip0_2055_1224)">
<path d="M8.33333 41.6667C3.7375 41.6667 0 37.9292 0 33.3333V8.33333C0 3.7375 3.7375 0 8.33333 0C12.9292 0 16.6667 3.7375 16.6667 8.33333V33.3333C16.6667 37.9292 12.9292 41.6667 8.33333 41.6667ZM39.5833 4.16667H20.1187C20.5812 5.47083 20.8333 6.87292 20.8333 8.33333V33.3333C20.8333 40.2271 15.2271 45.8333 8.33333 45.8333C5.43333 45.8333 2.7625 44.8417 0.639583 43.1792C2.10625 47.1562 5.93542 50 10.4167 50H39.5833C45.3271 50 50 45.3271 50 39.5833V14.5833C50 8.83958 45.3271 4.16667 39.5833 4.16667ZM27.0833 41.6667C25.9333 41.6667 25 40.7333 25 39.5833C25 38.4333 25.9333 37.5 27.0833 37.5C28.2333 37.5 29.1667 38.4333 29.1667 39.5833C29.1667 40.7333 28.2333 41.6667 27.0833 41.6667ZM27.0833 33.3333C25.9333 33.3333 25 32.4 25 31.25C25 30.1 25.9333 29.1667 27.0833 29.1667C28.2333 29.1667 29.1667 30.1 29.1667 31.25C29.1667 32.4 28.2333 33.3333 27.0833 33.3333ZM27.0833 25C25.9333 25 25 24.0667 25 22.9167C25 21.7667 25.9333 20.8333 27.0833 20.8333C28.2333 20.8333 29.1667 21.7667 29.1667 22.9167C29.1667 24.0667 28.2333 25 27.0833 25ZM35.4167 41.6667C34.2667 41.6667 33.3333 40.7333 33.3333 39.5833C33.3333 38.4333 34.2667 37.5 35.4167 37.5C36.5667 37.5 37.5 38.4333 37.5 39.5833C37.5 40.7333 36.5667 41.6667 35.4167 41.6667ZM35.4167 33.3333C34.2667 33.3333 33.3333 32.4 33.3333 31.25C33.3333 30.1 34.2667 29.1667 35.4167 29.1667C36.5667 29.1667 37.5 30.1 37.5 31.25C37.5 32.4 36.5667 33.3333 35.4167 33.3333ZM35.4167 25C34.2667 25 33.3333 24.0667 33.3333 22.9167C33.3333 21.7667 34.2667 20.8333 35.4167 20.8333C36.5667 20.8333 37.5 21.7667 37.5 22.9167C37.5 24.0667 36.5667 25 35.4167 25ZM43.75 41.6667C42.6 41.6667 41.6667 40.7333 41.6667 39.5833C41.6667 38.4333 42.6 37.5 43.75 37.5C44.9 37.5 45.8333 38.4333 45.8333 39.5833C45.8333 40.7333 44.9 41.6667 43.75 41.6667ZM43.75 33.3333C42.6 33.3333 41.6667 32.4 41.6667 31.25C41.6667 30.1 42.6 29.1667 43.75 29.1667C44.9 29.1667 45.8333 30.1 45.8333 31.25C45.8333 32.4 44.9 33.3333 43.75 33.3333ZM43.75 25C42.6 25 41.6667 24.0667 41.6667 22.9167C41.6667 21.7667 42.6 20.8333 43.75 20.8333C44.9 20.8333 45.8333 21.7667 45.8333 22.9167C45.8333 24.0667 44.9 25 43.75 25ZM33.3333 14.5833C32.1833 14.5833 31.25 13.65 31.25 12.5V8.33333H39.5833C43.0292 8.33333 45.8333 11.1375 45.8333 14.5833H33.3333Z" fill="#936DFF"/>
</g>
<defs>
<clipPath id="clip0_2055_1224">
<rect width="50" height="50" fill="white"/>
</clipPath>
</defs>
</svg>
