<svg width="24" height="24" viewBox="0 0 24 24" fill="none" xmlns="http://www.w3.org/2000/svg">
<g clip-path="url(#clip0_1573_7212)">
<path d="M19.259 2.41188L12 0.00488281L4.741 2.41188C3.101 2.95588 2 4.48088 2 6.20888V11.9639C2 18.5309 9.006 22.5409 11.15 23.6119L11.956 24.0159L12.794 23.6799C14.953 22.8099 22 19.3949 22 11.9629V6.20788C22 4.47988 20.898 2.95588 19.259 2.41188ZM20 11.9639C20 18.1419 13.914 21.0729 12.048 21.8249C10.16 20.8809 4.001 17.3839 4.001 11.9639V6.20888C4.001 5.34588 4.552 4.58188 5.371 4.31088L12.001 2.11288L18.631 4.31088C19.45 4.58188 20.001 5.34588 20.001 6.20888L20 11.9639ZM14.5 9.49988C14.5 10.5249 13.883 11.4059 13 11.7909V15.9999H11V11.7909C10.117 11.4049 9.5 10.5249 9.5 9.49988C9.5 8.11888 10.619 6.99988 12 6.99988C13.381 6.99988 14.5 8.11888 14.5 9.49988Z" fill="#936DFF"/>
</g>
<defs>
<clipPath id="clip0_1573_7212">
<rect width="24" height="24" fill="white"/>
</clipPath>
</defs>
</svg>
