<svg width="30" height="30" viewBox="0 0 30 30" fill="none" xmlns="http://www.w3.org/2000/svg">
<g clip-path="url(#clip0_1792_551)">
<path d="M21.9992 5.76923C19.7299 5.76923 17.4607 5.76923 15.1915 5.75962C14.9415 5.75962 14.8261 5.81731 14.7299 6.07692C14.0857 7.99039 12.3453 9.24039 10.3645 9.23077C8.403 9.22116 6.67223 7.97115 6.03761 6.06731C5.96069 5.82692 5.85492 5.75962 5.60492 5.75962C4.14338 5.76923 2.67223 5.76923 1.21069 5.75962C0.306843 5.75962 -0.260465 4.90385 0.124151 4.11539C0.345305 3.66346 0.72992 3.46154 1.22992 3.46154C2.68184 3.46154 4.13377 3.45192 5.5953 3.47115C5.8453 3.47115 5.96069 3.40385 6.04723 3.15385C6.68184 1.25 8.42223 0 10.3838 0C12.3549 0 14.0857 1.24038 14.7299 3.13462C14.8165 3.40385 14.9415 3.47115 15.2107 3.47115C19.6818 3.46154 24.153 3.46154 28.6145 3.46154C28.7684 3.46154 28.9318 3.45192 29.0761 3.49038C29.653 3.60577 30.0568 4.15385 29.9895 4.73077C29.9318 5.30769 29.4511 5.75962 28.8453 5.75962C27.2684 5.76923 25.7011 5.75962 24.1242 5.75962C23.4222 5.76923 22.7107 5.76923 21.9992 5.76923ZM12.6915 4.61539C12.6915 3.34615 11.653 2.30769 10.3742 2.30769C9.11454 2.30769 8.08569 3.33654 8.07607 4.59615C8.07607 5.86539 9.10492 6.91346 10.3742 6.92308C11.653 6.92308 12.6915 5.88462 12.6915 4.61539Z" fill="#0A0A10"/>
<path d="M8.01919 13.8461C10.2884 13.8461 12.5577 13.8461 14.8269 13.8558C15.0673 13.8558 15.173 13.8077 15.2596 13.5577C15.9038 11.6442 17.6442 10.3846 19.6153 10.3942C21.5961 10.3942 23.3173 11.6442 23.9711 13.5673C24.048 13.7885 24.1442 13.8558 24.375 13.8558C25.8173 13.8461 27.2596 13.8461 28.7019 13.8558C29.4711 13.8558 30 14.3173 30 15C30.0096 15.6923 29.4807 16.1635 28.6827 16.1635C27.2692 16.1635 25.8461 16.1731 24.4327 16.1538C24.1538 16.1538 24.048 16.2308 23.9519 16.4904C23.3077 18.3846 21.5673 19.625 19.6057 19.625C17.6442 19.625 15.9038 18.3654 15.2692 16.4711C15.1827 16.2115 15.0673 16.1538 14.8173 16.1538C10.3461 16.1635 5.87496 16.1635 1.41342 16.1538C1.24996 16.1538 1.07689 16.1635 0.913424 16.125C0.326886 16 -0.0577296 15.4519 0.00957811 14.8654C0.0768858 14.2692 0.56727 13.8461 1.2115 13.8461C3.48073 13.8461 5.74996 13.8461 8.01919 13.8461ZM21.923 15C21.923 13.7211 20.8846 12.6827 19.6153 12.6923C18.3557 12.6923 17.3269 13.7211 17.3173 14.9711C17.3077 16.25 18.3365 17.2981 19.6057 17.2981C20.875 17.3077 21.923 16.2788 21.923 15Z" fill="#0A0A10"/>
<path d="M21.9714 26.5384C19.7118 26.5384 17.4522 26.5384 15.1926 26.5384C14.9522 26.5384 14.8176 26.5769 14.731 26.8461C14.0868 28.7596 12.3464 30.0096 10.3657 30C8.40413 29.9903 6.67336 28.7403 6.03874 26.8461C5.9522 26.5769 5.81759 26.5384 5.5772 26.5384C4.14451 26.548 2.72143 26.548 1.28874 26.5384C0.529125 26.5384 0.000279238 26.0577 0.00989462 25.3846C0.00989462 24.7019 0.529125 24.2307 1.29836 24.2307C2.73105 24.2307 4.15413 24.2211 5.58682 24.2307C5.83682 24.2307 5.96182 24.1827 6.04836 23.9134C6.68297 22.0192 8.42336 20.7692 10.3849 20.7596C12.356 20.75 14.0964 21.9903 14.731 23.8846C14.8272 24.173 14.9714 24.2307 15.2407 24.2211C19.7022 24.2115 24.1541 24.2115 28.6157 24.2211C28.7695 24.2211 28.933 24.2115 29.0868 24.2403C29.6637 24.3557 30.0676 24.9038 30.0099 25.4807C29.9522 26.0577 29.4714 26.5192 28.8657 26.5192C27.5291 26.5288 26.2022 26.5192 24.8657 26.5192C23.8945 26.5384 22.933 26.5384 21.9714 26.5384ZM12.6926 25.3942C12.7022 24.1153 11.6637 23.0769 10.3945 23.0769C9.1349 23.0769 8.09643 24.0961 8.08682 25.3557C8.0772 26.6346 9.10605 27.6827 10.3753 27.6923C11.6445 27.7019 12.6926 26.6634 12.6926 25.3942Z" fill="#0A0A10"/>
</g>
<defs>
<clipPath id="clip0_1792_551">
<rect width="30" height="30" fill="white"/>
</clipPath>
</defs>
</svg>
