<svg width="42" height="40" viewBox="0 0 42 40" fill="none" xmlns="http://www.w3.org/2000/svg">
<path d="M41.5465 30.8054C40.9517 32.3776 39.5674 32.8764 38.1399 33.3101C37.5451 33.4945 36.9395 33.6029 36.3231 33.7222C36.0851 33.7655 35.977 33.8523 35.9337 34.0908C35.8689 34.4595 35.7607 34.8282 35.6309 35.186C35.2741 36.1835 34.6252 36.5847 33.5654 36.4655C33.003 36.4004 32.4299 36.357 31.8783 36.2269C30.2345 35.8474 28.8178 36.3462 27.4876 37.2679C26.9361 37.6474 26.3846 38.0486 25.8114 38.4064C22.4048 40.5641 18.9983 40.4882 15.6133 38.3413C15.1267 38.0269 14.6616 37.6799 14.175 37.3546C12.5204 36.2161 10.7144 35.9342 8.76775 36.3679C8.40005 36.4546 8.02155 36.4763 7.64304 36.5088C7.0158 36.5522 6.51833 36.2703 6.24797 35.7281C5.99924 35.2294 5.80457 34.6872 5.64236 34.1451C5.56666 33.8848 5.48014 33.7764 5.19896 33.7222C3.96611 33.4836 2.73326 33.1909 1.66262 32.5078C1.16516 32.1933 0.667691 31.7813 0.332442 31.2933C-0.402943 30.2416 0.137781 28.832 1.40308 28.5934C4.32299 28.0187 6.33448 26.2622 7.85933 23.8333C8.21621 23.2586 8.5082 22.6514 8.811 22.0442C8.98404 21.6972 8.87589 21.437 8.52983 21.296C7.96747 21.0683 7.38349 20.884 6.83195 20.6346C6.25878 20.3744 5.6748 20.1033 5.16652 19.7346C4.31217 19.1166 3.79308 18.2708 4.1067 17.1757C4.42032 16.0589 5.24222 15.4408 6.35611 15.1914C6.92928 15.0613 7.48082 15.1697 8.01073 15.3974C8.35679 15.5492 8.71367 15.6577 9.10299 15.8095C9.05974 14.7035 9.00566 13.6625 8.97322 12.6216C8.92996 10.9951 8.91915 9.347 9.44906 7.79645C10.4656 4.80377 12.4555 2.646 15.2781 1.25809C19.9607 -1.04063 25.7789 -0.118976 29.3693 3.44839C31.5863 5.66037 32.6353 8.3386 32.5596 11.4722C32.5272 12.7409 32.4839 14.0204 32.4407 15.289C32.4407 15.4191 32.4407 15.5492 32.4407 15.7444C32.7759 15.6143 33.0787 15.5059 33.3815 15.3866C34.5819 14.9203 35.6742 15.1372 36.6475 15.9287C37.6965 16.7745 37.8155 18.1299 36.9611 19.1708C36.3555 19.9081 35.5552 20.331 34.6793 20.6563C34.1494 20.8515 33.6086 21.0358 33.1003 21.2635C32.6245 21.4804 32.5488 21.6213 32.7651 22.0876C34.2251 25.308 36.3988 27.7368 40 28.5284C40.7895 28.7018 41.2437 29.2006 41.5357 29.9054C41.5465 30.209 41.5465 30.5126 41.5465 30.8054ZM39.8918 30.3175C39.4376 30.209 39.1456 30.1548 38.8537 30.0681C38.5725 29.9922 38.2805 29.9054 38.0101 29.797C34.5711 28.4091 32.4082 25.7959 31.0564 22.4346C30.6455 21.4262 30.9699 20.5912 31.8999 20.0274C32.5164 19.6587 33.2193 19.4094 33.8682 19.0949C34.3765 18.8564 34.9172 18.6503 35.3822 18.3359C35.9878 17.9239 35.9013 17.3925 35.2416 17.0673C34.7117 16.7962 34.2034 16.8938 33.6843 17.1215C32.7867 17.5227 31.8675 17.7178 30.9158 17.2407C30.6455 17.0998 30.6022 16.9697 30.613 16.6877C30.6995 14.7252 30.8726 12.7626 30.8077 10.8C30.6887 7.27598 28.9908 4.65197 25.8979 2.98214C23.5836 1.73519 21.1071 1.46411 18.544 1.9412C14.5211 2.70022 10.5954 6.18083 10.7144 11.1903C10.7576 13.0336 10.8549 14.877 10.909 16.7094C10.909 16.8504 10.8549 17.0781 10.7576 17.1323C10.2061 17.4576 9.60046 17.6311 8.97322 17.4793C8.40005 17.3492 7.8377 17.154 7.27534 16.9588C6.77788 16.7962 6.02086 17.0347 5.81539 17.4576C5.64236 17.7937 5.83702 18.1841 6.421 18.5094C6.88602 18.7696 7.40512 18.9431 7.89177 19.16C8.45413 19.4094 9.05974 19.6045 9.58965 19.919C10.4656 20.4394 10.736 21.1876 10.5089 22.1852C10.4224 22.543 10.325 22.89 10.1736 23.2261C9.31928 25.2429 7.94584 26.8585 6.23715 28.2031C4.91779 29.2332 3.45783 29.9488 1.69507 30.2632C1.82484 30.4801 1.88973 30.6861 2.03032 30.7837C2.30068 30.9789 2.59267 31.1849 2.90629 31.2716C4.08507 31.5969 5.28548 31.868 6.47507 32.1716C6.62648 32.215 6.82114 32.3451 6.87521 32.4861C7.0915 33.1041 7.28616 33.7439 7.44838 34.3836C7.53489 34.7306 7.71874 34.8173 8.03236 34.7631C8.33517 34.6981 8.63797 34.633 8.94078 34.5788C11.0388 34.1776 13.0178 34.3619 14.813 35.6739C15.5052 36.1835 16.2514 36.6281 16.9976 37.0727C19.3984 38.5148 21.8533 38.5907 24.3082 37.2245C25.249 36.704 26.1358 36.0751 27.0442 35.4896C28.4177 34.6113 29.8884 34.1559 31.5431 34.4378C32.2352 34.5571 32.9381 34.6113 33.6303 34.7089C33.9222 34.7523 34.0304 34.6438 34.1061 34.3619C34.2683 33.733 34.4738 33.115 34.6468 32.4969C34.7117 32.2692 34.8523 32.1933 35.0794 32.1499C35.9554 31.9764 36.8313 31.8246 37.6857 31.5753C38.2805 31.4126 38.8428 31.1307 39.3944 30.8488C39.5782 30.7946 39.6864 30.556 39.8918 30.3175Z" fill="#232322"/>
<path d="M39.8921 30.3172C39.6866 30.5666 39.5785 30.7943 39.3946 30.8919C38.8431 31.1629 38.2807 31.4449 37.6859 31.6183C36.8316 31.8569 35.9556 32.0195 35.0796 32.193C34.8525 32.2364 34.7119 32.3123 34.6471 32.54C34.474 33.1581 34.2686 33.7761 34.1063 34.405C34.0306 34.6869 33.9225 34.7954 33.6305 34.752C32.9384 34.6544 32.2354 34.6002 31.5433 34.4809C29.8887 34.1881 28.4179 34.6544 27.0445 35.5327C26.1361 36.1182 25.2493 36.7471 24.3084 37.2676C21.8535 38.6338 19.3986 38.5579 16.9978 37.1158C16.2624 36.6712 15.5162 36.2266 14.8133 35.717C13.0289 34.405 11.039 34.2207 8.94102 34.6219C8.63822 34.6761 8.33541 34.752 8.0326 34.8062C7.71898 34.8713 7.53514 34.7845 7.44862 34.4267C7.2864 33.787 7.09174 33.1581 6.87545 32.5292C6.8322 32.3882 6.63753 32.2581 6.47532 32.2147C5.28572 31.9003 4.09613 31.64 2.90654 31.3147C2.59292 31.228 2.30092 31.022 2.03056 30.8268C1.88997 30.7292 1.82509 30.5232 1.69531 30.3063C3.44726 29.9919 4.91803 29.2762 6.2374 28.2462C7.94609 26.9016 9.31953 25.286 10.1739 23.2692C10.3145 22.9331 10.4226 22.5861 10.5091 22.2283C10.7362 21.2415 10.4659 20.4934 9.58989 19.9621C9.05998 19.6476 8.46518 19.4524 7.89202 19.2031C7.39455 18.9862 6.88627 18.8127 6.42124 18.5525C5.83726 18.238 5.65342 17.8368 5.81563 17.5007C6.02111 17.0778 6.77812 16.8284 7.27559 17.0019C7.83794 17.1862 8.4003 17.3923 8.97346 17.5224C9.60071 17.6633 10.2171 17.5007 10.7579 17.1754C10.8552 17.1103 10.9093 16.8935 10.9093 16.7525C10.8552 14.9092 10.7579 13.0659 10.7146 11.2334C10.6065 6.18055 14.5213 2.69993 18.5551 1.94092C21.1181 1.45298 23.5947 1.7349 25.909 2.98185C29.0019 4.65168 30.6998 7.2757 30.8187 10.7997C30.8836 12.7514 30.7106 14.7249 30.6241 16.6875C30.6133 16.9694 30.6565 17.1103 30.9269 17.2405C31.8786 17.7176 32.7978 17.5224 33.6954 17.1212C34.2145 16.8826 34.7119 16.7959 35.2527 17.067C35.9124 17.4031 35.9989 17.9344 35.3933 18.3356C34.9282 18.6501 34.3875 18.8561 33.8792 19.0946C33.2196 19.4091 32.5274 19.6476 31.911 20.0271C30.981 20.591 30.6565 21.4367 31.0675 22.4343C32.4301 25.7848 34.593 28.398 38.0212 29.7967C38.2915 29.9051 38.5835 29.9919 38.8647 30.0678C39.1459 30.1545 39.4379 30.2087 39.8921 30.3172Z" fill="#FEEA3B"/>
</svg>
