<svg width="35" height="35" viewBox="0 0 35 35" fill="none" xmlns="http://www.w3.org/2000/svg">
<g clip-path="url(#clip0_1668_198)">
<path d="M27.7083 0H7.29167C5.35851 0.00231563 3.50519 0.771286 2.13824 2.13824C0.771286 3.50519 0.00231563 5.35851 0 7.29167L0 27.7083C0.00231563 29.6415 0.771286 31.4948 2.13824 32.8618C3.50519 34.2287 5.35851 34.9977 7.29167 35H27.7083C29.6415 34.9977 31.4948 34.2287 32.8618 32.8618C34.2287 31.4948 34.9977 29.6415 35 27.7083V7.29167C34.9977 5.35851 34.2287 3.50519 32.8618 2.13824C31.4948 0.771286 29.6415 0.00231563 27.7083 0ZM32.0833 27.7083C32.0833 28.8687 31.6224 29.9815 30.8019 30.8019C29.9815 31.6224 28.8687 32.0833 27.7083 32.0833H7.29167C6.13134 32.0833 5.01855 31.6224 4.19807 30.8019C3.3776 29.9815 2.91667 28.8687 2.91667 27.7083V7.29167C2.91667 6.13134 3.3776 5.01855 4.19807 4.19807C5.01855 3.3776 6.13134 2.91667 7.29167 2.91667H27.7083C28.8687 2.91667 29.9815 3.3776 30.8019 4.19807C31.6224 5.01855 32.0833 6.13134 32.0833 7.29167V27.7083ZM26.25 13.125C26.25 13.5118 26.0964 13.8827 25.8229 14.1562C25.5494 14.4297 25.1784 14.5833 24.7917 14.5833C24.4049 14.5833 24.034 14.4297 23.7605 14.1562C23.487 13.8827 23.3333 13.5118 23.3333 13.125C23.3333 12.7382 23.1797 12.3673 22.9062 12.0938C22.6327 11.8203 22.2618 11.6667 21.875 11.6667H18.9583V23.3333H20.4167C20.8034 23.3333 21.1744 23.487 21.4479 23.7605C21.7214 24.034 21.875 24.4049 21.875 24.7917C21.875 25.1784 21.7214 25.5494 21.4479 25.8229C21.1744 26.0964 20.8034 26.25 20.4167 26.25H14.5833C14.1966 26.25 13.8256 26.0964 13.5521 25.8229C13.2786 25.5494 13.125 25.1784 13.125 24.7917C13.125 24.4049 13.2786 24.034 13.5521 23.7605C13.8256 23.487 14.1966 23.3333 14.5833 23.3333H16.0417V11.6667H13.125C12.7382 11.6667 12.3673 11.8203 12.0938 12.0938C11.8203 12.3673 11.6667 12.7382 11.6667 13.125C11.6667 13.5118 11.513 13.8827 11.2395 14.1562C10.966 14.4297 10.5951 14.5833 10.2083 14.5833C9.82156 14.5833 9.45063 14.4297 9.17714 14.1562C8.90365 13.8827 8.75 13.5118 8.75 13.125C8.75 11.9647 9.21094 10.8519 10.0314 10.0314C10.8519 9.21094 11.9647 8.75 13.125 8.75H21.875C23.0353 8.75 24.1481 9.21094 24.9686 10.0314C25.7891 10.8519 26.25 11.9647 26.25 13.125Z" fill="#0A0A10"/>
</g>
<defs>
<clipPath id="clip0_1668_198">
<rect width="35" height="35" fill="white"/>
</clipPath>
</defs>
</svg>
