<svg width="40" height="33" viewBox="0 0 40 33" fill="none" xmlns="http://www.w3.org/2000/svg">
<path d="M39.9607 4.02658C38.9885 5.52916 37.7609 6.78622 36.3467 7.85668C36.0619 8.07274 35.9735 8.27897 35.9833 8.64234C36.0815 12.4528 35.2566 16.0668 33.6067 19.4943C31.6425 23.5896 28.7749 26.909 24.8957 29.3151C22.1458 31.0239 19.1407 32.0354 15.9391 32.4675C13.6803 32.772 11.4216 32.772 9.1726 32.4479C5.9121 31.9765 2.86767 30.8667 0.0785662 29.099C0.0589246 29.0892 0.0491039 29.0597 0 29.0106C4.43899 29.4133 8.42622 28.3232 12.0403 25.6126C8.27891 25.2787 5.76479 23.3833 4.36042 19.8675C5.61748 20.005 6.79597 20.0443 8.00393 19.7005C3.25068 18.522 1.33562 14.3089 1.54186 11.5493C2.66143 12.1091 3.81046 12.4823 5.17555 12.5117C3.37835 11.1957 2.22932 9.55567 1.76774 7.46385C1.30616 5.38185 1.63025 3.42751 2.68107 1.5321C7.1397 6.78622 12.767 9.67352 19.6415 10.1449C19.5924 9.6146 19.5335 9.11374 19.5139 8.61288C19.3666 4.54708 22.0476 1.02142 26.0152 0.196478C28.7945 -0.382947 31.2792 0.333969 33.371 2.27848C33.6656 2.54364 33.9013 2.59275 34.2647 2.50436C35.7673 2.13117 37.2109 1.60085 38.5662 0.844649C38.6644 0.785725 38.7724 0.736621 38.959 0.648234C38.3207 2.56328 37.1716 3.97748 35.5905 5.13633C36.0717 5.04794 36.5529 4.97919 37.0341 4.86134C37.5153 4.75332 37.9966 4.61583 38.468 4.46851C38.9492 4.31138 39.4304 4.13461 39.9116 3.95783C39.9313 3.9873 39.9509 4.00694 39.9607 4.02658Z" fill="#04A9F3"/>
<path d="M39.9102 3.96783C39.9396 3.96783 39.9691 3.95801 39.9985 3.95801C39.9887 3.97765 39.9691 4.00711 39.9593 4.02675C39.9494 4.00711 39.9298 3.98747 39.9102 3.96783Z" fill="#04A9F3"/>
</svg>
