<svg width="45" height="51" viewBox="0 0 45 51" fill="none" xmlns="http://www.w3.org/2000/svg">
<path d="M0.299593 50.4C0.199593 49.8 0.0995929 49.1 0.0995929 48.5C-0.200407 44.2 0.799593 40.1 2.59959 36.1C5.29959 30.2 9.09959 25.2 13.5996 20.6C20.9996 13.1 29.9996 7.79999 39.9996 4.19999C40.0996 4.19999 40.1996 4.19999 40.3996 4.09999C40.4996 4.79999 40.5996 5.39999 40.6996 6.19999C41.3996 5.19999 42.0996 4.29999 42.7996 3.39999C42.7996 3.29999 42.6996 3.19999 42.6996 3.19999C41.6996 3.29999 40.7996 3.49999 39.7996 3.59999C35.3996 4.49999 30.9996 5.39999 26.5996 6.29999C26.3996 6.29999 26.2996 6.29999 26.0996 6.29999C25.9996 6.19999 25.9996 6.09999 25.9996 5.99999C25.6996 3.99999 25.6996 3.99999 27.6996 3.39999C31.9996 2.29999 36.3996 1.19999 40.6996 0.0999939C41.4996 -6.10203e-06 42.3996 -6.10203e-06 43.1996 0.0999939C44.1996 0.199994 44.6996 0.799994 44.7996 1.79999C44.9996 2.99999 44.8996 4.19999 43.9996 5.29999C41.6996 8.19999 39.4996 11.2 37.1996 14.2C36.8996 14.5 36.5996 14.8 36.3996 15.2C36.2996 15.2 36.2996 15.1 36.2996 15.1C35.5996 13.2 35.9996 11.6 37.4996 10.3C38.0996 9.79999 38.4996 9.09999 39.0996 8.29999C38.8996 8.29999 38.7996 8.29999 38.6996 8.39999C31.0996 11.7 23.8996 15.6 17.4996 20.9C10.8996 26.3 5.79959 33 1.99959 40.8C0.899593 43.2 0.199593 45.7 0.499593 48.4C0.599593 49.1 0.399593 49.8 0.399593 50.4H0.299593Z" fill="#6C6C6C"/>
</svg>
