<svg width="24" height="24" viewBox="0 0 24 24" fill="none" xmlns="http://www.w3.org/2000/svg">
<g clip-path="url(#clip0_1573_7171)">
<path d="M16 14C15.205 14 15.049 14.69 15.044 14.707C14.749 15.668 12.311 17 8.5 17C4.532 17 2 15.52 2 14.5V12.592C3.64 13.521 6.077 14 8.5 14C8.677 14 8.853 13.997 9.027 13.993C9.579 13.978 10.014 13.518 10 12.966C9.985 12.414 9.546 11.954 8.974 11.993C8.818 11.997 8.66 11.999 8.501 11.999C4.295 11.999 2.001 10.536 2.001 9.78502V7.59202C3.641 8.52102 6.078 9.00002 8.501 9.00002C8.678 9.00002 8.854 8.99802 9.028 8.99302C9.58 8.97802 10.015 8.51902 10.001 7.96702C9.986 7.41502 9.547 6.95502 8.975 6.99402C8.819 6.99802 8.661 7.00002 8.502 7.00002C4.296 7.00002 2.002 5.53702 2.002 4.78602V4.21502C2.002 3.46402 4.296 2.00102 8.502 2.00102C9.144 2.00102 9.777 2.03802 10.384 2.11002C10.931 2.16602 11.43 1.78302 11.495 1.23502C11.56 0.687024 11.168 0.189023 10.62 0.124023C5.912 -0.436977 0 0.976024 0 4.21402V19.786C0 22.553 4.276 24 8.5 24C12.724 24 17 22.553 17 19.786V15C17 14.982 16.949 14 16 14ZM8.5 22C4.294 22 2 20.537 2 19.786V17.459C3.535 18.413 5.835 19 8.5 19C11.126 19 13.439 18.432 15 17.495V19.786C15 20.537 12.706 22 8.5 22ZM24 1.22002V4.28002C24 4.67802 23.678 5.00002 23.28 5.00002H22.587H22.585C22.584 5.00002 22.583 5.00002 22.582 5.00002H20.221C19.93 5.00002 19.667 4.82502 19.556 4.55602C19.444 4.28702 19.506 3.97702 19.712 3.77102L20.554 2.92902C19.849 2.34402 18.954 2.00002 18.001 2.00002C16.41 2.00002 14.971 2.94202 14.333 4.40002C14.113 4.90502 13.528 5.13802 13.017 4.91602C12.511 4.69502 12.28 4.10502 12.501 3.59902C13.457 1.41202 15.616 -0.000976562 18.001 -0.000976562C19.495 -0.000976562 20.9 0.554024 21.977 1.50502L22.772 0.709023C22.978 0.503023 23.287 0.442023 23.557 0.553023C23.826 0.664023 24.001 0.927024 24.001 1.21802L24 1.22002ZM23.5 8.40102C22.545 10.588 20.386 12.001 18 12.001C16.506 12.001 15.101 11.446 14.024 10.495L13.229 11.29C13.023 11.496 12.714 11.557 12.444 11.446C12.175 11.335 12 11.072 12 10.781V7.72102C12 7.32302 12.322 7.00102 12.72 7.00102H15.78C16.071 7.00102 16.334 7.17602 16.445 7.44502C16.557 7.71402 16.495 8.02402 16.289 8.23002L15.447 9.07202C16.152 9.65702 17.047 10.001 18 10.001C19.591 10.001 21.03 9.05902 21.668 7.60102C21.889 7.09702 22.474 6.86602 22.984 7.08502C23.49 7.30602 23.721 7.89602 23.5 8.40202V8.40102Z" fill="#936DFF"/>
</g>
<defs>
<clipPath id="clip0_1573_7171">
<rect width="24" height="24" fill="white"/>
</clipPath>
</defs>
</svg>
