<svg width="24" height="24" viewBox="0 0 24 24" fill="none" xmlns="http://www.w3.org/2000/svg">
<g clip-path="url(#clip0_1573_7187)">
<path d="M18.7136 12H14.0006C13.4702 12 12.9615 11.7893 12.5864 11.4143C12.2114 11.0392 12.0006 10.5305 12.0006 10V5.27404C12.002 4.81403 11.8976 4.35986 11.6954 3.94665C11.4932 3.53344 11.1987 3.17227 10.8346 2.89104C10.4897 2.61786 10.0865 2.42762 9.65635 2.33503C9.22616 2.24244 8.78045 2.24997 8.35364 2.35704C5.9293 2.95886 3.78297 4.37011 2.26961 6.35741C0.756255 8.34471 -0.0334836 10.789 0.0310018 13.2861C0.0954873 15.7832 1.01033 18.1835 2.62425 20.09C4.23816 21.9966 6.45447 23.2952 8.90664 23.771C11.6637 24.2988 14.5183 23.7525 16.8857 22.244C19.2531 20.7355 20.9542 18.379 21.6406 15.657C21.7481 15.2297 21.7559 14.7833 21.6635 14.3525C21.5711 13.9216 21.3809 13.5177 21.1076 13.172C20.8231 12.8085 20.4598 12.5142 20.0452 12.3112C19.6306 12.1082 19.1753 12.0018 18.7136 12ZM19.7016 15.168C19.3188 16.7099 18.5332 18.1224 17.4253 19.2611C16.3174 20.3997 14.927 21.2237 13.3962 21.6486C11.8654 22.0736 10.2492 22.0843 8.71284 21.6797C7.17653 21.2751 5.77526 20.4697 4.65235 19.3459C3.52944 18.222 2.72519 16.8201 2.32186 15.2834C1.91854 13.7468 1.93061 12.1306 2.35684 10.6002C2.78307 9.0697 3.60817 7.67993 4.74774 6.57299C5.88731 5.46604 7.30046 4.68165 8.84264 4.30004C8.97457 4.26708 9.11239 4.26547 9.24506 4.29534C9.37773 4.32521 9.50156 4.38572 9.60664 4.47204C9.73073 4.56665 9.83136 4.68857 9.90073 4.82835C9.9701 4.96813 10.0063 5.122 10.0066 5.27804V10C10.0066 11.0609 10.4281 12.0783 11.1782 12.8285C11.9284 13.5786 12.9458 14 14.0066 14H18.7186C18.876 14.0007 19.0313 14.037 19.1726 14.1063C19.3139 14.1756 19.4377 14.276 19.5346 14.4C19.6196 14.5066 19.6789 14.6314 19.7077 14.7646C19.7365 14.8978 19.7351 15.0359 19.7016 15.168Z" fill="#00AC52"/>
<path d="M23.6515 7.4459C23.1911 5.75337 22.2968 4.2104 21.0569 2.96967C19.8171 1.72895 18.2747 0.833486 16.5825 0.371895C16.4051 0.324204 16.2222 0.299998 16.0385 0.299895C15.7743 0.297385 15.5122 0.347263 15.2673 0.446648C15.0225 0.546033 14.7998 0.692954 14.612 0.878921C14.4243 1.06489 14.2753 1.28622 14.1736 1.53011C14.0719 1.77401 14.0195 2.03564 14.0195 2.2999V6.9999C14.0195 7.79555 14.3356 8.55861 14.8982 9.12122C15.4608 9.68383 16.2239 9.9999 17.0195 9.9999H21.7385C22.0472 9.99693 22.351 9.92283 22.6264 9.78337C22.9018 9.64392 23.1413 9.44284 23.3264 9.19578C23.5114 8.94872 23.637 8.66232 23.6934 8.35883C23.7498 8.05535 23.7355 7.74294 23.6515 7.4459ZM21.1535 7.9999H17.0155C16.7503 7.9999 16.496 7.89454 16.3084 7.707C16.1209 7.51947 16.0155 7.26511 16.0155 6.9999L16.0075 2.3069C16.0149 2.3016 16.0235 2.29848 16.0325 2.2979H16.0585C17.4206 2.66898 18.6616 3.39081 19.6576 4.39134C20.6535 5.39187 21.3697 6.63611 21.7345 7.9999H21.1535Z" fill="#00AC52"/>
</g>
<defs>
<clipPath id="clip0_1573_7187">
<rect width="24" height="24" fill="white"/>
</clipPath>
</defs>
</svg>
