<svg width="30" height="30" viewBox="0 0 30 30" fill="none" xmlns="http://www.w3.org/2000/svg">
<g clip-path="url(#clip0_1792_576)">
<path d="M5.48047 26.5578C5.46342 26.8304 5.46342 27.0604 5.42081 27.2735C5.30149 27.9636 4.67933 28.4578 4.00604 28.3981C3.29013 28.3385 2.73615 27.7932 2.72763 27.086C2.71058 25.7654 2.71058 24.4447 2.72763 23.1241C2.73615 22.4169 3.30717 21.8375 4.01456 21.829C5.34411 21.8119 6.67365 21.8119 8.01172 21.829C8.74467 21.8375 9.30717 22.451 9.30717 23.1752C9.30717 23.9079 8.74467 24.4958 8.01172 24.5299C7.82422 24.5384 7.63672 24.5299 7.42365 24.6066C7.59411 24.7344 7.76456 24.8792 7.94354 24.9985C15.0089 30.0511 25.0487 26.234 26.9492 17.7392C27.1452 16.8702 27.2049 15.9755 27.2646 15.0809C27.3242 14.2289 27.8526 13.6324 28.6452 13.6324C29.4379 13.6324 30.0004 14.2374 30.0089 15.0894C30.0344 21.9653 25.006 28.2022 18.2646 29.6165C13.6452 30.5879 9.46058 29.608 5.72763 26.7196C5.65092 26.6856 5.58274 26.6344 5.48047 26.5578Z" fill="#0A0A10"/>
<path d="M24.519 3.44226C24.5361 3.17813 24.5361 2.9566 24.5701 2.73507C24.6809 2.04493 25.3031 1.55075 25.9679 1.59335C26.6923 1.63596 27.2548 2.1983 27.2633 2.92252C27.2804 4.23465 27.2804 5.53826 27.2633 6.85038C27.2548 7.57461 26.6838 8.15399 25.9594 8.16251C24.6383 8.17955 23.3173 8.17955 21.9963 8.16251C21.2463 8.15399 20.6753 7.54053 20.6838 6.79926C20.6923 6.07503 21.2548 5.48713 21.9963 5.46157C22.1838 5.45305 22.3798 5.46157 22.5673 5.46157C22.6014 5.42749 22.6355 5.38489 22.6696 5.35081C22.5929 5.32525 22.5076 5.30821 22.4395 5.26561C19.9423 3.36558 17.1298 2.51355 14.0105 2.7862C8.43663 3.27185 4.02185 7.21676 2.95651 12.6868C2.8031 13.4536 2.78606 14.246 2.7264 15.0299C2.67526 15.6859 2.23208 16.2312 1.61845 16.3335C0.962196 16.4442 0.331514 16.112 0.1014 15.49C0.0332184 15.294 -0.00939523 15.0725 -0.000872505 14.868C0.220718 8.97194 2.89685 4.55842 8.06163 1.71264C10.627 0.298267 13.4224 -0.204431 16.3287 0.0596985C19.3031 0.323828 21.9622 1.40591 24.2889 3.27185C24.3486 3.3315 24.4167 3.36558 24.519 3.44226Z" fill="#0A0A10"/>
<path d="M14.0789 16.342C15.451 14.9873 16.8232 13.6411 18.1953 12.2863C18.613 11.8773 19.0306 11.4599 19.4482 11.0509C19.9595 10.5567 20.8033 10.5823 21.3147 11.102C21.826 11.6303 21.8345 12.4397 21.3232 12.9339C19.2607 14.9617 17.1897 16.9895 15.1272 19.0174C14.4368 19.699 13.6612 19.6905 12.9709 19.0088C11.9397 17.9949 10.8914 16.9895 9.86863 15.9671C9.11011 15.2088 9.41693 13.9819 10.4226 13.6922C10.9595 13.5388 11.4283 13.6751 11.8203 14.0756C12.5533 14.8169 13.2862 15.5581 14.0192 16.2994C14.0192 16.3164 14.0277 16.3164 14.0789 16.342Z" fill="#0A0A10"/>
</g>
<defs>
<clipPath id="clip0_1792_576">
<rect width="30" height="30" fill="white"/>
</clipPath>
</defs>
</svg>
