<svg width="30" height="30" viewBox="0 0 30 30" fill="none" xmlns="http://www.w3.org/2000/svg">
<g clip-path="url(#clip0_2109_606)">
<path d="M30.0011 14.375C29.9981 13.5322 29.8048 12.701 29.4355 11.9435C29.0662 11.1859 28.5306 10.5215 27.8686 9.99999C28.7845 9.27801 29.4521 8.28816 29.7785 7.16854C30.1048 6.04891 30.0735 4.85535 29.689 3.75435C29.3045 2.65335 28.5859 1.69983 27.6335 1.0268C26.681 0.35378 25.5423 -0.00518221 24.3761 -5.82885e-06H5.62611C4.45991 -0.00518221 3.32117 0.35378 2.36876 1.0268C1.41634 1.69983 0.697752 2.65335 0.313228 3.75435C-0.0712954 4.85535 -0.102573 6.04891 0.223758 7.16854C0.550089 8.28816 1.21775 9.27801 2.13361 9.99999C1.46929 10.5195 0.931995 11.1834 0.562471 11.9414C0.192947 12.6995 0.000901987 13.5317 0.000901987 14.375C0.000901987 15.2183 0.192947 16.0505 0.562471 16.8086C0.931995 17.5666 1.46929 18.2305 2.13361 18.75C1.21775 19.472 0.550089 20.4618 0.223758 21.5815C-0.102573 22.7011 -0.0712954 23.8946 0.313228 24.9956C0.697752 26.0966 1.41634 27.0502 2.36876 27.7232C3.32117 28.3962 4.45991 28.7552 5.62611 28.75H24.3761C25.5423 28.7552 26.681 28.3962 27.6335 27.7232C28.5859 27.0502 29.3045 26.0966 29.689 24.9956C30.0735 23.8946 30.1048 22.7011 29.7785 21.5815C29.4521 20.4618 28.7845 19.472 27.8686 18.75C28.5306 18.2284 29.0662 17.5641 29.4355 16.8065C29.8048 16.049 29.9981 15.2178 30.0011 14.375ZM2.50111 5.62499C2.50111 4.79619 2.83035 4.00134 3.4164 3.41529C4.00245 2.82923 4.79731 2.49999 5.62611 2.49999H6.25111V3.74999C6.25111 4.08151 6.38281 4.39946 6.61723 4.63388C6.85165 4.8683 7.16959 4.99999 7.50111 4.99999C7.83263 4.99999 8.15057 4.8683 8.385 4.63388C8.61942 4.39946 8.75111 4.08151 8.75111 3.74999V2.49999H11.2511V3.74999C11.2511 4.08151 11.3828 4.39946 11.6172 4.63388C11.8516 4.8683 12.1696 4.99999 12.5011 4.99999C12.8326 4.99999 13.1506 4.8683 13.385 4.63388C13.6194 4.39946 13.7511 4.08151 13.7511 3.74999V2.49999H24.3761C25.2049 2.49999 25.9998 2.82923 26.5858 3.41529C27.1719 4.00134 27.5011 4.79619 27.5011 5.62499C27.5011 6.4538 27.1719 7.24865 26.5858 7.8347C25.9998 8.42075 25.2049 8.74999 24.3761 8.74999H5.62611C4.79731 8.74999 4.00245 8.42075 3.4164 7.8347C2.83035 7.24865 2.50111 6.4538 2.50111 5.62499ZM27.5011 23.125C27.5011 23.9538 27.1719 24.7487 26.5858 25.3347C25.9998 25.9208 25.2049 26.25 24.3761 26.25H5.62611C4.79731 26.25 4.00245 25.9208 3.4164 25.3347C2.83035 24.7487 2.50111 23.9538 2.50111 23.125C2.50111 22.2962 2.83035 21.5013 3.4164 20.9153C4.00245 20.3292 4.79731 20 5.62611 20H6.25111V21.25C6.25111 21.5815 6.38281 21.8995 6.61723 22.1339C6.85165 22.3683 7.16959 22.5 7.50111 22.5C7.83263 22.5 8.15057 22.3683 8.385 22.1339C8.61942 21.8995 8.75111 21.5815 8.75111 21.25V20H11.2511V21.25C11.2511 21.5815 11.3828 21.8995 11.6172 22.1339C11.8516 22.3683 12.1696 22.5 12.5011 22.5C12.8326 22.5 13.1506 22.3683 13.385 22.1339C13.6194 21.8995 13.7511 21.5815 13.7511 21.25V20H24.3761C25.2049 20 25.9998 20.3292 26.5858 20.9153C27.1719 21.5013 27.5011 22.2962 27.5011 23.125ZM5.62611 17.5C4.79731 17.5 4.00245 17.1708 3.4164 16.5847C2.83035 15.9987 2.50111 15.2038 2.50111 14.375C2.50111 13.5462 2.83035 12.7513 3.4164 12.1653C4.00245 11.5792 4.79731 11.25 5.62611 11.25H6.25111V12.5C6.25111 12.8315 6.38281 13.1495 6.61723 13.3839C6.85165 13.6183 7.16959 13.75 7.50111 13.75C7.83263 13.75 8.15057 13.6183 8.385 13.3839C8.61942 13.1495 8.75111 12.8315 8.75111 12.5V11.25H11.2511V12.5C11.2511 12.8315 11.3828 13.1495 11.6172 13.3839C11.8516 13.6183 12.1696 13.75 12.5011 13.75C12.8326 13.75 13.1506 13.6183 13.385 13.3839C13.6194 13.1495 13.7511 12.8315 13.7511 12.5V11.25H24.3761C25.2049 11.25 25.9998 11.5792 26.5858 12.1653C27.1719 12.7513 27.5011 13.5462 27.5011 14.375C27.5011 15.2038 27.1719 15.9987 26.5858 16.5847C25.9998 17.1708 25.2049 17.5 24.3761 17.5H5.62611Z" fill="#0A0A10"/>
</g>
<defs>
<clipPath id="clip0_2109_606">
<rect width="30" height="30" fill="white"/>
</clipPath>
</defs>
</svg>
