<svg width="35" height="35" viewBox="0 0 35 35" fill="none" xmlns="http://www.w3.org/2000/svg">
<g clip-path="url(#clip0_1668_200)">
<path d="M30.8729 28.8108C31.6371 27.6573 32.0833 26.2763 32.0833 24.7917C32.0833 20.771 28.8123 17.5 24.7917 17.5C20.771 17.5 17.5 20.771 17.5 24.7917C17.5 28.8123 20.771 32.0833 24.7917 32.0833C26.2763 32.0833 27.6573 31.6371 28.8108 30.8729L32.5106 34.5727C32.795 34.8571 33.1683 35 33.5417 35C33.915 35 34.2883 34.8571 34.5727 34.5727C35.1429 34.0025 35.1429 33.0808 34.5727 32.5106L30.8729 28.8108ZM20.4167 24.7917C20.4167 22.3796 22.3796 20.4167 24.7917 20.4167C27.2038 20.4167 29.1667 22.3796 29.1667 24.7917C29.1667 27.2038 27.2038 29.1667 24.7917 29.1667C22.3796 29.1667 20.4167 27.2038 20.4167 24.7917ZM8.75 6.5625C8.75 7.77 7.77 8.75 6.5625 8.75C5.355 8.75 4.375 7.77 4.375 6.5625C4.375 5.355 5.355 4.375 6.5625 4.375C7.77 4.375 8.75 5.355 8.75 6.5625ZM14.5833 6.5625C14.5833 7.77 13.6033 8.75 12.3958 8.75C11.1883 8.75 10.2083 7.77 10.2083 6.5625C10.2083 5.355 11.1883 4.375 12.3958 4.375C13.6033 4.375 14.5833 5.355 14.5833 6.5625ZM27.7083 0H7.29167C3.27104 0 0 3.27104 0 7.29167V24.7917C0 28.8123 3.27104 32.0833 7.29167 32.0833H14.5833C15.3898 32.0833 16.0417 31.4315 16.0417 30.625C16.0417 29.8185 15.3898 29.1667 14.5833 29.1667H7.29167C4.87958 29.1667 2.91667 27.2038 2.91667 24.7917V13.125H32.0833V17.5C32.0833 18.305 32.7352 18.9583 33.5417 18.9583C34.3481 18.9583 35 18.305 35 17.5V7.29167C35 3.27104 31.729 0 27.7083 0ZM2.91667 10.2083V7.29167C2.91667 4.87958 4.87958 2.91667 7.29167 2.91667H27.7083C30.1204 2.91667 32.0833 4.87958 32.0833 7.29167V10.2083H2.91667Z" fill="#0A0A10"/>
</g>
<defs>
<clipPath id="clip0_1668_200">
<rect width="35" height="35" fill="white"/>
</clipPath>
</defs>
</svg>
