<svg width="24" height="24" viewBox="0 0 24 24" fill="none" xmlns="http://www.w3.org/2000/svg">
<path d="M19 1H5C2.243 1 0 3.243 0 6V14C0 16.757 2.243 19 5 19H11V21H7C6.448 21 6 21.448 6 22C6 22.552 6.448 23 7 23H17C17.552 23 18 22.552 18 22C18 21.448 17.552 21 17 21H13V19H19C21.757 19 24 16.757 24 14V6C24 3.243 21.757 1 19 1ZM22 14C22 15.654 20.654 17 19 17H5C3.346 17 2 15.654 2 14V6C2 4.346 3.346 3 5 3H19C20.654 3 22 4.346 22 6V14ZM20 7.5V10.978C20 11.53 19.552 11.978 19 11.978C18.448 11.978 18 11.53 18 10.978V9.415L14.496 12.919C13.615 13.801 12.078 13.801 11.197 12.919L9.335 11.057C9.205 10.927 8.994 10.927 8.864 11.057L5.71 14.211C5.515 14.406 5.259 14.504 5.003 14.504C4.747 14.504 4.491 14.406 4.296 14.211C3.905 13.82 3.905 13.188 4.296 12.797L7.45 9.643C8.359 8.733 9.84 8.733 10.749 9.643L12.611 11.505C12.781 11.675 12.912 11.675 13.082 11.505L16.586 8.001H15C14.448 8.001 14 7.553 14 7.001C14 6.449 14.448 6.001 15 6.001H18.5C19.327 6.001 20 6.673 20 7.5Z" fill="#00CC61"/>
</svg>
