<svg width="35" height="35" viewBox="0 0 35 35" fill="none" xmlns="http://www.w3.org/2000/svg">
<g clip-path="url(#clip0_1668_196)">
<path d="M12.3958 7.29167C13.6063 7.29167 14.5833 8.26875 14.5833 9.47917C14.5833 10.6896 13.6063 11.6667 12.3958 11.6667C11.1854 11.6667 10.2083 10.6896 10.2083 9.47917C10.2083 8.26875 11.1854 7.29167 12.3958 7.29167ZM23.0708 11.9292L22.5604 9.85833C22.4 9.21667 21.8167 8.75 21.1458 8.75C20.475 8.75 19.8917 9.20208 19.7313 9.85833L19.2208 11.9146L17.1792 12.3813C16.5229 12.5271 16.0563 13.1104 16.0563 13.7812C16.0563 14.4521 16.4938 15.0354 17.1354 15.2104L19.2208 15.7792L19.7458 17.8646C19.9063 18.5063 20.4896 18.9729 21.1604 18.9729C21.8313 18.9729 22.4146 18.5208 22.575 17.8646L23.0854 15.7938L25.1563 15.2833C25.7979 15.1229 26.2646 14.5396 26.2646 13.8688C26.2646 13.1979 25.8125 12.6146 25.1563 12.4542L23.0854 11.9437L23.0708 11.9292ZM24.2229 7.11667L26.7896 8.19583L27.8104 10.7479C28.0292 11.3021 28.5688 11.6667 29.1667 11.6667C29.7646 11.6667 30.3042 11.3021 30.5229 10.7479L31.5438 8.21042L34.0813 7.18958C34.6354 6.97083 35 6.43125 35 5.83333C35 5.23542 34.6354 4.69583 34.0813 4.47708L31.5438 3.45625L30.5229 0.91875C30.3042 0.364583 29.7646 0 29.1667 0C28.5688 0 28.0292 0.364583 27.8104 0.91875L26.8042 3.44167L24.2813 4.40417C23.7271 4.60833 23.3479 5.14792 23.3333 5.74583C23.3333 6.34375 23.6688 6.88333 24.2229 7.11667ZM35 13.125V27.7083C35 31.7333 31.7333 35 27.7083 35H7.29167C3.26667 35 0 31.7333 0 27.7083V7.29167C0 3.26667 3.26667 0 7.29167 0H21.875C22.6771 0 23.3333 0.65625 23.3333 1.45833C23.3333 2.26042 22.6771 2.91667 21.875 2.91667H7.29167C4.88542 2.91667 2.91667 4.88542 2.91667 7.29167V16.9021L3.73333 16.0854C5.6875 14.1313 8.88125 14.1313 10.85 16.0854L18.9875 24.2229C19.775 25.0104 21.0729 25.0104 21.8604 24.2229L22.7063 23.3771C24.6604 21.4229 27.8542 21.4229 29.8229 23.3771L32.0979 25.6521V13.125C32.0979 12.3229 32.7542 11.6667 33.5563 11.6667C34.3583 11.6667 35.0146 12.3229 35.0146 13.125H35ZM31.7333 29.4146L27.7375 25.4188C26.9208 24.6021 25.5792 24.6021 24.7479 25.4188L23.9021 26.2646C21.9771 28.1896 18.8271 28.1896 16.9021 26.2646L8.76458 18.1271C7.94792 17.3104 6.60625 17.3104 5.775 18.1271L2.8875 21.0146V27.7083C2.8875 30.1146 4.85625 32.0833 7.2625 32.0833H27.6792C29.4875 32.0833 31.0333 30.9896 31.7042 29.4146H31.7333Z" fill="#0A0A10"/>
</g>
<defs>
<clipPath id="clip0_1668_196">
<rect width="35" height="35" fill="white"/>
</clipPath>
</defs>
</svg>
