<svg width="35" height="35" viewBox="0 0 35 35" fill="none" xmlns="http://www.w3.org/2000/svg">
<g clip-path="url(#clip0_1573_6932)">
<path d="M26.2494 13.2184C26.2496 12.6318 26.1337 12.0509 25.9085 11.5093C25.6832 10.9677 25.353 10.476 24.9369 10.0625C24.0854 9.25003 22.9536 8.7967 21.7767 8.7967C20.5997 8.7967 19.468 9.25003 18.6164 10.0625L1.31187 27.3715C0.522061 28.2184 0.0918858 29.3388 0.112003 30.4967C0.132121 31.6545 0.600959 32.7593 1.41971 33.5783C2.23846 34.3972 3.34317 34.8663 4.50101 34.8867C5.65885 34.9071 6.77938 34.4771 7.62645 33.6875L24.9369 16.3786C25.3536 15.9647 25.6842 15.4723 25.9095 14.9299C26.1348 14.3875 26.2503 13.8057 26.2494 13.2184ZM5.56437 31.6284C5.26956 31.9094 4.8779 32.0661 4.47062 32.0661C4.06333 32.0661 3.67167 31.9094 3.37687 31.6284C3.08726 31.338 2.92463 30.9447 2.92463 30.5346C2.92463 30.1245 3.08726 29.7312 3.37687 29.4409L14.7067 18.1096L16.9015 20.3044L5.56437 31.6284ZM22.8777 14.315L18.9577 18.2365L16.7702 16.0417L20.6917 12.1217C20.8314 11.962 21.0025 11.8327 21.1943 11.7418C21.3861 11.651 21.5946 11.6005 21.8067 11.5934C22.0188 11.5864 22.2301 11.623 22.4275 11.7009C22.6249 11.7789 22.8042 11.8965 22.9543 12.0466C23.1043 12.1967 23.222 12.376 23.2999 12.5734C23.3779 12.7708 23.4145 12.9821 23.4075 13.1942C23.4004 13.4063 23.3499 13.6147 23.259 13.8065C23.1681 13.9983 23.0389 14.1694 22.8792 14.3092L22.8777 14.315ZM7.09124 4.16358L9.35166 3.519L9.99624 1.25858C10.1001 0.895872 10.3192 0.576836 10.6205 0.34972C10.9217 0.122603 11.2888 -0.000244141 11.666 -0.000244141C12.0433 -0.000244141 12.4103 0.122603 12.7116 0.34972C13.0129 0.576836 13.232 0.895872 13.3358 1.25858L13.9804 3.519L16.2408 4.16358C16.6035 4.26742 16.9226 4.48654 17.1497 4.78781C17.3768 5.08907 17.4997 5.45609 17.4997 5.83337C17.4997 6.21066 17.3768 6.57768 17.1497 6.87894C16.9226 7.1802 16.6035 7.39932 16.2408 7.50316L13.9804 8.14775L13.3358 10.4082C13.232 10.7709 13.0129 11.0899 12.7116 11.317C12.4103 11.5441 12.0433 11.667 11.666 11.667C11.2888 11.667 10.9217 11.5441 10.6205 11.317C10.3192 11.0899 10.1001 10.7709 9.99624 10.4082L9.35166 8.14775L7.09124 7.50316C6.72853 7.39932 6.4095 7.1802 6.18238 6.87894C5.95526 6.57768 5.83242 6.21066 5.83242 5.83337C5.83242 5.45609 5.95526 5.08907 6.18238 4.78781C6.4095 4.48654 6.72853 4.26742 7.09124 4.16358ZM33.7408 25.0032L31.4804 25.6477L30.8358 27.9082C30.732 28.2709 30.5129 28.5899 30.2116 28.817C29.9103 29.0441 29.5433 29.167 29.166 29.167C28.7888 29.167 28.4217 29.0441 28.1205 28.817C27.8192 28.5899 27.6001 28.2709 27.4962 27.9082L26.8517 25.6477L24.5912 25.0032C24.2285 24.8993 23.9095 24.6802 23.6824 24.3789C23.4553 24.0777 23.3324 23.7107 23.3324 23.3334C23.3324 22.9561 23.4553 22.5891 23.6824 22.2878C23.9095 21.9865 24.2285 21.7674 24.5912 21.6636L26.8517 21.019L27.4962 18.7586C27.6001 18.3959 27.8192 18.0768 28.1205 17.8497C28.4217 17.6226 28.7888 17.4998 29.166 17.4998C29.5433 17.4998 29.9103 17.6226 30.2116 17.8497C30.5129 18.0768 30.732 18.3959 30.8358 18.7586L31.4804 21.019L33.7408 21.6636C34.1035 21.7674 34.4226 21.9865 34.6497 22.2878C34.8768 22.5891 34.9997 22.9561 34.9997 23.3334C34.9997 23.7107 34.8768 24.0777 34.6497 24.3789C34.4226 24.6802 34.1035 24.8993 33.7408 25.0032ZM25.8921 3.64587L27.8696 3.0815L28.4369 1.10108C28.5292 0.785815 28.7212 0.508958 28.9841 0.311997C29.247 0.115036 29.5667 0.00857891 29.8952 0.00857891C30.2237 0.00857891 30.5434 0.115036 30.8063 0.311997C31.0692 0.508958 31.2612 0.785815 31.3535 1.10108L31.9179 3.07858L33.8954 3.64296C34.2107 3.73528 34.4875 3.92729 34.6845 4.19021C34.8815 4.45312 34.9879 4.77278 34.9879 5.10129C34.9879 5.4298 34.8815 5.74946 34.6845 6.01237C34.4875 6.27529 34.2107 6.4673 33.8954 6.55962L31.9179 7.124L31.3535 9.10587C31.2612 9.42114 31.0692 9.698 30.8063 9.89496C30.5434 10.0919 30.2237 10.1984 29.8952 10.1984C29.5667 10.1984 29.247 10.0919 28.9841 9.89496C28.7212 9.698 28.5292 9.42114 28.4369 9.10587L27.8725 7.12983L25.8921 6.56254C25.5768 6.47021 25.3 6.2782 25.103 6.01529C24.906 5.75238 24.7996 5.43271 24.7996 5.10421C24.7996 4.7757 24.906 4.45604 25.103 4.19312C25.3 3.93021 25.5768 3.7382 25.8921 3.64587Z" fill="#0A0A10"/>
</g>
<defs>
<clipPath id="clip0_1573_6932">
<rect width="35" height="35" fill="white"/>
</clipPath>
</defs>
</svg>
