<svg width="40" height="40" viewBox="0 0 40 40" fill="none" xmlns="http://www.w3.org/2000/svg">
<g clip-path="url(#clip0_1702_94)">
<path d="M20.9606 0.00570369C21.0006 0.00570369 21.0405 0 21.0804 0C27.3431 0 33.6 0 39.8627 0C39.9026 0 39.9425 0 39.9824 0.00570369C39.9881 0.0114074 39.9939 0.0171111 39.9996 0.0228148C39.9996 0.0627406 40.0053 0.10837 40.0053 0.148296C40.0053 6.39954 40.0053 12.6508 40.0053 18.902C40.0053 18.9363 40.011 18.9705 39.9996 18.999C39.9939 19.0218 39.9653 19.0446 39.9425 19.0446C39.8912 19.0503 39.8399 19.0446 39.7828 19.0446C33.5658 19.0446 27.3431 19.0446 21.126 19.0446C21.0747 19.0446 21.0291 19.0446 20.9606 19.0446C20.9606 18.9876 20.9606 18.9306 20.9606 18.8792C20.9606 12.6793 20.9606 6.47369 20.9606 0.273777C20.9606 0.188222 20.9549 0.102666 20.9492 0.0171111C20.9492 0.0171111 20.9549 0.0114074 20.9606 0.00570369Z" fill="#80BB06"/>
<path d="M20.9492 20.9609C27.3031 20.9609 33.6456 20.9609 39.9881 20.9609C39.9881 27.3091 39.9881 33.6402 39.9881 39.9885C33.6399 39.9885 27.2974 39.9885 20.9492 39.9885C20.9492 33.6517 20.9492 27.3091 20.9492 20.9609Z" fill="#FEB908"/>
<path d="M0.0228148 0.00570369C0.0627406 0 0.102666 0 0.142592 0C6.39384 0 12.6508 0 18.902 0C18.942 0 18.9819 0 19.0218 0.00570369C19.0275 0.0114074 19.0332 0.0171111 19.0389 0.0228148C19.0446 0.0912591 19.0503 0.165407 19.0503 0.233851C19.0503 6.45088 19.0503 12.6622 19.0503 18.8792C19.0503 18.9306 19.0503 18.9762 19.0503 19.0446C18.9876 19.0446 18.9363 19.0446 18.8849 19.0446C12.685 19.0446 6.4851 19.0446 0.279481 19.0446C0.193926 19.0446 0.10837 19.0503 0.0228148 19.056C0.0171111 19.0503 0.0114074 19.0446 0.00570369 19.0389C0.00570369 18.999 0 18.9591 0 18.9192C0 12.6565 0 6.39954 0 0.136889C0 0.0969628 0 0.0570369 0.00570369 0.0171111C0.0114074 0.0171111 0.0171111 0.0114074 0.0228148 0.00570369Z" fill="#F25325"/>
<path d="M19.0389 20.9668C19.0389 27.3093 19.0389 33.6461 19.0389 40C18.9933 40 18.9534 40 18.9134 40C12.6565 40 6.39384 40 0.136889 40C0.0285185 40 0 39.9715 0 39.8631C0 33.6062 0 27.3492 0 21.0923C0 21.0524 0 21.0124 0 20.9668C6.34821 20.9668 12.685 20.9668 19.0389 20.9668Z" fill="#05A5EF"/>
<path d="M0.00585938 19.0332C0.0113057 19.0386 0.0167521 19.0441 0.0221985 19.0495C0.0167521 19.0495 0.0113057 19.0386 0.00585938 19.0332Z" fill="#F2592D"/>
</g>
<defs>
<clipPath id="clip0_1702_94">
<rect width="40" height="40" fill="white"/>
</clipPath>
</defs>
</svg>
