<svg width="24" height="24" viewBox="0 0 24 24" fill="none" xmlns="http://www.w3.org/2000/svg">
<g clip-path="url(#clip0_1573_7196)">
<path d="M14.996 13.038L17.262 12.818C17.784 14.095 19.037 14.999 20.5 14.999C22.43 14.999 24 13.429 24 11.499C24 9.569 22.43 7.999 20.5 7.999C18.8 7.999 17.382 9.218 17.068 10.828L14.61 11.066C14.381 10.522 14.049 10.036 13.653 9.61L15.492 6.834C15.813 6.932 16.147 7 16.5 7C18.43 7 20 5.43 20 3.5C20 1.57 18.43 0 16.5 0C14.57 0 13 1.57 13 3.5C13 4.351 13.318 5.122 13.824 5.729L12.029 8.44C11.407 8.162 10.724 8 10 8C9.276 8 8.593 8.162 7.971 8.44L6.176 5.729C6.683 5.122 7 4.351 7 3.5C7 1.57 5.43 0 3.5 0C1.57 0 0 1.57 0 3.5C0 5.43 1.57 7 3.5 7C3.853 7 4.187 6.932 4.508 6.834L6.347 9.61C5.518 10.503 5 11.688 5 13C5 14.129 5.391 15.161 6.025 15.999L4.913 17.303C4.48 17.111 4.004 17 3.501 17C1.571 17 0.001 18.57 0.001 20.5C0.001 22.43 1.571 24 3.501 24C5.431 24 7.001 22.43 7.001 20.5C7.001 19.8 6.789 19.15 6.434 18.602L7.528 17.319C8.26 17.74 9.097 18 10.001 18C11.107 18 12.12 17.628 12.949 17.018L15.316 19.067C15.118 19.506 15.001 19.989 15.001 20.501C15.001 22.431 16.571 24.001 18.501 24.001C20.431 24.001 22.001 22.431 22.001 20.501C22.001 18.571 20.431 17.001 18.501 17.001C17.81 17.001 17.169 17.209 16.626 17.556L14.288 15.533C14.724 14.798 14.99 13.952 14.997 13.04L14.996 13.038ZM20.5 10C21.327 10 22 10.673 22 11.5C22 12.327 21.327 13 20.5 13C19.673 13 19 12.327 19 11.5C19 10.673 19.673 10 20.5 10ZM16.5 2C17.327 2 18 2.673 18 3.5C18 4.327 17.327 5 16.5 5C15.673 5 15 4.327 15 3.5C15 2.673 15.673 2 16.5 2ZM2 3.5C2 2.673 2.673 2 3.5 2C4.327 2 5 2.673 5 3.5C5 4.327 4.327 5 3.5 5C2.673 5 2 4.327 2 3.5ZM3.5 22C2.673 22 2 21.327 2 20.5C2 19.673 2.673 19 3.5 19C4.327 19 5 19.673 5 20.5C5 21.327 4.327 22 3.5 22ZM10 16C8.346 16 7 14.654 7 13C7 11.346 8.346 10 10 10C11.654 10 13 11.346 13 13C13 14.654 11.654 16 10 16ZM18.5 19C19.327 19 20 19.673 20 20.5C20 21.327 19.327 22 18.5 22C17.673 22 17 21.327 17 20.5C17 19.673 17.673 19 18.5 19Z" fill="#00CC61"/>
</g>
<defs>
<clipPath id="clip0_1573_7196">
<rect width="24" height="24" fill="white"/>
</clipPath>
</defs>
</svg>
