<svg width="30" height="30" viewBox="0 0 30 30" fill="none" xmlns="http://www.w3.org/2000/svg">
<g clip-path="url(#clip0_1792_609)">
<path d="M27.803 6.59L23.4093 2.19625C21.9918 0.78 20.108 0 18.1055 0H11.8918C9.8893 0 8.00555 0.78 6.58805 2.19625L2.1943 6.59C0.778047 8.0075 -0.00195312 9.89125 -0.00195312 11.8938V18.1075C-0.00195312 20.11 0.778047 21.9937 2.1943 23.4113L6.58805 27.805C8.00555 29.2212 9.8893 30.0012 11.8918 30.0012H18.1055C20.108 30.0012 21.9918 29.2212 23.4093 27.805L27.803 23.4113C29.2193 21.9937 29.9993 20.11 29.9993 18.1075V11.8938C29.9993 9.89125 29.2193 8.0075 27.803 6.59ZM22.9155 12.2913L16.3755 18.8312C15.6093 19.5975 14.5905 20.02 13.5068 20.02C12.423 20.02 11.4043 19.5975 10.638 18.8312L7.1543 15.3475C6.66555 14.8587 6.66555 14.0688 7.1543 13.58C7.64305 13.0913 8.43305 13.0913 8.9218 13.58L12.4055 17.0637C12.9943 17.6525 14.0205 17.6513 14.608 17.0637L21.148 10.5237C21.6368 10.035 22.4268 10.035 22.9155 10.5237C23.4043 11.0125 23.4043 11.8025 22.9155 12.2913Z" fill="#936DFF"/>
</g>
<defs>
<clipPath id="clip0_1792_609">
<rect width="30" height="30" fill="white"/>
</clipPath>
</defs>
</svg>
