<svg width="41" height="40" viewBox="0 0 41 40" fill="none" xmlns="http://www.w3.org/2000/svg">
<path d="M26.0091 0C26.6133 0.270833 27.2799 0.46875 27.8112 0.833333C28.9258 1.60417 29.5091 2.72917 29.5195 4.09375C29.5404 7.63542 29.5404 11.1771 29.5195 14.7188C29.5091 17.0104 27.6133 18.8438 25.332 18.8333C23.0716 18.8229 21.1862 17 21.1758 14.7292C21.1549 11.1979 21.1549 7.67708 21.1758 4.14583C21.1862 2.23958 22.4466 0.65625 24.3112 0.145833C24.4154 0.114583 24.5091 0.0520833 24.6133 0.0104167C25.0716 0 25.5404 0 26.0091 0Z" fill="#0DC36E"/>
<path d="M39.9988 26.0939C39.9467 26.2085 39.8842 26.3127 39.853 26.4377C39.3738 28.2397 37.7696 29.521 35.9051 29.5314C32.353 29.5522 28.8009 29.5522 25.2488 29.5314C23.1238 29.521 21.3426 27.8022 21.1863 25.6981C21.0196 23.5106 22.5405 21.5835 24.6967 21.2397C24.9884 21.1981 25.2905 21.1772 25.5926 21.1772C28.9259 21.1772 32.2592 21.1772 35.5926 21.1772C37.8321 21.1772 39.3946 22.396 39.9259 24.5731C39.9363 24.6147 39.978 24.6564 39.9988 24.6877C39.9988 25.1564 39.9988 25.6252 39.9988 26.0939Z" fill="#FCCA02"/>
<path d="M40.0001 15.3958C39.948 15.5208 39.8959 15.6458 39.8543 15.7812C39.3959 17.552 37.8438 18.802 36.0209 18.8333C34.698 18.8541 33.3647 18.8333 32.0418 18.8333C32.0001 18.8333 31.9688 18.8228 31.8855 18.802C31.8855 18.5103 31.8855 18.2187 31.8855 17.9166C31.9063 16.677 31.823 15.4374 31.9584 14.2083C32.1876 12.1978 33.8855 10.7603 35.8855 10.7187C37.823 10.677 39.5313 12.0833 39.9272 14.0208C39.9376 14.0937 39.9793 14.1562 40.0105 14.2187C40.0001 14.6145 40.0001 14.9999 40.0001 15.3958Z" fill="#0EC36E"/>
<path d="M15.228 0C15.8426 0.25 16.5197 0.40625 17.0718 0.760417C18.103 1.39583 18.7072 2.40625 18.7801 3.60417C18.8634 5.09375 18.8009 6.58333 18.8009 8.125C18.4676 8.125 18.1447 8.125 17.8218 8.125C16.603 8.10417 15.3738 8.17708 14.1551 8.04167C12.2384 7.83333 10.8218 6.19792 10.7072 4.23958C10.603 2.42708 11.8634 0.6875 13.6655 0.166667C13.8218 0.125 13.978 0.0625 14.1238 0C14.4988 0 14.8634 0 15.228 0Z" fill="#37C5FE"/>
<path d="M10.4578 30.5623C10.4578 28.8227 10.4473 27.0727 10.4578 25.3331C10.4786 22.9477 12.4161 21.104 14.8015 21.1769C16.9369 21.2394 18.7807 23.0206 18.8015 25.1561C18.8432 28.7706 18.8432 32.3956 18.8015 36.0102C18.7807 38.0936 16.9994 39.8644 14.9161 39.9894C12.7911 40.1144 10.8848 38.6352 10.5307 36.5727C10.4786 36.2498 10.4578 35.9269 10.4578 35.604C10.4578 33.9269 10.4578 32.2498 10.4578 30.5623Z" fill="#FE4340"/>
<path d="M9.40505 18.8229C7.67588 18.8229 5.94671 18.8333 4.20713 18.8229C1.76963 18.8125 -0.0845378 16.8646 -0.00120446 14.4167C0.0717122 12.3229 1.90505 10.4896 3.9988 10.4688C7.60296 10.4479 11.2071 10.4479 14.8217 10.4688C16.905 10.4792 18.6967 12.2708 18.8217 14.375C18.9467 16.5208 17.4155 18.4583 15.3425 18.7396C14.6655 18.8333 13.9675 18.8125 13.28 18.8125C11.9884 18.8333 10.6967 18.8333 9.40505 18.8229Z" fill="#36C5FE"/>
<path d="M8.0508 21.1769C8.0508 22.7915 8.15496 24.354 8.01955 25.9061C7.85288 27.8123 6.00913 29.3019 4.0508 29.2915C2.08205 29.2707 0.342462 27.7811 0.0716289 25.8748C-0.292954 23.3436 1.54038 21.1873 4.09246 21.1665C5.41538 21.1665 6.7383 21.1769 8.0508 21.1769Z" fill="#FE4441"/>
<path d="M21.1641 31.9479C22.7682 31.9479 24.3203 31.8438 25.8516 31.9792C27.7995 32.1458 29.2786 33.9792 29.2682 35.9583C29.2578 37.9271 27.7786 39.6563 25.862 39.9375C23.3307 40.3021 21.1745 38.4583 21.1641 35.9063C21.1641 34.5729 21.1641 33.25 21.1641 31.9479Z" fill="#FCCA03"/>
</svg>
