<svg width="35" height="35" viewBox="0 0 35 35" fill="none" xmlns="http://www.w3.org/2000/svg">
<g clip-path="url(#clip0_1668_202)">
<path d="M30.6248 31.3543V35.0001H27.7081V31.3543C27.7081 29.3432 26.0733 27.7084 24.0623 27.7084H10.9373C8.92768 27.7084 7.29143 29.3432 7.29143 31.3543V35.0001H4.37477V31.3543C4.37477 27.7362 7.31914 24.7918 10.9373 24.7918H24.0623C27.6804 24.7918 30.6248 27.7362 30.6248 31.3543ZM18.7014 8.88865C20.5316 9.31011 22.0235 10.7903 22.4566 12.6176C22.7498 13.8528 22.5893 15.037 22.1096 16.0418H24.0141C24.7448 16.0418 25.3835 15.5051 25.4681 14.7789C25.5673 13.9228 25.5308 13.0259 25.3354 12.1087C24.6879 9.07678 22.2277 6.63115 19.1914 6.00699C14.0333 4.94678 9.48039 8.8799 9.48039 13.8543C9.48039 15.9966 10.3248 17.9449 11.6971 19.3843C11.7554 18.1476 12.2016 17.0116 12.9162 16.0943C12.5837 15.4176 12.3971 14.6564 12.3971 13.8528C12.3971 10.6459 15.3691 8.12011 18.7029 8.8872L18.7014 8.88865ZM10.02 5.87428C12.2498 3.78449 15.1693 2.75199 18.2304 2.94157C23.9529 3.31199 28.4373 8.2922 28.4373 14.2787C28.4373 16.8599 26.3387 18.9584 23.7575 18.9584H20.2618C19.9075 17.7466 18.7889 16.8599 17.4618 16.8599C15.8504 16.8599 14.5452 18.1651 14.5452 19.7766C14.5452 21.388 15.8504 22.6932 17.4618 22.6932C18.2479 22.6932 18.9625 22.3812 19.486 21.8751H23.756C27.9443 21.8751 31.3525 18.467 31.3525 14.2787C31.3539 6.75803 25.6723 0.498862 18.4185 0.0307374C14.5335 -0.221554 10.8483 1.09824 8.02643 3.74657C5.42039 6.18928 3.85414 9.57407 3.66602 13.1266H6.58706C6.76643 10.3514 7.96956 7.79782 10.0214 5.87428H10.02Z" fill="#0A0A10"/>
</g>
<defs>
<clipPath id="clip0_1668_202">
<rect width="35" height="35" fill="white"/>
</clipPath>
</defs>
</svg>
