<svg width="101" height="103" viewBox="0 0 101 103" fill="none" xmlns="http://www.w3.org/2000/svg">
<g clip-path="url(#clip0_1970_246)">
<path d="M9.14558 103C8.52693 102.087 8.60763 101.819 9.65663 101.443C12.5078 100.369 15.3858 99.3214 18.2369 98.2474C18.6942 98.0863 19.259 97.7909 19.528 98.4891C19.797 99.1872 19.1783 99.3214 18.7211 99.5094C15.9237 100.557 13.1264 101.577 10.3291 102.624C10.0601 102.732 9.81801 102.893 9.54904 103.027C9.41455 103 9.28006 103 9.14558 103Z" fill="#1B75FE"/>
<path d="M62.1602 76.4982C62.1871 78.2972 61.434 79.237 59.8739 79.8008C54.6827 81.7341 49.4915 83.6405 44.3003 85.5738C30.9592 90.5412 17.618 95.4818 4.30377 100.422C4.14239 100.476 3.981 100.53 3.81962 100.61C2.66303 101.04 1.64092 100.879 0.753307 99.9927C-0.0805144 99.1335 -0.188104 98.1131 0.215358 97.0123C1.9099 92.4476 3.60444 87.9098 5.29898 83.3452C10.544 69.2753 15.789 55.2054 21.0071 41.1356C22.0292 38.3968 24.1003 37.9403 26.1714 40.0078C37.7642 51.5537 49.3301 63.1265 60.896 74.6992C61.5147 75.3168 61.8913 76.1223 62.1602 76.4982ZM6.21349 84.7414C9.01083 84.5803 11.593 84.446 14.1751 84.3118C19.8774 84.0433 25.5797 83.7479 31.2819 83.5063C36.4193 83.2646 41.5299 83.0767 46.6673 82.835C47.3128 82.8081 47.9853 82.8081 48.5501 82.5933C52.3427 81.2239 56.1083 79.8277 59.847 78.3509C60.2774 78.1898 60.6271 77.5722 60.7616 77.0889C60.9229 76.4713 58.3408 73.7057 57.6684 73.652C57.6146 73.652 57.5339 73.6788 57.4801 73.6788C54.4944 73.84 51.5088 74.0011 48.5232 74.1353C42.8478 74.4038 37.1994 74.6992 31.524 74.9408C26.3059 75.1825 21.0609 75.3705 15.8428 75.6121C13.96 75.6927 12.104 75.8269 10.2212 75.9612C9.89845 75.988 9.41429 76.2297 9.3067 76.4982C8.2577 79.1564 7.28939 81.8415 6.21349 84.7414ZM56.7269 72.39C54.2793 69.9734 52.0737 67.718 49.8143 65.5162C49.626 65.3282 49.2225 65.2208 48.9267 65.2477C40.7767 65.6236 32.6268 65.9995 24.45 66.4023C20.7919 66.5902 17.1339 66.7513 13.4758 66.9661C13.2068 66.993 12.7765 67.1541 12.6958 67.3689C11.7813 69.7318 10.8937 72.1215 9.97914 74.6186C25.5528 73.8668 40.9919 73.115 56.7269 72.39ZM48.0929 63.932C47.9046 63.6635 47.8239 63.5292 47.6894 63.4218C45.2417 60.9784 42.8209 58.5081 40.3195 56.1184C40.0236 55.823 39.4319 55.7156 38.9746 55.7156C37.1456 55.7693 35.2897 55.9573 33.4606 56.0378C29.695 56.1989 25.9562 56.36 22.1906 56.4943C20.6843 56.548 19.1781 56.6285 17.6718 56.6822C16.9456 56.7091 16.4076 56.9239 16.1925 57.7294C15.9504 58.5886 15.5738 59.421 15.251 60.2803C14.6324 61.9987 13.9869 63.7172 13.3144 65.5699C24.9879 65.0329 36.4731 64.469 48.0929 63.932ZM43.0899 84.634C43.0899 84.6072 43.063 84.5535 43.063 84.5266C41.5837 84.5266 40.0774 84.4729 38.598 84.5266C33.1917 84.7683 27.8122 85.0368 22.4058 85.3053C17.0532 85.5738 11.6737 85.8154 6.32108 86.1108C6.07901 86.1108 5.67554 86.2719 5.59485 86.4599C4.68034 88.8496 3.79272 91.2662 2.87821 93.7365C3.30857 93.7365 3.60444 93.7365 3.90031 93.7365C8.41909 93.5217 12.9648 93.3605 17.4835 93.092C19.1781 92.9846 20.8726 93.0115 22.5134 92.3402C25.9024 90.9708 29.3453 89.7625 32.7882 88.5005C36.2042 87.1848 39.647 85.9229 43.0899 84.634ZM38.5443 54.4268C38.4367 54.2388 38.4098 54.1314 38.356 54.0777C36.2042 51.9028 34.0524 49.7547 31.8468 47.6066C31.5778 47.365 31.0668 47.2576 30.6633 47.2844C27.3818 47.4187 24.1003 47.6335 20.7919 47.7677C20.1195 47.7946 19.7967 47.9826 19.5815 48.627C18.9091 50.5871 18.156 52.5203 17.4297 54.4805C17.3221 54.7758 17.2415 55.0712 17.1339 55.4471C24.3424 55.098 31.3895 54.7758 38.5443 54.4268ZM15.8697 94.7031C15.8428 94.6494 15.8428 94.5688 15.8159 94.5151C15.4931 94.5151 15.1704 94.5151 14.8476 94.5151C11.4316 94.6494 8.01562 94.8105 4.59965 94.9447C2.31336 95.0253 2.31336 95.0253 1.53333 97.1734C1.29126 97.8446 1.15677 98.4891 1.72162 99.0261C2.25957 99.5631 2.9051 99.5094 3.57754 99.2409C6.59006 98.1132 9.60257 97.0123 12.642 95.8845C13.7179 95.5355 14.7938 95.1059 15.8697 94.7031ZM20.4423 46.452C23.8044 46.2909 26.8976 46.1298 30.1522 45.9687C28.2425 44.0355 26.4673 42.2096 24.6383 40.4375C24.0465 39.8467 22.9706 40.0078 22.6478 40.7597C21.8947 42.5587 21.2223 44.3845 20.4423 46.452Z" fill="#1773FE"/>
<path d="M54.8977 8.67285C54.817 12.969 53.7142 17.0503 51.9659 20.89C49.3299 26.6629 46.425 32.3285 43.6008 38.0209C43.4663 38.3162 42.9552 38.4236 42.6325 38.6384C42.5518 38.2357 42.3097 37.7792 42.4442 37.4301C44.327 32.1405 46.3712 26.8778 48.1464 21.5613C49.4106 17.8022 50.2176 13.9356 49.9486 9.90799C49.7872 7.84047 49.2223 5.90721 48.1196 4.13505C47.474 3.08787 47.5816 2.524 48.6037 1.87958C49.4375 1.34256 50.2982 0.778691 51.159 0.268524C52.1004 -0.295345 52.6921 -0.0805374 53.2032 0.886094C54.4136 3.35638 54.9515 5.96091 54.8977 8.67285ZM49.0072 3.19527C51.0783 6.22942 51.67 9.61263 51.2128 13.0495C50.7824 16.3791 49.841 19.6549 49.1417 22.9307C49.061 23.2797 48.9534 23.6288 48.8727 23.9779C48.9803 24.0047 49.0879 24.0316 49.1954 24.0853C49.6796 23.0112 50.1638 21.9372 50.621 20.8363C52.3962 16.4328 53.8487 11.9487 53.5259 7.1155C53.3915 5.12853 52.9073 3.24897 51.8583 1.42311C50.8631 2.04068 49.9755 2.60455 49.0072 3.19527ZM48.5499 24.7565C48.6306 24.7834 48.7113 24.8102 48.792 24.8371C48.8458 24.676 48.8727 24.5417 48.9265 24.3806C48.8727 24.3538 48.8458 24.3538 48.792 24.3269C48.7113 24.4612 48.6306 24.6223 48.5499 24.7565Z" fill="#1873FE"/>
<path d="M92.7155 46.0224C95.0825 45.9687 97.6646 46.5326 100.059 47.7677C101.027 48.2779 101.242 48.8686 100.677 49.8084C100.139 50.7213 99.5475 51.6343 98.9557 52.5203C98.5254 53.1916 97.8798 53.5138 97.1536 53.0574C93.3611 50.5602 89.2457 50.6408 85.0228 51.3926C79.2399 52.4129 73.8066 54.561 68.3733 56.6285C66.7326 57.2461 65.1456 57.9174 63.478 58.4812C63.1283 58.5886 62.671 58.3738 62.2676 58.2933C62.4559 57.9711 62.5903 57.4877 62.8862 57.3266C68.9919 54.1314 75.0439 50.7482 81.5262 48.3316C85.4801 46.8548 89.2726 46.0224 92.7155 46.0224ZM99.5744 49.0566C96.4005 47.2576 93.119 47.177 89.7837 47.5261C86.4215 47.8751 83.2745 49.0297 80.1544 50.2649C78.8095 50.8019 77.4915 51.4463 76.1467 52.037C76.1736 52.1176 76.2005 52.1981 76.2274 52.2787C76.4963 52.1981 76.7922 52.1444 77.0612 52.0639C78.5943 51.6074 80.1275 51.0972 81.6876 50.7213C87.1477 49.4056 92.6079 48.6001 97.7991 51.8759C98.3909 50.9361 98.9557 50.0232 99.5744 49.0566ZM75.8239 52.3861C75.8239 52.3592 75.8239 52.3055 75.8239 52.2787C75.7163 52.2787 75.5818 52.3055 75.4742 52.3055C75.4742 52.3324 75.4742 52.3861 75.4742 52.4129C75.5818 52.4129 75.7163 52.4129 75.8239 52.3861Z" fill="#1873FE"/>
<path d="M86.7177 20.165C82.7637 20.1113 79.5898 21.8298 76.6311 24.0316C71.5206 27.8175 67.3246 32.5433 63.1017 37.2154C62.1603 38.2625 61.2457 39.3366 60.2505 40.3301C60.0354 40.5449 59.5781 40.5449 59.2284 40.6254C59.2284 40.2495 59.0671 39.7393 59.2553 39.4977C63.6665 33.3488 67.8894 27.0389 73.2689 21.615C76.2007 18.6614 79.4553 16.1106 83.5169 14.9023C85.05 14.4458 86.6639 14.3384 88.2777 14.2041C89.246 14.1236 89.7302 14.6338 89.6764 15.6004C89.6226 16.7013 89.515 17.8022 89.3805 18.903C89.2729 19.7891 88.7619 20.2993 87.7936 20.1919C87.3901 20.1919 86.9866 20.165 86.7177 20.165ZM88.0087 18.8493C88.1163 17.7216 88.2239 16.7013 88.3584 15.6004C85.5342 15.4124 83.0596 16.2717 80.7195 17.5337C75.8242 20.1919 72.3813 24.3806 69.0191 28.6231C69.3419 28.5425 69.6109 28.3814 69.826 28.1666C70.9826 27.0926 72.1123 25.9917 73.2958 24.9713C77.4918 21.4002 81.9568 18.3929 88.0087 18.8493Z" fill="#1873FE"/>
<path d="M72.5161 63.744C75.5018 63.9588 78.4874 64.0931 81.1502 65.5967C82.4682 66.3486 83.571 67.4763 84.7007 68.4966C85.3462 69.0873 85.1849 69.7586 84.5124 70.3225C83.9476 70.779 83.3558 71.2623 82.7641 71.6919C82.2261 72.0946 81.6075 72.0678 81.2578 71.4771C79.3481 68.3087 76.228 67.3152 72.8927 66.993C68.9926 66.6439 65.0386 66.6171 61.1116 66.456C60.8426 66.456 60.5468 66.5365 60.3047 66.4291C59.955 66.268 59.6592 65.9995 59.3633 65.7847C59.6323 65.5699 59.9012 65.1671 60.1971 65.1403C64.3124 64.657 68.4277 64.2005 72.5161 63.744ZM71.8706 65.3819C75.8245 65.9726 79.6709 66.7513 82.1723 70.3762C82.4144 70.2151 82.6296 70.1077 82.8179 69.9734C83.0599 69.7586 83.302 69.517 83.6248 69.2216C80.4509 65.5162 76.2549 65.2208 71.8706 65.3819Z" fill="#1873FE"/>
<path d="M37.0103 29.8582C36.6068 33.2951 36.2302 37.0005 35.7461 40.6791C35.7192 41.0013 35.2619 41.2698 35.0199 41.5383C34.8047 41.1893 34.455 40.8671 34.4281 40.518C34.3743 38.3162 34.4819 36.0876 34.3205 33.8858C34.1054 31.0128 33.8095 28.1666 33.2984 25.3472C32.8681 23.0112 31.6308 21.0511 29.5059 19.7891C28.7797 19.3595 28.7259 18.7419 29.21 18.0975C29.5059 17.6947 29.8287 17.3188 30.1514 16.9161C31.2004 15.6004 31.6039 15.5735 32.895 16.7013C35.3695 18.8762 36.3378 21.7492 36.6875 24.8908C36.9027 26.4481 36.9027 28.0323 37.0103 29.8582ZM30.4473 18.7419C34.0516 21.1854 34.8585 24.9982 35.504 28.8916C35.5847 24.5954 35.3157 20.4335 31.6577 17.3188C31.4156 17.5873 31.2273 17.7753 31.0659 17.9633C30.8777 18.1781 30.6894 18.4197 30.4473 18.7419Z" fill="#1974FE"/>
<path d="M75.9052 37.457C75.9052 38.8801 74.6948 40.0884 73.2692 40.0884C71.7899 40.0884 70.6064 38.8801 70.6333 37.3764C70.6602 35.9265 71.8705 34.7719 73.2961 34.7719C74.7217 34.8256 75.9052 36.0339 75.9052 37.457ZM74.5603 37.4033C74.5334 36.6515 73.9417 36.0876 73.1885 36.1413C72.4085 36.195 72.005 36.7052 71.9243 37.4301C71.8705 38.1283 72.5699 38.7458 73.2692 38.7458C74.0223 38.7458 74.5872 38.1551 74.5603 37.4033Z" fill="#1974FE"/>
<path d="M87.3093 35.5237C85.8838 35.5237 84.6734 34.3154 84.6465 32.8923C84.6465 31.4155 85.8569 30.2341 87.3631 30.2609C88.8156 30.2878 89.9722 31.4961 89.9722 32.9192C89.9453 34.3691 88.7349 35.5506 87.3093 35.5237ZM88.6273 32.8655C88.6004 32.1405 87.9549 31.5229 87.2555 31.5498C86.5562 31.5766 85.9376 32.2479 85.9914 32.9729C86.0721 33.7516 86.5293 34.1543 87.3093 34.1812C88.0894 34.208 88.6542 33.6173 88.6273 32.8655Z" fill="#1973FE"/>
<path d="M87.7121 55.9841C89.1646 55.9841 90.375 57.1655 90.375 58.5886C90.4019 60.0386 89.1377 61.3005 87.6852 61.2737C86.2597 61.2468 85.0762 60.0386 85.0762 58.6155C85.0762 57.1924 86.2866 56.0109 87.7121 55.9841ZM89.0301 58.6155C89.0301 57.8636 88.4115 57.2729 87.6852 57.2998C86.9859 57.3266 86.3404 57.9979 86.3942 58.696C86.4748 59.4747 86.9052 59.9043 87.7121 59.9311C88.4922 59.958 89.057 59.3673 89.0301 58.6155Z" fill="#1973FE"/>
<path d="M43.0633 7.46452C43.0633 8.94132 41.9336 10.0959 40.4812 10.1496C39.0287 10.1765 37.7645 8.94132 37.7914 7.46452C37.8183 6.01457 39.0018 4.85999 40.4543 4.85999C41.9067 4.85999 43.0633 6.01457 43.0633 7.46452ZM40.4812 8.78021C41.2343 8.75336 41.8261 8.13579 41.7723 7.41082C41.7454 6.7127 41.046 6.06827 40.3467 6.14883C39.5936 6.25623 39.1363 6.68585 39.1363 7.46452C39.1363 8.27005 39.7012 8.80707 40.4812 8.78021Z" fill="#1A74FE"/>
<path d="M50.5934 43.8475C52.019 43.8475 53.2294 45.0558 53.2563 46.4789C53.2832 47.9288 51.9921 49.1908 50.5665 49.1639C49.141 49.1371 47.9306 47.902 47.9575 46.5057C47.9575 45.0826 49.1679 43.8475 50.5934 43.8475ZM50.6203 47.8214C51.3734 47.8214 51.9652 47.2307 51.9114 46.4789C51.8576 45.7002 51.4272 45.2706 50.6472 45.2169C49.8941 45.1632 49.3023 45.7539 49.3023 46.5057C49.2754 47.2307 49.8672 47.8214 50.6203 47.8214Z" fill="#1B75FE"/>
<path d="M70.2841 10.4987C70.2841 11.9486 69.1275 13.1301 67.675 13.1301C66.2763 13.1301 65.039 11.9218 65.0121 10.5255C64.9853 9.07559 66.2225 7.8136 67.7019 7.84045C69.1544 7.84045 70.3109 9.02189 70.2841 10.4987ZM67.7288 9.15614C66.9757 9.12929 66.3839 9.69316 66.3839 10.445C66.3839 11.2237 66.7874 11.707 67.5943 11.7607C68.3474 11.8144 68.9661 11.2505 69.0199 10.5255C69.0468 9.85426 68.4281 9.18299 67.7288 9.15614Z" fill="#1974FE"/>
<path d="M62.0532 25.6426C62.08 27.1194 60.9504 28.274 59.4979 28.3009C57.9916 28.3277 56.7812 27.1731 56.7812 25.6695C56.7812 24.2464 57.9647 23.0381 59.4172 23.0381C60.8428 23.0381 62.0263 24.1927 62.0532 25.6426ZM58.1261 25.7232C58.1261 26.475 58.7448 27.0657 59.471 27.0389C60.1703 27.012 60.8428 26.3139 60.7621 25.6426C60.6814 24.8908 60.251 24.4343 59.4441 24.4075C58.6641 24.4075 58.0992 24.9445 58.1261 25.7232Z" fill="#1A74FE"/>
<path d="M23.6154 34.6108C25.6596 34.6913 27.2735 35.3089 28.6183 36.6246C29.1294 37.1079 29.6673 37.5912 30.0977 38.1282C30.286 38.3699 30.2322 38.8264 30.286 39.1754C29.9094 39.1217 29.4522 39.2023 29.1832 39.0143C28.699 38.6921 28.3225 38.1819 27.8921 37.7523C26.4396 36.3292 24.7182 35.6848 22.6471 36.0607C22.3512 36.1144 21.9478 35.7654 21.625 35.6043C21.894 35.3358 22.1092 34.933 22.4319 34.7987C22.8354 34.6108 23.3195 34.6376 23.6154 34.6108Z" fill="#1C75FE"/>
<path d="M19.6893 37.4839C19.6086 37.6987 19.5548 37.8598 19.4741 37.994C19.0437 38.8533 18.6672 39.7662 18.183 40.5986C18.0216 40.8939 17.5913 41.0282 17.2685 41.243C17.1609 40.8939 16.8919 40.4643 16.9995 40.169C17.3761 39.1755 17.8603 38.2357 18.3982 37.2959C18.5058 37.0811 18.9631 37.0005 19.2589 37.0005C19.3934 37.0005 19.5279 37.3228 19.6893 37.4839Z" fill="#1D76FE"/>
<path d="M24.7191 96.69C24.6115 96.9317 24.5577 97.1734 24.4501 97.2271C23.7239 97.5493 22.9708 97.8446 22.2176 98.0863C22.0832 98.14 21.7604 97.8446 21.6528 97.6298C21.5721 97.4687 21.6797 97.0659 21.8142 97.0122C22.5404 96.69 23.2935 96.3947 24.0467 96.1799C24.235 96.153 24.5039 96.5021 24.7191 96.69Z" fill="#1D76FE"/>
<path d="M6.21289 84.7414C7.28879 81.8147 8.284 79.1564 9.3061 76.525C9.41369 76.2565 9.89784 76.0149 10.2206 75.988C12.1034 75.8269 13.9594 75.7195 15.8422 75.639C21.0603 75.3973 26.3053 75.2093 31.5234 74.9677C37.1988 74.6992 42.8472 74.4307 48.5226 74.1622C51.5082 74.0279 54.4938 73.8399 57.4795 73.7057C57.5333 73.7057 57.614 73.6788 57.6677 73.6788C58.3402 73.7325 60.9223 76.4982 60.761 77.1158C60.6265 77.5991 60.2499 78.2166 59.8464 78.3777C56.1077 79.8545 52.3152 81.2508 48.5495 82.6202C47.9578 82.835 47.2853 82.835 46.6667 82.8618C41.5293 83.1035 36.4188 83.2915 31.2813 83.5331C25.5791 83.8016 19.8768 84.0701 14.1745 84.3386C11.5924 84.446 9.01023 84.6071 6.21289 84.7414Z" fill="#93C0FE"/>
<path d="M56.7263 72.39C40.9913 73.1418 25.5522 73.8668 9.97852 74.6186C10.9199 72.1215 11.7806 69.7318 12.6952 67.3689C12.7759 67.1541 13.2062 66.993 13.4752 66.9661C17.1332 66.7513 20.7913 66.5634 24.4494 66.4023C32.5993 65.9995 40.7492 65.6236 48.926 65.2477C49.2219 65.2208 49.6254 65.3282 49.8137 65.5162C52.0731 67.718 54.2786 69.9466 56.7263 72.39ZM23.6693 71.3428C23.7231 71.2891 23.7769 71.2086 23.8307 71.1549C24.4225 71.1012 25.0142 71.0206 25.6328 70.9938C26.3322 70.9669 27.0584 71.0475 27.7308 70.9401C27.9998 70.9132 28.215 70.4836 28.4571 70.2419C28.1612 70.0271 27.8653 69.6244 27.5695 69.6244C26.3053 69.6244 25.0411 69.6781 23.7769 69.8123C23.4541 69.8392 23.1583 70.2419 22.8355 70.4567C23.1314 70.7521 23.4004 71.0475 23.6693 71.3428ZM32.2227 69.3559C32.142 69.3559 31.7924 69.2753 31.5503 69.4096C31.2544 69.5707 31.0123 69.8929 30.7434 70.1345C31.0392 70.3493 31.3351 70.6716 31.6579 70.7253C32.0882 70.8058 32.5993 70.7253 33.0296 70.591C33.3524 70.4836 33.6214 70.2151 33.9173 70.0003C33.5676 69.7855 33.2179 69.5438 32.8414 69.3559C32.7338 69.329 32.5724 69.3559 32.2227 69.3559Z" fill="#D4E7FE"/>
<path d="M48.0933 63.932C36.4736 64.4958 24.9884 65.0328 13.3418 65.5967C14.0142 63.744 14.6329 62.0255 15.2784 60.3071C15.6012 59.4479 15.9777 58.6423 16.2198 57.7562C16.435 56.9507 16.9461 56.7359 17.6992 56.7091C19.2054 56.6554 20.7117 56.5748 22.218 56.5211C25.9836 56.36 29.7224 56.2257 33.488 56.0646C35.317 55.9841 37.173 55.823 39.002 55.7424C39.4592 55.7156 40.051 55.8498 40.3469 56.1452C42.8214 58.5618 45.2691 61.0052 47.7168 63.4486C47.8244 63.5292 47.9051 63.6634 48.0933 63.932Z" fill="#92BFFE"/>
<path d="M43.0902 84.634C39.6473 85.9229 36.2044 87.2117 32.7615 88.4737C29.3456 89.7357 25.8758 90.944 22.4867 92.3134C20.846 92.9846 19.1514 92.9578 17.4569 93.0652C12.9381 93.3337 8.39244 93.4948 3.87367 93.7096C3.57779 93.7365 3.28192 93.7096 2.85156 93.7096C3.76608 91.2393 4.65369 88.8227 5.56821 86.433C5.6489 86.2451 6.02546 86.084 6.29444 86.084C11.647 85.8155 17.0265 85.5469 22.3791 85.2784C27.7855 85.0099 33.165 84.7414 38.5714 84.4998C40.0508 84.4461 41.557 84.4998 43.0364 84.4998C43.0633 84.5535 43.0633 84.5803 43.0902 84.634Z" fill="#D4E7FE"/>
<path d="M38.5432 54.4268C31.3885 54.7758 24.3413 55.098 17.1328 55.4471C17.2404 55.0712 17.3211 54.749 17.4287 54.4805C18.1549 52.5203 18.908 50.6139 19.5805 48.627C19.7957 47.9825 20.1453 47.7946 20.7909 47.7677C24.0724 47.6335 27.3539 47.4187 30.6622 47.2844C31.0657 47.2576 31.5768 47.365 31.8457 47.6066C34.0513 49.7279 36.1762 51.9028 38.3549 54.0777C38.4356 54.1314 38.4625 54.2388 38.5432 54.4268Z" fill="#D4E6FE"/>
<path d="M15.8694 94.7031C14.7935 95.1059 13.7176 95.5086 12.6417 95.9114C9.62915 97.0391 6.58974 98.1132 3.57722 99.2677C2.90478 99.5363 2.25924 99.59 1.7213 99.0529C1.15645 98.4891 1.29094 97.8715 1.53301 97.2002C2.31304 95.0253 2.31304 95.0522 4.59932 94.9716C8.0153 94.8374 11.4313 94.6762 14.8473 94.542C15.17 94.542 15.4928 94.542 15.8156 94.542C15.8425 94.5957 15.8425 94.6494 15.8694 94.7031Z" fill="#90BEFE"/>
<path d="M20.4414 46.452C21.2483 44.3845 21.8939 42.5586 22.6739 40.7596C22.9967 40.0078 24.0457 39.8467 24.6643 40.4374C26.4933 42.2096 28.2417 44.0354 30.1783 45.9687C26.8968 46.1298 23.8036 46.2909 20.4414 46.452Z" fill="#90BEFE"/>
<path d="M49.0071 3.19525C49.9754 2.57768 50.863 2.04067 51.8313 1.4231C52.8803 3.24896 53.3645 5.12852 53.499 7.11548C53.8217 11.9486 52.3693 16.4327 50.594 20.8363C50.1637 21.9372 49.6526 23.0112 49.1685 24.0852C49.0609 24.0584 48.9533 24.0315 48.8457 23.9778C48.9264 23.6288 49.034 23.2797 49.1147 22.9307C49.8409 19.628 50.7554 16.379 51.1858 13.0495C51.6699 9.61262 51.0782 6.2294 49.0071 3.19525Z" fill="#90BEFE"/>
<path d="M48.5508 24.7565C48.6315 24.6223 48.7122 24.488 48.7929 24.3269C48.8467 24.3538 48.8735 24.3538 48.9273 24.3806C48.8735 24.5417 48.8467 24.676 48.7929 24.8371C48.7122 24.8102 48.6315 24.7834 48.5508 24.7565Z" fill="#90BEFE"/>
<path d="M99.5742 49.0565C98.9555 50.0232 98.3907 50.9361 97.7989 51.8759C92.5808 48.6001 87.1476 49.4325 81.6874 50.7213C80.1273 51.0972 78.5942 51.6074 77.061 52.0638C76.792 52.1444 76.4961 52.1981 76.2272 52.2787C76.2003 52.1981 76.1734 52.1175 76.1465 52.037C77.4914 51.4463 78.8093 50.8019 80.1542 50.2648C83.2743 49.0297 86.4213 47.8751 89.7835 47.526C93.1188 47.177 96.4272 47.2575 99.5742 49.0565Z" fill="#90BEFE"/>
<path d="M75.8243 52.3861C75.7167 52.3861 75.5822 52.4129 75.4746 52.4129C75.4746 52.3861 75.4746 52.3324 75.4746 52.3055C75.5822 52.3055 75.7167 52.2787 75.8243 52.2787C75.8243 52.3324 75.8243 52.3592 75.8243 52.3861Z" fill="#90BEFE"/>
<path d="M88.0087 18.8493C81.9299 18.3928 77.4649 21.4001 73.2689 24.9982C72.0585 26.0185 70.9557 27.1462 69.7991 28.1934C69.5839 28.4082 69.315 28.5425 68.9922 28.6499C72.3813 24.3806 75.8241 20.2187 80.6926 17.5605C83.0596 16.2716 85.5072 15.4392 88.3315 15.6272C88.2508 16.7012 88.1432 17.7216 88.0087 18.8493Z" fill="#90BEFE"/>
<path d="M71.8691 65.3819C76.2265 65.2208 80.4494 65.5161 83.6233 69.2216C83.3006 69.5169 83.0585 69.7586 82.8164 69.9734C82.6281 70.1076 82.4398 70.215 82.1709 70.3761C79.6963 66.7513 75.85 65.9726 71.8691 65.3819Z" fill="#8EBDFE"/>
<path d="M30.4473 18.7419C30.6893 18.4197 30.8776 18.2049 31.0659 17.9633C31.2273 17.7753 31.4156 17.5874 31.6577 17.3188C35.3157 20.4336 35.6116 24.5954 35.504 28.8916C34.8585 24.9982 34.0515 21.1854 30.4473 18.7419Z" fill="#8EBDFE"/>
<path d="M74.5607 37.4033C74.5876 38.182 74.0497 38.7458 73.2697 38.7458C72.5703 38.7458 71.871 38.1283 71.9248 37.4301C72.0055 36.7052 72.3821 36.195 73.189 36.1413C73.9421 36.0876 74.5339 36.6515 74.5607 37.4033Z" fill="#D0E5FE"/>
<path d="M88.6276 32.8655C88.6545 33.6173 88.0897 34.208 87.3097 34.1812C86.5296 34.1543 86.0724 33.7516 85.9917 32.9729C85.9379 32.2748 86.5296 31.6035 87.2559 31.5498C87.9552 31.5229 88.6007 32.1405 88.6276 32.8655Z" fill="#D0E4FE"/>
<path d="M89.0298 58.6155C89.0298 59.3673 88.465 59.958 87.7119 59.9312C86.9318 59.9043 86.4746 59.4747 86.3939 58.696C86.3401 57.9979 86.9587 57.3266 87.685 57.2998C88.4112 57.2729 89.0298 57.8636 89.0298 58.6155Z" fill="#CFE4FE"/>
<path d="M40.4816 8.78025C39.7016 8.8071 39.1367 8.27009 39.1367 7.49141C39.1367 6.68588 39.594 6.25627 40.3471 6.17572C41.0464 6.09516 41.7189 6.73959 41.7727 7.43771C41.7996 8.16268 41.2347 8.7534 40.4816 8.78025Z" fill="#CFE4FE"/>
<path d="M50.6216 47.8214C49.8685 47.8214 49.2767 47.2307 49.3036 46.5057C49.3036 45.7539 49.9223 45.1632 50.6485 45.2169C51.4285 45.2706 51.8589 45.7002 51.9127 46.4789C51.9396 47.2307 51.3478 47.8214 50.6216 47.8214Z" fill="#D0E5FE"/>
<path d="M67.7277 9.15613C68.427 9.18298 69.0457 9.85426 69.0188 10.5524C68.965 11.2774 68.3463 11.8412 67.5932 11.7875C66.8132 11.707 66.4097 11.2505 66.3828 10.4718C66.3828 9.69315 66.9746 9.12928 67.7277 9.15613Z" fill="#D0E4FE"/>
<path d="M58.125 25.7232C58.125 24.9445 58.6629 24.4075 59.443 24.4075C60.2499 24.4075 60.6803 24.8908 60.7609 25.6426C60.8416 26.3407 60.1692 27.012 59.4699 27.0389C58.7167 27.0657 58.125 26.475 58.125 25.7232Z" fill="#CFE4FE"/>
<path d="M23.6698 71.3428C23.4008 71.0474 23.1318 70.7521 22.8359 70.4567C23.1587 70.215 23.4277 69.8391 23.7773 69.8123C25.0415 69.678 26.3057 69.6243 27.5699 69.6243C27.8658 69.6243 28.1616 70.0271 28.4575 70.2419C28.2154 70.4836 28.0003 70.8863 27.7313 70.94C27.0319 71.0474 26.3326 70.9669 25.6333 70.9937C25.0415 71.0206 24.4498 71.1011 23.8311 71.1548C23.8042 71.2085 23.7236 71.2891 23.6698 71.3428Z" fill="#FCFDFE"/>
<path d="M32.2235 69.3558C32.5732 69.3558 32.7346 69.3021 32.8421 69.3558C33.2187 69.5438 33.5684 69.7855 33.918 70.0003C33.6222 70.2151 33.3532 70.4836 33.0304 70.591C32.6001 70.7252 32.089 70.8058 31.6587 70.7252C31.3359 70.6715 31.04 70.3493 30.7441 70.1345C31.0131 69.8929 31.2283 69.5706 31.5511 69.4095C31.7931 69.3021 32.1428 69.3827 32.2235 69.3558Z" fill="#FCFDFE"/>
</g>
<defs>
<clipPath id="clip0_1970_246">
<rect width="101" height="103" fill="white"/>
</clipPath>
</defs>
</svg>
