<svg width="92" height="122" viewBox="0 0 92 122" fill="none" xmlns="http://www.w3.org/2000/svg">
<g clip-path="url(#clip0_1573_77)">
<path d="M51.2525 80.0703C50.0533 80.712 49.3855 80.9443 48.7641 81.3102C42.0101 84.7079 35.0732 87.7948 28.5922 91.5467C23.0432 94.7497 23.2727 95.194 21.7131 88.7739C21.4256 87.3017 21.0045 85.876 20.717 84.4038C19.4362 78.7851 19.4739 78.2479 25.3308 78.0822C33.0663 77.9367 40.7235 78.642 48.3313 78.9902C49.1821 79.0685 49.8152 79.597 51.2525 80.0703ZM24.1088 90.7106C29.7012 87.4175 34.8059 84.4439 40.0006 81.5138C39.9512 81.1567 39.8583 80.8895 39.8089 80.5324C34.0856 80.6517 28.3624 80.7709 22.0584 80.9425C22.7322 84.6012 23.3508 87.4555 24.1088 90.7106Z" fill="#936DFF"/>
<path d="M62.4343 52.598C56.5598 47.9784 50.7754 43.4023 44.9445 38.6927C42.2323 36.4918 39.7844 33.9743 37.2493 31.6369C35.3938 29.9615 35.4605 28.2164 37.0923 26.4508C37.8444 25.8149 38.4599 25.0018 39.212 24.3659C44.9583 19.1476 46.4392 19.5309 49.8398 26.5084C53.6527 34.2409 57.8198 41.7005 61.8999 49.3401C62.3587 50.2286 62.771 50.9836 63.2299 51.8721C62.9192 52.055 62.6985 52.2815 62.4343 52.598ZM56.3013 45.2983C56.5655 44.9818 56.7862 44.7553 57.1404 44.4823C53.3363 37.4205 49.6221 30.4023 45.5885 22.8963C43.5502 24.3541 41.776 25.4953 40.0484 26.7701C38.4543 27.9985 38.3382 29.3865 39.9207 30.7076C45.4409 35.6002 50.8711 40.4492 56.3013 45.2983Z" fill="#936DFF"/>
<path d="M55.263 65.1248C54.0521 64.8722 52.6206 64.8462 51.5404 64.3235C43.4475 61.0745 35.3547 57.8256 27.3054 54.4866C26.0916 54.0104 24.3725 52.5121 24.4974 51.7949C25.0461 49.2832 26.132 46.8091 27.3079 44.3787C27.395 44.1986 29.2331 44.5325 29.9097 44.9709C37.9881 50.5458 46.1565 56.1642 54.1914 61.8291C54.9144 62.4011 55.2862 63.4697 55.8786 64.3117C55.6143 64.6283 55.4837 64.8983 55.263 65.1248ZM44.0427 58.6964C44.2634 58.4699 44.4376 58.1098 44.6583 57.8833C39.1991 54.2422 33.7399 50.6011 27.9642 46.6958C27.2326 48.8969 26.6693 50.2907 26.0654 51.9981C32.3579 54.376 38.2003 56.5362 44.0427 58.6964Z" fill="#936DFF"/>
<path d="M76.3205 43.8745C73.6866 37.3789 70.9626 30.8398 68.3287 24.3443C67.774 22.965 67.2193 21.5858 66.6647 20.2065C64.8148 15.5345 65.0761 14.9943 69.9399 14.1259C78.1487 12.5431 78.3752 12.7638 78.1693 20.9959C78.0737 27.3928 77.9317 33.6562 77.7461 40.0096C77.6736 41.3076 77.511 42.562 77.3049 43.9064C76.9913 43.8658 76.6341 43.9152 76.3205 43.8745ZM67.5212 17.2882C70.0215 23.8302 72.339 30.0616 74.6099 36.1593C74.9671 36.11 75.3678 35.9706 75.7249 35.9212C75.8205 29.5242 76.0061 23.1709 76.0988 16.5503C73.1951 16.8118 70.7385 17.0674 67.5212 17.2882Z" fill="#936DFF"/>
</g>
<defs>
<clipPath id="clip0_1573_77">
<rect width="112" height="47.6" fill="white" transform="translate(0 100.82) rotate(-64.1812)"/>
</clipPath>
</defs>
</svg>
