<svg width="1919" height="1317" viewBox="0 0 1919 1317" fill="none" xmlns="http://www.w3.org/2000/svg">
<mask id="mask0_1792_432" style="mask-type:alpha" maskUnits="userSpaceOnUse" x="-1" y="-33" width="1920" height="1350">
<rect x="-1" y="-33" width="1920" height="1350" fill="#0E0422"/>
</mask>
<g mask="url(#mask0_1792_432)">
<line x1="1.99609" y1="37.5" x2="1919" y2="37.5" stroke="#001828"/>
<line x1="-1" y1="605.5" x2="1916" y2="605.5" stroke="#001828"/>
<line x1="1.99609" y1="108.5" x2="1919" y2="108.5" stroke="#001828"/>
<line x1="-1" y1="676.5" x2="1916" y2="676.5" stroke="#001828"/>
<line x1="1.99609" y1="179.5" x2="1919" y2="179.5" stroke="#001828"/>
<line x1="-1" y1="747.5" x2="1916" y2="747.5" stroke="#001828"/>
<line x1="1.99609" y1="250.5" x2="1919" y2="250.5" stroke="#001828"/>
<line x1="-1" y1="818.5" x2="1916" y2="818.5" stroke="#001828"/>
<line x1="1.99609" y1="321.5" x2="1919" y2="321.5" stroke="#001828"/>
<line x1="-1" y1="889.5" x2="1916" y2="889.5" stroke="#001828"/>
<line x1="1.99609" y1="392.5" x2="1919" y2="392.5" stroke="#001828"/>
<line x1="-1" y1="960.5" x2="1916" y2="960.5" stroke="#001828"/>
<line x1="1.99609" y1="463.5" x2="1919" y2="463.5" stroke="#001828"/>
<line x1="-1" y1="1031.5" x2="1916" y2="1031.5" stroke="#001828"/>
<line x1="1.99609" y1="1173.5" x2="1919" y2="1173.5" stroke="#001828"/>
<line x1="1.99609" y1="534.5" x2="1919" y2="534.5" stroke="#001828"/>
<line x1="-1" y1="1102.5" x2="1916" y2="1102.5" stroke="#001828"/>
<line x1="1.99609" y1="1244.5" x2="1919" y2="1244.5" stroke="#001828"/>
<line x1="73.3848" y1="-33" x2="73.3847" y2="1316" stroke="#001828"/>
<line x1="925.5" y1="-33" x2="925.5" y2="1316" stroke="#001828"/>
<line x1="144.5" y1="-33" x2="144.5" y2="1316" stroke="#001828"/>
<line x1="996.5" y1="-33" x2="996.5" y2="1316" stroke="#001828"/>
<line x1="215.5" y1="-33" x2="215.5" y2="1316" stroke="#001828"/>
<line x1="1067.5" y1="-33" x2="1067.5" y2="1316" stroke="#001828"/>
<line x1="286.5" y1="-33" x2="286.5" y2="1316" stroke="#001828"/>
<line x1="1138.5" y1="-33" x2="1138.5" y2="1316" stroke="#001828"/>
<line x1="357.5" y1="-33" x2="357.5" y2="1316" stroke="#001828"/>
<line x1="1209.5" y1="-33" x2="1209.5" y2="1316" stroke="#001828"/>
<line x1="428.5" y1="-33" x2="428.5" y2="1316" stroke="#001828"/>
<line x1="1280.5" y1="-33" x2="1280.5" y2="1316" stroke="#001828"/>
<line x1="499.5" y1="-33" x2="499.5" y2="1316" stroke="#001828"/>
<line x1="1351.5" y1="-33" x2="1351.5" y2="1316" stroke="#001828"/>
<line x1="570.5" y1="-33" x2="570.5" y2="1316" stroke="#001828"/>
<line x1="1422.5" y1="-33" x2="1422.5" y2="1316" stroke="#001828"/>
<line x1="641.5" y1="-33" x2="641.5" y2="1316" stroke="#001828"/>
<line x1="1493.5" y1="-33" x2="1493.5" y2="1316" stroke="#001828"/>
<line x1="712.5" y1="-33" x2="712.5" y2="1316" stroke="#001828"/>
<line x1="1564.5" y1="-33" x2="1564.5" y2="1316" stroke="#001828"/>
<line x1="783.5" y1="-33" x2="783.5" y2="1316" stroke="#001828"/>
<line x1="1635.5" y1="-33" x2="1635.5" y2="1316" stroke="#001828"/>
<line x1="854.5" y1="-33" x2="854.5" y2="1316" stroke="#001828"/>
<line x1="1706.5" y1="-33" x2="1706.5" y2="1316" stroke="#001828"/>
<line x1="1777.5" y1="-33" x2="1777.5" y2="1316" stroke="#001828"/>
<line x1="1848.5" y1="-33" x2="1848.5" y2="1316" stroke="#001828"/>
</g>
</svg>
