<svg version="1.2" xmlns="http://www.w3.org/2000/svg" viewBox="0 0 62 109" width="62" height="109">
	<title>arrow_shape_1</title>
	<defs>
		<clipPath clipPathUnits="userSpaceOnUse" id="cp1">
			<path d="m31.42 108.01l-54.62-51.23 59.76-63.73 54.63 51.23z"/>
		</clipPath>
	</defs>
	<style>
		.s0 { fill: #936dff } 
	</style>
	<g id="Clip-Path" clip-path="url(#cp1)">
		<g>
			<path class="s0" d="m52 16.5c-0.4-0.3-0.5-0.5-0.7-0.6-13.4-2.9-26.1-1-37.5 6.8-2.9 2-5.2 4.6-7 7.8-3.7 6.7-2.7 14.7 2.6 20.3 2.7 2.9 5.8 5.2 9.9 6 1.4-1.2 2.8-2.4 4.3-3.4 2.4-1.6 5.1-2.3 8-1.6 2.1 0.6 3.5 1.9 3.6 3.3 0 1.9-1.2 3.3-2.8 3.8-2.3 0.7-4.6 1.1-6.9 1.4-1.5 0.2-3.1 0-4.6 0-4.2 6-1.3 13 6.8 16.4 0.9-0.6 1.8-1.2 2.7-1.7 3.6-1.9 7.3-2.4 11-0.8 1.5 0.7 2.8 1.6 2.8 3.5 0 1.4-1.3 2.7-3.3 3.3-3.1 1-6.3 0.7-9.5 0.1-1.1-0.2-2.2-0.5-3.2-0.7-6.8 9.1-4.9 21.8 5.4 25.3-0.6 0.5-1 1.1-1.5 1.2-0.5 0.1-1.2-0.2-1.7-0.5-4.7-3-8-6.9-8.3-12.7-0.3-4.3 0.6-8.4 2.4-12.4 0.3-0.5 0.5-1.1 0.7-1.7 0.1 0 0-0.1 0-0.5-0.5-0.3-1-0.8-1.6-1.2-7.2-4.9-8.9-9.7-6.3-18.3-0.7-0.3-1.6-0.7-2.4-1.1-4.8-2.1-8.5-5.4-11-10.1-4.1-7.5-3.1-16.2 2.5-23.1 3.1-3.8 6.9-6.6 11.2-8.7 10.6-5 21.5-6.5 32.9-3.5 0.6 0.1 1.2 0.3 1.8 0.5 0.1 0 0.2-0.1 0.7-0.2-1.3-1.9-2.9-3.2-4.5-4.5-1.5-1.3-3.1-2.6-4.8-4 1.3-1.1 2.4-0.9 3.4-0.5 1.2 0.6 2.5 1.1 3.5 2 2.6 2.3 5.2 4.6 7.7 7.2 1.9 2 1.4 3.6-1 4.4-5.2 1.7-10.4 3.3-15.7 5-0.8 0.2-1.7 0.3-2.8 0.5 0.1-1.9 1.1-2.3 2.1-2.7 3.7-1.3 7.3-2.7 11.1-4.3zm-10.6 61.3c-3.6-2.6-7.5-2.5-10.4 0.3 3.5 0.6 6.7 1.3 10.4-0.3zm-9-22.2c-3.4-1.9-6.4-1.2-8.8 1.9 3.1 0.1 6 0.2 8.8-1.9z"/>
		</g>
	</g>
</svg>