<svg width="30" height="30" viewBox="0 0 30 30" fill="none" xmlns="http://www.w3.org/2000/svg">
<g clip-path="url(#clip0_1792_537)">
<path d="M8.57143 2.14286C8.57143 1.71429 8.57143 1.42857 8.57143 1.14286C8.57143 0.428571 9 0 9.71429 0C10.2857 0 10.7143 0.428571 10.7143 1.14286C10.7143 1.42857 10.7143 1.85714 10.7143 2.14286C10.8571 2.14286 11 2.14286 11.1429 2.14286C12.7143 2.14286 14.4286 2.14286 16 2.14286C16.7143 2.14286 17.1429 2.57143 17.1429 3.14286C17.1429 3.85714 16.7143 4.28571 16 4.28571C14.2857 4.28571 12.7143 4.28571 11.1429 4.28571C11 4.28571 10.8571 4.28571 10.7143 4.28571C10.7143 4.57143 10.7143 5 10.7143 5.28571C10.7143 6 10.2857 6.42857 9.71429 6.42857C9 6.42857 8.57143 6 8.57143 5.28571C8.57143 5 8.57143 4.71429 8.57143 4.28571C8.14286 4.28571 7.85714 4.28571 7.42857 4.28571C6.71428 4.28571 6 4.28571 5.42857 4.42857C3.57143 4.85714 2.14286 6.57143 2.14286 8.42857C2.14286 13.4286 2.14286 18.5714 2.14286 23.5714C2.14286 25.8571 4 27.7143 6.42857 27.8571C8.57143 27.8571 10.7143 27.8571 12.8571 27.8571C13.7143 27.8571 14.1429 28.5714 13.8571 29.2857C13.7143 29.7143 13.4286 30 12.8571 30C10.5714 30 8.28571 30 6 30C2.71429 29.8571 0 27 0 23.7143C0 18.5714 0 13.5714 0 8.42857C0 5 2.85714 2.14286 6.28571 2.14286C7 2.14286 7.85714 2.14286 8.57143 2.14286Z" fill="#0A0A10"/>
<path d="M22.4286 30C18.2857 30 15 26.5715 15 22.4286C15 18.2858 18.4286 14.8572 22.5714 15C26.7143 15 30 18.4286 30 22.5715C30 26.7143 26.5714 30 22.4286 30ZM22.5714 27.8572C25.5714 27.8572 27.8571 25.4286 27.8571 22.4286C27.8571 19.4286 25.4286 17.1429 22.5714 17.1429C19.5714 17.1429 17.1429 19.5715 17.1429 22.5715C17.1429 25.4286 19.5714 27.8572 22.5714 27.8572Z" fill="#0A0A10"/>
<path d="M21.428 4.28575C21.428 4.71432 21.428 5.00003 21.428 5.28575C21.428 5.85718 20.9994 6.42861 20.428 6.42861C19.8566 6.42861 19.428 6.00003 19.2852 5.28575C19.2852 3.85718 19.2852 2.42861 19.2852 1.00003C19.2852 0.428606 19.7137 -0.142822 20.428 -0.142822C20.9994 3.48687e-05 21.428 0.428606 21.428 1.14289C21.428 1.42861 21.428 1.85718 21.428 2.14289C22.1423 2.14289 22.8566 2.14289 23.5709 2.14289C25.1423 2.14289 26.428 2.57146 27.5709 3.57146C29.1423 4.85718 29.8566 6.42861 29.9994 8.42861C29.9994 9.85718 29.9994 11.2857 29.9994 12.7143C29.9994 13.4286 29.5709 13.8572 28.8566 13.8572C28.2852 13.8572 27.8566 13.4286 27.8566 12.7143C27.8566 11.2857 27.8566 10 27.8566 8.57146C27.8566 6.00003 25.9994 4.14289 23.428 4.14289C22.8566 4.28575 22.1423 4.28575 21.428 4.28575Z" fill="#0A0A10"/>
<path d="M14.9991 11.7143C12.142 11.7143 9.28486 11.7143 6.57057 11.7143C5.71343 11.7143 5.28486 11 5.57057 10.2857C5.71343 9.85713 5.99914 9.71427 6.42771 9.57141C6.57057 9.57141 6.57057 9.57141 6.71343 9.57141C12.2849 9.57141 17.8563 9.57141 23.4277 9.57141C23.5706 9.57141 23.7134 9.57141 23.8563 9.57141C24.4277 9.71427 24.7134 10.1428 24.7134 10.7143C24.7134 11.2857 24.2849 11.7143 23.7134 11.7143C22.9991 11.7143 22.142 11.7143 21.4277 11.7143C19.142 11.7143 17.142 11.7143 14.9991 11.7143Z" fill="#0A0A10"/>
<path d="M6.99916 15C7.85631 15 8.57059 15.7143 8.57059 16.5714C8.57059 17.4286 7.85631 18.1429 6.99916 18.1429C6.14202 18.1429 5.42773 17.4286 5.42773 16.5714C5.42773 15.7143 6.14202 15 6.99916 15Z" fill="#0A0A10"/>
<path d="M8.57059 23C8.57059 23.8572 7.85631 24.5714 6.99916 24.5714C6.14202 24.5714 5.42773 23.8572 5.42773 23C5.42773 22.1429 6.14202 21.4286 6.99916 21.4286C7.85631 21.4286 8.57059 22.1429 8.57059 23Z" fill="#0A0A10"/>
<path d="M22.0008 22.5715C22.5722 22.0001 23.2865 21.2858 23.8579 20.7143C24.4294 20.1429 25.0008 20.1429 25.4293 20.5715C25.8579 21.0001 25.8579 21.7143 25.2865 22.1429C24.4294 23.0001 23.5722 23.8572 22.7151 24.7143C22.1436 25.2858 21.5722 25.2858 21.0008 24.7143C20.5722 24.2858 20.0008 23.7143 19.5722 23.2858C19.1436 22.8572 19.0008 22.1429 19.5722 21.7143C20.0008 21.2858 20.7151 21.2858 21.1436 21.7143C21.4294 22.0001 21.7151 22.2858 22.0008 22.5715Z" fill="#0A0A10"/>
</g>
<defs>
<clipPath id="clip0_1792_537">
<rect width="30" height="30" fill="white"/>
</clipPath>
</defs>
</svg>
