<svg width="40" height="40" viewBox="0 0 40 40" fill="none" xmlns="http://www.w3.org/2000/svg">
<path d="M39.999 18.4423C39.999 19.5155 39.999 20.5783 39.999 21.6515C39.9677 21.7348 39.926 21.8078 39.9156 21.8911C39.7697 22.7768 39.676 23.6728 39.4676 24.5481C38.1026 30.1745 34.8935 34.4569 29.913 37.3847C27.8187 38.6142 25.5577 39.3957 23.1404 39.7708C23.1404 35.1133 23.1404 30.4663 23.1404 25.7984C24.6929 25.7984 26.235 25.7984 27.7875 25.7984C28.0792 23.8708 28.3814 21.9641 28.6731 20.0156C26.808 20.0156 24.9742 20.0156 23.1717 20.0156C23.1717 18.5465 23.0987 17.119 23.1925 15.702C23.2863 14.3266 24.0781 13.5348 25.4118 13.2535C25.8182 13.1701 26.235 13.1597 26.6517 13.1493C27.3915 13.1284 28.1313 13.1493 28.8815 13.1493C28.8815 11.4822 28.8815 9.85673 28.8815 8.24173C28.819 8.22089 28.7669 8.18963 28.7148 8.17921C26.7976 7.91873 24.87 7.66866 22.932 7.92915C21.6088 8.10628 20.3897 8.57515 19.3582 9.45038C17.5869 10.9403 16.9305 12.9305 16.8679 15.1602C16.8263 16.6398 16.8575 18.1297 16.8575 19.6093C16.8575 19.7447 16.8575 19.8802 16.8575 20.0469C15.1279 20.0469 13.4712 20.0469 11.8041 20.0469C11.8041 21.9849 11.8041 23.8812 11.8041 25.8296C13.5025 25.8296 15.1696 25.8296 16.8367 25.8296C16.8367 30.4975 16.8367 35.1342 16.8367 39.7812C14.1589 39.354 11.6895 38.4475 9.41808 37.0096C2.29123 32.5085 -1.20968 24.4126 0.363643 16.1396C1.92655 7.91873 8.75124 1.41704 17.0346 0.218807C17.5035 0.156291 17.9724 0.0729357 18.4308 0C19.4728 0 20.5147 0 21.5567 0C21.6192 0.0208388 21.6921 0.0729357 21.7546 0.0729357C24.7867 0.34384 27.6207 1.21907 30.2152 2.81323C35.5499 6.09534 38.7591 10.8362 39.7697 17.0357C39.8531 17.5046 39.926 17.9734 39.999 18.4423Z" fill="#1877F1"/>
</svg>
