<svg width="41" height="40" viewBox="0 0 41 40" fill="none" xmlns="http://www.w3.org/2000/svg">
<path d="M40.0291 21.7245C39.9561 22.2038 39.8832 22.6831 39.7998 23.1624C38.7787 29.3827 35.4758 34.0298 30.1098 37.2702C30.089 37.2806 30.0577 37.2806 30.0369 37.291C29.9535 37.1556 29.8702 37.0306 29.7972 36.8951C28.5782 34.78 27.3591 32.6648 26.1296 30.5601C27.2341 29.8412 28.276 29.0493 29.1512 28.0491C30.0265 27.0384 30.735 25.9235 31.256 24.694C31.2976 24.6002 31.3185 24.5065 31.3601 24.371C31.183 24.371 31.0476 24.371 30.9017 24.371C28.0989 24.371 25.3065 24.371 22.5037 24.371C21.368 24.371 20.8887 23.8917 20.8887 22.756C20.8887 21.1827 20.8887 19.6094 20.8887 18.0256C20.8887 17.0566 21.4096 16.5356 22.3891 16.5356C27.6925 16.5356 32.9856 16.5356 38.289 16.5356C39.2268 16.5356 39.6748 16.9107 39.8415 17.8381C39.904 18.1715 39.9666 18.5153 40.0291 18.8487C40.0291 19.7969 40.0291 20.7659 40.0291 21.7245Z" fill="#177EE5"/>
<path d="M2.73828 10.0234C3.4989 8.93983 4.16574 7.78328 5.04096 6.79344C8.31265 3.07372 12.4491 0.885647 17.3567 0.16671C17.7526 0.114613 18.1381 0.0520969 18.5341 0C19.0342 0 19.5239 0 20.024 0C20.024 2.60485 20.024 5.20969 20.024 7.81454C17.1587 7.86663 14.5955 8.75228 12.3554 10.5653C11.2822 11.4301 10.3965 12.4616 9.66717 13.6286C9.60465 13.7223 9.53172 13.8161 9.4692 13.9099C7.21862 12.6179 4.97845 11.3154 2.73828 10.0234Z" fill="#FE4B26"/>
<path d="M20.0234 7.81454C20.0234 5.20969 20.0234 2.60485 20.0234 0C20.5444 0 21.0654 0 21.5863 0C22.1073 0.083355 22.6179 0.156291 23.1388 0.239646C26.9211 0.84397 30.2553 2.4173 33.1519 4.92837C33.7249 5.4285 33.777 6.25163 33.2352 6.80386C32.0057 8.07502 30.745 9.32535 29.4842 10.5548C28.9528 11.0654 28.2756 11.0445 27.6504 10.534C26.2125 9.37744 24.5975 8.55431 22.795 8.16879C21.8885 7.98125 20.9403 7.92915 20.0234 7.81454Z" fill="#D83F22"/>
<path d="M2.73856 10.0234C4.97872 11.3154 7.21889 12.6179 9.46948 13.9099C8.91725 14.9935 8.41712 16.1084 8.15663 17.3066C7.51063 20.2657 7.89615 23.0789 9.31318 25.7567C9.3757 25.8713 9.41738 25.9859 9.46948 26.111C7.22931 27.403 4.98914 28.7054 2.74898 29.9974C2.19675 28.8096 1.51949 27.6634 1.11313 26.434C-0.751936 20.8909 -0.262225 15.5249 2.49891 10.3777C2.57185 10.2527 2.6552 10.1381 2.73856 10.0234Z" fill="#FED401"/>
<path d="M2.73828 29.9973C4.97845 28.7053 7.21862 27.4028 9.45878 26.1108C10.1256 27.1215 10.8341 28.0905 11.7302 28.9137C14.0225 31.0079 16.7211 32.0916 19.8156 32.1853C19.8782 32.1853 19.9407 32.1958 20.0136 32.1958C20.0136 34.7902 20.0136 37.395 20.0136 39.9895C16.8774 40.0103 13.9079 39.3018 11.105 37.9056C7.63539 36.1655 4.89509 33.6232 2.88415 30.2994C2.83206 30.2057 2.79038 30.1015 2.73828 29.9973Z" fill="#13B247"/>
<path d="M20.0234 40C20.0234 37.4056 20.0234 34.8007 20.0234 32.2063C21.4613 32.123 22.8783 31.9563 24.2224 31.4144C24.8684 31.154 25.4936 30.8518 26.1188 30.5601C27.3378 32.6752 28.5569 34.7903 29.7864 36.895C29.8593 37.0305 29.9427 37.1659 30.026 37.291C29.2758 37.6765 28.5361 38.1141 27.7546 38.4475C25.2956 39.4999 22.7116 40.0521 20.0234 40Z" fill="#10993E"/>
</svg>
