<svg width="35" height="35" viewBox="0 0 35 35" fill="none" xmlns="http://www.w3.org/2000/svg">
<g clip-path="url(#clip0_1668_192)">
<path d="M27.7083 5.83333H26.1027C25.4246 2.50979 22.4788 0 18.9583 0H7.29167C3.27104 0 0 3.27104 0 7.29167V26.0371C0 27.195 0.634375 28.2537 1.65375 28.7992C2.1175 29.0485 2.62646 29.171 3.13396 29.171C3.74062 29.171 4.34583 28.9946 4.86938 28.646L9.17146 25.7775C10.1792 28.5994 12.8771 30.625 16.0417 30.625H24.3498L30.1306 34.4794C30.6556 34.8294 31.2594 35.0058 31.866 35.0058C32.3735 35.0058 32.881 34.8819 33.3462 34.6325C34.3671 34.0871 35 33.0283 35 31.8704V13.125C35 9.10437 31.729 5.83333 27.7083 5.83333ZM3.25208 26.2194C3.22438 26.2369 3.14271 26.2894 3.03042 26.2296C2.91521 26.1683 2.91521 26.0706 2.91521 26.0385V7.29167C2.91521 4.87958 4.87813 2.91667 7.29021 2.91667H18.9569C21.369 2.91667 23.3319 4.87958 23.3319 7.29167V17.5C23.3319 19.9121 21.369 21.875 18.9569 21.875H10.2069C9.73 21.875 9.41792 22.1069 9.38292 22.1302L3.25208 26.2194ZM32.0833 31.8719C32.0833 31.9025 32.0833 32.0017 31.9681 32.0629C31.8529 32.1227 31.7742 32.0702 31.7479 32.0527L25.601 27.9533C25.3619 27.7944 25.0804 27.7083 24.7917 27.7083H16.0417C14.14 27.7083 12.5198 26.4892 11.9175 24.7917H18.9583C22.979 24.7917 26.25 21.5206 26.25 17.5V8.75H27.7083C30.1204 8.75 32.0833 10.7129 32.0833 13.125V31.8719Z" fill="#0A0A10"/>
</g>
<defs>
<clipPath id="clip0_1668_192">
<rect width="35" height="35" fill="white"/>
</clipPath>
</defs>
</svg>
