<svg width="34" height="40" viewBox="0 0 34 40" fill="none" xmlns="http://www.w3.org/2000/svg">
<path d="M9.5009 40C8.92473 39.7559 8.40715 39.4043 8.3095 38.7402C8.2509 38.3203 8.31926 37.8711 8.37786 37.4414C8.52434 36.416 8.70989 35.4004 8.8759 34.3848C9.02239 33.584 9.16887 32.7832 9.30559 31.9824C9.66692 29.8828 10.0087 27.7734 10.37 25.6738C10.497 24.9219 10.6728 24.1797 10.8193 23.4375C11.2587 22.6172 11.9716 22.2949 12.8798 22.2754C14.6864 22.2559 16.4931 22.2754 18.2997 22.168C19.8915 22.0703 21.4052 21.543 22.8212 20.8203C24.4618 19.9902 25.8876 18.877 27.079 17.4609C28.3095 15.9863 29.2275 14.3359 29.745 12.4902C29.9404 11.7969 30.0673 11.0742 30.2236 10.3711C31.8447 11.5137 32.9286 13.0664 33.2314 15.0195C33.8564 19.0039 32.5185 22.373 29.6864 25.1855C28.0654 26.7969 26.0829 27.8125 23.8466 28.252C22.7724 28.457 21.6493 28.5254 20.5556 28.5059C18.9247 28.4668 17.6454 29.4238 17.3818 31.2988C17.079 33.4277 16.6786 35.5371 16.3271 37.6563C16.2978 37.8223 16.249 37.9883 16.2392 38.1543C16.1904 39.0332 15.7997 39.668 14.9697 40.0098C13.1435 40 11.3271 40 9.5009 40Z" fill="#0084CB"/>
<path d="M10.8195 23.4277C10.6633 24.1699 10.4972 24.9121 10.3703 25.6641C10.009 27.7637 9.65739 29.873 9.30583 31.9727C9.16911 32.7734 9.02263 33.5742 8.87614 34.375C8.81755 34.4434 8.74919 34.5019 8.70036 34.5703C8.30974 35.0977 7.80192 35.3906 7.14763 35.3906C5.38981 35.3906 3.632 35.4102 1.87419 35.3906C0.663251 35.3809 -0.166827 34.4043 0.0284852 33.2031C0.526532 30.127 1.05388 27.0508 1.57145 23.9746C2.18669 20.332 2.80192 16.6992 3.40739 13.0566C4.04216 9.27734 4.66716 5.49805 5.31169 1.71875C5.51677 0.556641 6.21013 0 7.40153 0C12.089 0 16.7765 0 21.4543 0C25.3703 0 28.5441 2.23633 29.8429 5.92773C30.3312 7.32422 30.3898 8.7793 30.1847 10.2441C29.9015 10.0977 29.6086 9.96094 29.3351 9.80469C28.1926 9.18945 26.9523 8.92578 25.673 8.91602C22.4992 8.89648 19.3254 8.90625 16.1515 8.91602C15.7121 8.91602 15.2726 8.94531 14.8332 8.99414C13.9836 9.0918 13.1047 9.83398 12.9386 10.6738C12.6066 12.3926 12.3039 14.1211 12.0011 15.8496C11.63 17.9883 11.2687 20.127 10.9172 22.2656C10.8683 22.6465 10.8586 23.0469 10.8195 23.4277Z" fill="#002987"/>
<path d="M10.8203 23.4278C10.8594 23.0372 10.8594 22.6465 10.9277 22.2657C11.2793 20.127 11.6406 17.9883 12.0117 15.8497C12.3145 14.1211 12.6074 12.3926 12.9492 10.6739C13.1152 9.83403 13.9941 9.09184 14.8437 8.99419C15.2832 8.94536 15.7227 8.91606 16.1621 8.91606C19.3359 8.9063 22.5098 8.89653 25.6836 8.91606C26.9629 8.92583 28.2031 9.1895 29.3457 9.80473C29.6289 9.96098 29.9121 10.0977 30.1953 10.2442C30.2051 10.2832 30.2148 10.3321 30.2246 10.3711C30.0684 11.0743 29.9414 11.7969 29.7461 12.4903C29.2285 14.3457 28.3105 15.9864 27.0801 17.461C25.8984 18.877 24.4629 19.9903 22.8223 20.8204C21.3965 21.543 19.8926 22.0704 18.3008 22.168C16.5039 22.2754 14.6875 22.2461 12.8809 22.2754C11.9727 22.2852 11.2598 22.6172 10.8203 23.4278Z" fill="#00186A"/>
</svg>
