<svg width="20" height="20" viewBox="0 0 20 20" fill="none" xmlns="http://www.w3.org/2000/svg">
<g clip-path="url(#clip0_1792_1336)">
<path d="M10 8.33286C7.7025 8.33286 5.83333 10.202 5.83333 12.4995C5.83333 14.797 7.7025 16.6662 10 16.6662C12.2975 16.6662 14.1667 14.797 14.1667 12.4995C14.1667 10.202 12.2975 8.33286 10 8.33286ZM10 14.9995C8.62167 14.9995 7.5 13.8779 7.5 12.4995C7.5 11.1212 8.62167 9.99953 10 9.99953C11.3783 9.99953 12.5 11.1212 12.5 12.4995C12.5 13.8779 11.3783 14.9995 10 14.9995ZM17.205 9.13286C18.7717 8.96536 20 7.6512 20 6.04203C20 4.86286 19.53 3.74203 18.6725 2.88453C14.8625 -0.925469 5.13583 -0.924635 1.3275 2.88453C0.47 3.74203 0 4.86286 0 6.0412C0 7.6512 1.22917 8.96536 2.795 9.13286L1.07833 12.352C0.3725 13.6754 0 15.167 0 16.6662C0 18.5045 1.495 19.9995 3.33333 19.9995H16.6667C18.505 19.9995 20 18.5045 20 16.6662C20 15.167 19.6275 13.6754 18.9217 12.352L17.205 9.13286ZM1.66667 6.04036C1.66667 5.30703 1.96333 4.60453 2.50583 4.06286C5.72833 0.842031 14.2733 0.842031 17.4942 4.06286C18.0358 4.60453 18.3342 5.30703 18.3333 6.0412C18.3333 6.84536 17.6792 7.49953 16.875 7.49953H16.305L15.6575 6.42036C15.3117 5.84286 14.8125 5.39203 14.2167 5.11786C13.275 4.6837 11.7792 4.16703 10 4.16703C8.22083 4.16703 6.725 4.68453 5.78417 5.11786C5.18667 5.39286 4.68833 5.84286 4.3425 6.42036L3.695 7.49953H3.125C2.32083 7.49953 1.66667 6.84536 1.66667 6.04036ZM16.6667 18.3329H3.33333C2.41417 18.3329 1.66667 17.5854 1.66667 16.6662C1.66667 15.4395 1.97167 14.2187 2.55 13.137L4.89833 8.7337L5.77167 7.27703C5.945 6.9887 6.19 6.76536 6.4825 6.6312C7.27167 6.26703 8.52333 5.83286 10.0008 5.83286C11.4783 5.83286 12.7292 6.26703 13.52 6.6312C13.8117 6.76536 14.0567 6.9887 14.23 7.27703L15.1033 8.7337L17.4517 13.137C18.0292 14.2195 18.335 15.4404 18.335 16.6662C18.335 17.5854 17.5875 18.3329 16.6683 18.3329H16.6667Z" fill="#0A0A10"/>
</g>
<defs>
<clipPath id="clip0_1792_1336">
<rect width="20" height="20" fill="white"/>
</clipPath>
</defs>
</svg>
