<svg width="49" height="49" viewBox="0 0 49 49" fill="none" xmlns="http://www.w3.org/2000/svg">
<path d="M40.5024 24.5H34.2608V19.3959C34.2608 16.5806 36.5 14.2917 39.2541 14.2917H39.8783C40.916 14.2917 41.7508 13.4383 41.7508 12.3776V8.5495C41.7508 7.48879 40.916 6.63544 39.8783 6.63544H39.2541C32.3571 6.63544 26.7708 12.3457 26.7708 19.3959V38.5365C26.7708 40.6499 28.4482 42.3646 30.5158 42.3646H40.5024C42.57 42.3646 44.2474 40.6499 44.2474 38.5365V28.3281C44.2474 26.2147 42.57 24.5 40.5024 24.5ZM18.0324 24.5H11.7908V19.3959C11.7908 16.5806 14.03 14.2917 16.7841 14.2917H17.4083C18.446 14.2917 19.2808 13.4383 19.2808 12.3776V8.5495C19.2808 7.48879 18.446 6.63544 17.4083 6.63544H16.7841C9.88707 6.63544 4.30078 12.3457 4.30078 19.3959V38.5365C4.30078 40.6499 5.97823 42.3646 8.04578 42.3646H18.0324C20.1 42.3646 21.7774 40.6499 21.7774 38.5365V28.3281C21.7774 26.2147 20.1 24.5 18.0324 24.5Z" fill="#00CC61"/>
</svg>
