<svg width="35" height="35" viewBox="0 0 35 35" fill="none" xmlns="http://www.w3.org/2000/svg">
<g clip-path="url(#clip0_1668_194)">
<path d="M17.5 23.3333C16.3463 23.3333 15.2185 22.9912 14.2592 22.3502C13.2999 21.7093 12.5522 20.7982 12.1107 19.7323C11.6692 18.6664 11.5537 17.4935 11.7788 16.362C12.0038 15.2304 12.5594 14.191 13.3752 13.3752C14.191 12.5594 15.2304 12.0038 16.362 11.7788C17.4935 11.5537 18.6664 11.6692 19.7323 12.1107C20.7982 12.5522 21.7093 13.2999 22.3502 14.2592C22.9912 15.2185 23.3333 16.3463 23.3333 17.5C23.3333 19.0471 22.7188 20.5308 21.6248 21.6248C20.5308 22.7188 19.0471 23.3333 17.5 23.3333ZM17.5 14.5833C16.9231 14.5833 16.3592 14.7544 15.8796 15.0749C15.3999 15.3954 15.0261 15.8509 14.8054 16.3838C14.5846 16.9168 14.5268 17.5032 14.6394 18.069C14.7519 18.6348 15.0297 19.1545 15.4376 19.5624C15.8455 19.9703 16.3652 20.2481 16.931 20.3606C17.4968 20.4732 18.0832 20.4154 18.6162 20.1947C19.1491 19.9739 19.6046 19.6001 19.9251 19.1204C20.2456 18.6408 20.4167 18.0769 20.4167 17.5C20.4167 16.7265 20.1094 15.9846 19.5624 15.4376C19.0154 14.8906 18.2735 14.5833 17.5 14.5833ZM26.25 33.5417C26.25 31.221 25.3281 28.9954 23.6872 27.3545C22.0462 25.7135 19.8206 24.7917 17.5 24.7917C15.1794 24.7917 12.9538 25.7135 11.3128 27.3545C9.67187 28.9954 8.75 31.221 8.75 33.5417C8.75 33.9284 8.90365 34.2994 9.17714 34.5729C9.45063 34.8464 9.82156 35 10.2083 35C10.5951 35 10.966 34.8464 11.2395 34.5729C11.513 34.2994 11.6667 33.9284 11.6667 33.5417C11.6667 31.9946 12.2812 30.5108 13.3752 29.4169C14.4692 28.3229 15.9529 27.7083 17.5 27.7083C19.0471 27.7083 20.5308 28.3229 21.6248 29.4169C22.7188 30.5108 23.3333 31.9946 23.3333 33.5417C23.3333 33.9284 23.487 34.2994 23.7605 34.5729C24.034 34.8464 24.4049 35 24.7917 35C25.1784 35 25.5494 34.8464 25.8229 34.5729C26.0964 34.2994 26.25 33.9284 26.25 33.5417ZM26.25 11.6667C25.0963 11.6667 23.9685 11.3246 23.0092 10.6836C22.0499 10.0426 21.3022 9.13156 20.8607 8.06566C20.4192 6.99975 20.3037 5.82687 20.5288 4.69531C20.7538 3.56375 21.3094 2.52435 22.1252 1.70855C22.941 0.89274 23.9804 0.337169 25.112 0.112088C26.2435 -0.112992 27.4164 0.00252747 28.4823 0.444039C29.5482 0.88555 30.4593 1.63322 31.1002 2.59251C31.7412 3.5518 32.0833 4.67961 32.0833 5.83334C32.0833 7.38043 31.4688 8.86416 30.3748 9.95813C29.2808 11.0521 27.7971 11.6667 26.25 11.6667ZM26.25 2.91667C25.6731 2.91667 25.1092 3.08773 24.6296 3.40822C24.1499 3.7287 23.7761 4.18423 23.5554 4.71718C23.3346 5.25013 23.2768 5.83657 23.3894 6.40235C23.5019 6.96813 23.7797 7.48783 24.1876 7.89573C24.5955 8.30363 25.1152 8.58142 25.681 8.69396C26.2468 8.8065 26.8332 8.74874 27.3662 8.52799C27.8991 8.30723 28.3546 7.93339 28.6751 7.45375C28.9956 6.97411 29.1667 6.4102 29.1667 5.83334C29.1667 5.05979 28.8594 4.31792 28.3124 3.77094C27.7654 3.22396 27.0235 2.91667 26.25 2.91667ZM35 21.875C34.9977 19.5551 34.0751 17.3308 32.4346 15.6904C30.7942 14.0499 28.5699 13.1273 26.25 13.125C25.8632 13.125 25.4923 13.2786 25.2188 13.5521C24.9453 13.8256 24.7917 14.1966 24.7917 14.5833C24.7917 14.9701 24.9453 15.341 25.2188 15.6145C25.4923 15.888 25.8632 16.0417 26.25 16.0417C27.7971 16.0417 29.2808 16.6563 30.3748 17.7502C31.4688 18.8442 32.0833 20.3279 32.0833 21.875C32.0833 22.2618 32.237 22.6327 32.5105 22.9062C32.784 23.1797 33.1549 23.3333 33.5417 23.3333C33.9284 23.3333 34.2994 23.1797 34.5729 22.9062C34.8464 22.6327 35 22.2618 35 21.875ZM8.75 11.6667C7.59628 11.6667 6.46846 11.3246 5.50917 10.6836C4.54989 10.0426 3.80221 9.13156 3.3607 8.06566C2.91919 6.99975 2.80367 5.82687 3.02875 4.69531C3.25383 3.56375 3.8094 2.52435 4.62521 1.70855C5.44102 0.89274 6.48042 0.337169 7.61197 0.112088C8.74353 -0.112992 9.91642 0.00252747 10.9823 0.444039C12.0482 0.88555 12.9593 1.63322 13.6002 2.59251C14.2412 3.5518 14.5833 4.67961 14.5833 5.83334C14.5833 7.38043 13.9688 8.86416 12.8748 9.95813C11.7808 11.0521 10.2971 11.6667 8.75 11.6667ZM8.75 2.91667C8.17314 2.91667 7.60923 3.08773 7.12959 3.40822C6.64994 3.7287 6.27611 4.18423 6.05535 4.71718C5.8346 5.25013 5.77684 5.83657 5.88938 6.40235C6.00192 6.96813 6.2797 7.48783 6.68761 7.89573C7.09551 8.30363 7.61521 8.58142 8.18099 8.69396C8.74677 8.8065 9.33321 8.74874 9.86616 8.52799C10.3991 8.30723 10.8546 7.93339 11.1751 7.45375C11.4956 6.97411 11.6667 6.4102 11.6667 5.83334C11.6667 5.05979 11.3594 4.31792 10.8124 3.77094C10.2654 3.22396 9.52355 2.91667 8.75 2.91667ZM2.91667 21.875C2.91667 20.3279 3.53125 18.8442 4.62521 17.7502C5.71917 16.6563 7.2029 16.0417 8.75 16.0417C9.13677 16.0417 9.50771 15.888 9.7812 15.6145C10.0547 15.341 10.2083 14.9701 10.2083 14.5833C10.2083 14.1966 10.0547 13.8256 9.7812 13.5521C9.50771 13.2786 9.13677 13.125 8.75 13.125C6.43007 13.1273 4.20582 14.0499 2.56537 15.6904C0.924933 17.3308 0.00231646 19.5551 0 21.875C0 22.2618 0.153645 22.6327 0.427136 22.9062C0.700627 23.1797 1.07156 23.3333 1.45833 23.3333C1.84511 23.3333 2.21604 23.1797 2.48953 22.9062C2.76302 22.6327 2.91667 22.2618 2.91667 21.875Z" fill="#0A0A10"/>
</g>
<defs>
<clipPath id="clip0_1668_194">
<rect width="35" height="35" fill="white"/>
</clipPath>
</defs>
</svg>
