<svg width="76" height="76" viewBox="0 0 76 76" fill="none" xmlns="http://www.w3.org/2000/svg">
<g clip-path="url(#clip0_2032_760)">
<path d="M38.0238 0C40.1705 0.00394351 42.2817 0.185345 44.334 0.528431V22.6516L60.0183 7.00764C61.7506 8.23799 63.3712 9.60639 64.8695 11.101C66.3686 12.5956 67.7446 14.2164 68.978 15.9437L53.2929 31.5876H75.4739C75.8181 33.6342 76 35.7323 76 37.8775V37.9288C76 40.074 75.8181 42.176 75.4739 44.2226H53.2891L68.978 59.8626C67.7446 61.5899 66.3686 63.2107 64.874 64.7053H64.8695C63.3712 66.1999 61.7506 67.5722 60.0228 68.7986L44.334 53.1547V75.2778C42.2855 75.6209 40.1742 75.8021 38.0275 75.8066H37.9725C35.825 75.8021 33.7221 75.6209 31.6697 75.2778V53.1547L15.9855 68.7986C12.5216 66.3418 9.4933 63.3172 7.02581 59.8626L22.7109 44.2226H0.52988C0.18191 42.172 0 40.0622 0 37.9169V37.8068C0.00360569 37.2501 0.0400603 36.57 0.0924207 35.8664L0.108589 35.6547C0.263624 33.6741 0.52988 31.5876 0.52988 31.5876H22.7109L7.02581 15.9437C8.25541 14.2164 9.62766 12.5995 11.126 11.1089L11.1335 11.101C12.6288 9.60639 14.2532 8.23799 15.9855 7.00764L31.6697 22.6516V0.528431C33.7221 0.185345 35.8295 0.00394351 37.98 0H38.0238ZM38.02 28.4288H37.9838C35.1608 28.4288 32.457 28.9454 29.9578 29.884C29.0211 32.3723 28.5025 35.0697 28.4988 37.8854V37.9208C28.5025 40.7365 29.0211 43.4339 29.9616 45.9222C32.457 46.8609 35.1608 47.3775 37.9838 47.3775H38.02C40.843 47.3775 43.5468 46.8609 46.0422 45.9222C46.9827 43.43 47.5012 40.7365 47.5012 37.9208V37.8854C47.5012 35.0697 46.9827 32.3723 46.0422 29.884C43.5468 28.9454 40.843 28.4288 38.02 28.4288Z" fill="#FF4A00"/>
</g>
<defs>
<clipPath id="clip0_2032_760">
<rect width="76" height="76" fill="white"/>
</clipPath>
</defs>
</svg>
